SplineFontDB: 3.0
FontName: owf-regular
FullName: owf-regular
FamilyName: owf-regular
Weight: Book
Version: 1.0
ItalicAngle: 0
UnderlinePosition: 0
UnderlineWidth: 0
Ascent: 1638
Descent: 410
sfntRevision: 0x00000000
LayerCount: 2
Layer: 0 1 "Back"  1
Layer: 1 1 "Fore"  0
XUID: [1021 337 127606963 3549191]
FSType: 0
OS2Version: 0
OS2_WeightWidthSlopeOnly: 0
OS2_UseTypoMetrics: 1
CreationTime: -2082844800
ModificationTime: 1467376881
PfmFamily: 17
TTFWeight: 400
TTFWidth: 5
LineGap: 281
VLineGap: 0
Panose: 2 11 6 3 5 3 2 2 2 4
OS2TypoAscent: 1926
OS2TypoAOffset: 0
OS2TypoDescent: 159
OS2TypoDOffset: 0
OS2TypoLinegap: 281
OS2WinAscent: 1926
OS2WinAOffset: 0
OS2WinDescent: -159
OS2WinDOffset: 0
HheadAscent: 1926
HheadAOffset: 0
HheadDescent: 159
HheadDOffset: 0
OS2SubXSize: 0
OS2SubYSize: 0
OS2SubXOff: 0
OS2SubYOff: 0
OS2SupXSize: 0
OS2SupYSize: 0
OS2SupXOff: 0
OS2SupYOff: 0
OS2StrikeYSize: 0
OS2StrikeYPos: 0
OS2UnicodeRanges: 00000000.10000000.00000000.00000000
DEI: 91125
ShortTable: maxp 16
  1
  0
  83
  909
  11
  0
  0
  1
  0
  16
  0
  0
  0
  0
  0
  0
EndShort
LangName: 1033 "" "" "Regular" "owf-regular" 
Encoding: UnicodeBmp
UnicodeInterp: none
NameList: Adobe Glyph List
DisplaySize: -24
AntiAlias: 1
FitToEm: 1
WinInfo: 60768 16 4
BeginChars: 65539 83

StartChar: .notdef
Encoding: 65536 -1 0
Width: 2048
Flags: W
LayerCount: 2
Fore
SplineSet
652 895 m 1,0,1
 596 876 596 876 530 876 c 0,2,3
 381 876 381 876 276 969 c 128,-1,4
 171 1062 171 1062 171 1194 c 0,5,6
 171 1305 171 1305 247 1390 c 128,-1,7
 323 1475 323 1475 439 1502 c 1,8,9
 450 1658 450 1658 580.5 1767.5 c 128,-1,10
 711 1877 711 1877 892 1877 c 0,11,12
 1022 1877 1022 1877 1129 1817.5 c 128,-1,13
 1236 1758 1236 1758 1293 1662 c 1,14,15
 1357 1679 1357 1679 1424 1679 c 0,16,17
 1611 1679 1611 1679 1744 1561 c 128,-1,18
 1877 1443 1877 1443 1877 1277 c 0,19,20
 1877 1110 1877 1110 1744 993 c 128,-1,21
 1611 876 1611 876 1424 876 c 0,22,23
 1356 876 1356 876 1305 890 c 1,24,25
 1168 803 1168 803 982 803 c 0,26,27
 789 803 789 803 652 895 c 1,0,1
1235 530 m 0,28,29
 1164 489 1164 489 1110 533 c 1,30,31
 1054 575 1054 575 1077 654 c 1,32,33
 1093 705 1093 705 1190.5 734 c 128,-1,34
 1288 763 1288 763 1289 763 c 0,35,36
 1291 760 1291 760 1286.5 659 c 128,-1,37
 1282 558 1282 558 1235 530 c 0,28,29
796 754 m 1,38,-1
 704 645 l 1,39,-1
 962 645 l 1,40,-1
 487 171 l 1,41,-1
 624 512 l 1,42,-1
 443 512 l 1,43,-1
 551 823 l 1,44,45
 571 826 571 826 604 836 c 1,46,47
 686 781 686 781 796 754 c 1,38,-1
EndSplineSet
Validated: 33
EndChar

StartChar: uniEB28
Encoding: 60200 60200 4
Width: 1970
Flags: W
LayerCount: 2
Fore
SplineSet
652 895 m 1,0,1
 596 876 596 876 530 876 c 0,2,3
 381 876 381 876 276 969 c 128,-1,4
 171 1062 171 1062 171 1194 c 0,5,6
 171 1305 171 1305 247 1390 c 128,-1,7
 323 1475 323 1475 439 1502 c 1,8,9
 450 1658 450 1658 580.5 1767.5 c 128,-1,10
 711 1877 711 1877 892 1877 c 0,11,12
 1022 1877 1022 1877 1129 1817.5 c 128,-1,13
 1236 1758 1236 1758 1293 1662 c 1,14,15
 1357 1679 1357 1679 1424 1679 c 0,16,17
 1611 1679 1611 1679 1744 1561 c 128,-1,18
 1877 1443 1877 1443 1877 1277 c 0,19,20
 1877 1110 1877 1110 1744 993 c 128,-1,21
 1611 876 1611 876 1424 876 c 0,22,23
 1356 876 1356 876 1305 890 c 1,24,25
 1168 803 1168 803 982 803 c 0,26,27
 789 803 789 803 652 895 c 1,0,1
1235 530 m 0,28,29
 1164 489 1164 489 1110 533 c 1,30,31
 1054 575 1054 575 1077 654 c 1,32,33
 1093 705 1093 705 1190.5 734 c 128,-1,34
 1288 763 1288 763 1289 763 c 0,35,36
 1291 760 1291 760 1286.5 659 c 128,-1,37
 1282 558 1282 558 1235 530 c 0,28,29
796 754 m 1,38,-1
 704 645 l 1,39,-1
 962 645 l 1,40,-1
 487 171 l 1,41,-1
 624 512 l 1,42,-1
 443 512 l 1,43,-1
 551 823 l 1,44,45
 571 826 571 826 604 836 c 1,46,47
 686 781 686 781 796 754 c 1,38,-1
EndSplineSet
Validated: 33
EndChar

StartChar: uniEB29
Encoding: 60201 60201 5
Width: 1970
Flags: W
LayerCount: 2
Fore
SplineSet
652 895 m 1,0,1
 596 876 596 876 530 876 c 0,2,3
 381 876 381 876 276 969 c 128,-1,4
 171 1062 171 1062 171 1194 c 0,5,6
 171 1305 171 1305 247 1390 c 128,-1,7
 323 1475 323 1475 439 1502 c 1,8,9
 450 1658 450 1658 580.5 1767.5 c 128,-1,10
 711 1877 711 1877 892 1877 c 0,11,12
 1022 1877 1022 1877 1129 1817.5 c 128,-1,13
 1236 1758 1236 1758 1293 1662 c 1,14,15
 1357 1679 1357 1679 1424 1679 c 0,16,17
 1611 1679 1611 1679 1744 1561 c 128,-1,18
 1877 1443 1877 1443 1877 1277 c 0,19,20
 1877 1110 1877 1110 1744 993 c 128,-1,21
 1611 876 1611 876 1424 876 c 0,22,23
 1356 876 1356 876 1305 890 c 1,24,25
 1168 803 1168 803 982 803 c 0,26,27
 789 803 789 803 652 895 c 1,0,1
1230 539 m 0,28,29
 1167 501 1167 501 1116 542 c 1,30,31
 1065 581 1065 581 1086 653 c 1,32,33
 1101 699 1101 699 1190 725.5 c 128,-1,34
 1279 752 1279 752 1280 752 c 0,35,36
 1281 750 1281 750 1277 657.5 c 128,-1,37
 1273 565 1273 565 1230 539 c 0,28,29
1605 649 m 0,38,39
 1535 608 1535 608 1480 651 c 0,40,41
 1423 696 1423 696 1448 773 c 1,42,43
 1463 824 1463 824 1560.5 852.5 c 128,-1,44
 1658 881 1658 881 1659 881 c 0,45,46
 1661 879 1661 879 1656.5 777.5 c 128,-1,47
 1652 676 1652 676 1605 649 c 0,38,39
796 754 m 1,48,-1
 704 645 l 1,49,-1
 962 645 l 1,50,-1
 487 171 l 1,51,-1
 624 512 l 1,52,-1
 443 512 l 1,53,-1
 551 823 l 1,54,55
 571 826 571 826 604 836 c 1,56,57
 686 781 686 781 796 754 c 1,48,-1
EndSplineSet
Validated: 33
EndChar

StartChar: uniEB2A
Encoding: 60202 60202 6
Width: 1970
Flags: W
LayerCount: 2
Fore
SplineSet
652 895 m 1,0,1
 596 876 596 876 530 876 c 0,2,3
 381 876 381 876 276 969 c 128,-1,4
 171 1062 171 1062 171 1194 c 0,5,6
 171 1305 171 1305 247 1390 c 128,-1,7
 323 1475 323 1475 439 1502 c 1,8,9
 450 1658 450 1658 580.5 1767.5 c 128,-1,10
 711 1877 711 1877 892 1877 c 0,11,12
 1022 1877 1022 1877 1129 1817.5 c 128,-1,13
 1236 1758 1236 1758 1293 1662 c 1,14,15
 1357 1679 1357 1679 1424 1679 c 0,16,17
 1611 1679 1611 1679 1744 1561 c 128,-1,18
 1877 1443 1877 1443 1877 1277 c 0,19,20
 1877 1110 1877 1110 1744 993 c 128,-1,21
 1611 876 1611 876 1424 876 c 0,22,23
 1356 876 1356 876 1305 890 c 1,24,25
 1168 803 1168 803 982 803 c 0,26,27
 789 803 789 803 652 895 c 1,0,1
1230 539 m 0,28,29
 1167 501 1167 501 1116 542 c 1,30,31
 1065 581 1065 581 1086 653 c 1,32,33
 1101 699 1101 699 1190 725.5 c 128,-1,34
 1279 752 1279 752 1280 752 c 0,35,36
 1281 750 1281 750 1277 657.5 c 128,-1,37
 1273 565 1273 565 1230 539 c 0,28,29
1605 649 m 0,38,39
 1535 608 1535 608 1480 651 c 0,40,41
 1423 696 1423 696 1448 773 c 1,42,43
 1463 824 1463 824 1560.5 852.5 c 128,-1,44
 1658 881 1658 881 1659 881 c 0,45,46
 1661 879 1661 879 1656.5 777.5 c 128,-1,47
 1652 676 1652 676 1605 649 c 0,38,39
1365 296 m 0,48,49
 1306 261 1306 261 1260 299 c 1,50,51
 1212 335 1212 335 1233 401 c 0,52,53
 1246 444 1246 444 1328 468.5 c 128,-1,54
 1410 493 1410 493 1411 493 c 0,55,56
 1413 491 1413 491 1409 405.5 c 128,-1,57
 1405 320 1405 320 1365 296 c 0,48,49
796 754 m 1,58,-1
 704 645 l 1,59,-1
 962 645 l 1,60,-1
 487 171 l 1,61,-1
 624 512 l 1,62,-1
 443 512 l 1,63,-1
 551 823 l 1,64,65
 571 826 571 826 604 836 c 1,66,67
 686 781 686 781 796 754 c 1,58,-1
EndSplineSet
Validated: 33
EndChar

StartChar: uniEB32
Encoding: 60210 60210 7
Width: 1970
Flags: W
LayerCount: 2
Fore
SplineSet
652 895 m 1,0,1
 596 876 596 876 530 876 c 0,2,3
 381 876 381 876 276 969 c 128,-1,4
 171 1062 171 1062 171 1194 c 0,5,6
 171 1305 171 1305 247 1390 c 128,-1,7
 323 1475 323 1475 439 1502 c 1,8,9
 450 1658 450 1658 580.5 1767.5 c 128,-1,10
 711 1877 711 1877 892 1877 c 0,11,12
 1022 1877 1022 1877 1129 1817.5 c 128,-1,13
 1236 1758 1236 1758 1293 1662 c 1,14,15
 1357 1679 1357 1679 1424 1679 c 0,16,17
 1611 1679 1611 1679 1744 1561 c 128,-1,18
 1877 1443 1877 1443 1877 1277 c 0,19,20
 1877 1110 1877 1110 1744 993 c 128,-1,21
 1611 876 1611 876 1424 876 c 0,22,23
 1356 876 1356 876 1305 890 c 1,24,25
 1168 803 1168 803 982 803 c 0,26,27
 789 803 789 803 652 895 c 1,0,1
796 754 m 1,28,-1
 704 645 l 1,29,-1
 962 645 l 1,30,-1
 487 171 l 1,31,-1
 624 512 l 1,32,-1
 443 512 l 1,33,-1
 551 823 l 1,34,35
 571 826 571 826 604 836 c 1,36,37
 686 781 686 781 796 754 c 1,28,-1
EndSplineSet
Validated: 1
EndChar

StartChar: uniEB33
Encoding: 60211 60211 8
Width: 1970
Flags: W
LayerCount: 2
Fore
SplineSet
652 895 m 1,0,1
 596 876 596 876 530 876 c 0,2,3
 381 876 381 876 276 969 c 128,-1,4
 171 1062 171 1062 171 1194 c 0,5,6
 171 1305 171 1305 247 1390 c 128,-1,7
 323 1475 323 1475 439 1502 c 1,8,9
 450 1658 450 1658 580.5 1767.5 c 128,-1,10
 711 1877 711 1877 892 1877 c 0,11,12
 1022 1877 1022 1877 1129 1817.5 c 128,-1,13
 1236 1758 1236 1758 1293 1662 c 1,14,15
 1357 1679 1357 1679 1424 1679 c 0,16,17
 1611 1679 1611 1679 1744 1561 c 128,-1,18
 1877 1443 1877 1443 1877 1277 c 0,19,20
 1877 1110 1877 1110 1744 993 c 128,-1,21
 1611 876 1611 876 1424 876 c 0,22,23
 1356 876 1356 876 1305 890 c 1,24,25
 1168 803 1168 803 982 803 c 0,26,27
 789 803 789 803 652 895 c 1,0,1
1374 824 m 1,28,-1
 1313 751 l 1,29,-1
 1518 751 l 1,30,-1
 1139 372 l 1,31,-1
 1248 645 l 1,32,-1
 1103 645 l 1,33,-1
 1140 750 l 1,34,35
 1258 776 1258 776 1341 831 c 1,36,37
 1352 828 1352 828 1374 824 c 1,28,-1
796 754 m 1,38,-1
 704 645 l 1,39,-1
 962 645 l 1,40,-1
 487 171 l 1,41,-1
 624 512 l 1,42,-1
 443 512 l 1,43,-1
 551 823 l 1,44,45
 571 826 571 826 604 836 c 1,46,47
 686 781 686 781 796 754 c 1,38,-1
EndSplineSet
Validated: 1
EndChar

StartChar: uniEB34
Encoding: 60212 60212 9
Width: 1970
Flags: W
LayerCount: 2
Fore
SplineSet
652 895 m 1,0,1
 596 876 596 876 530 876 c 0,2,3
 381 876 381 876 276 969 c 128,-1,4
 171 1062 171 1062 171 1194 c 0,5,6
 171 1305 171 1305 247 1390 c 128,-1,7
 323 1475 323 1475 439 1502 c 1,8,9
 450 1658 450 1658 580.5 1767.5 c 128,-1,10
 711 1877 711 1877 892 1877 c 0,11,12
 1022 1877 1022 1877 1129 1817.5 c 128,-1,13
 1236 1758 1236 1758 1293 1662 c 1,14,15
 1357 1679 1357 1679 1424 1679 c 0,16,17
 1611 1679 1611 1679 1744 1561 c 128,-1,18
 1877 1443 1877 1443 1877 1277 c 0,19,20
 1877 1110 1877 1110 1744 993 c 128,-1,21
 1611 876 1611 876 1424 876 c 0,22,23
 1356 876 1356 876 1305 890 c 1,24,25
 1168 803 1168 803 982 803 c 0,26,27
 789 803 789 803 652 895 c 1,0,1
1527 817 m 1,28,-1
 1514 803 l 1,29,-1
 1716 803 l 1,30,-1
 1344 430 l 1,31,-1
 1451 698 l 1,32,-1
 1309 698 l 1,33,-1
 1354 828 l 1,34,35
 1410 815 1410 815 1476 815 c 0,36,37
 1493 815 1493 815 1527 817 c 1,28,-1
605 835 m 2,38,-1
 513 727 l 1,39,-1
 715 727 l 1,40,-1
 343 355 l 1,41,-1
 450 623 l 1,42,-1
 308 623 l 1,43,-1
 378 823 l 1,44,45
 422 815 422 815 465 815 c 0,46,47
 538 815 538 815 604 836 c 1,48,49
 604 836 604 836 604 835.5 c 128,-1,50
 604 835 604 835 605 835 c 2,38,-1
1074 739 m 1,51,-1
 995 645 l 1,52,-1
 1252 645 l 1,53,-1
 778 171 l 1,54,-1
 915 512 l 1,55,-1
 733 512 l 1,56,-1
 816 749 l 1,57,58
 897 733 897 733 977 733 c 0,59,60
 1026 733 1026 733 1074 739 c 1,51,-1
EndSplineSet
Validated: 1
EndChar

StartChar: uniEB3D
Encoding: 60221 60221 10
Width: 1970
Flags: W
LayerCount: 2
Fore
SplineSet
515 1173 m 1,0,1
 476 1160 476 1160 428 1160 c 0,2,3
 321 1160 321 1160 246 1226.5 c 128,-1,4
 171 1293 171 1293 171 1388 c 0,5,6
 171 1467 171 1467 225.5 1528 c 128,-1,7
 280 1589 280 1589 363 1608 c 1,8,9
 371 1720 371 1720 464.5 1798.5 c 128,-1,10
 558 1877 558 1877 687 1877 c 0,11,12
 884 1877 884 1877 975 1723 c 1,13,14
 1018 1735 1018 1735 1068 1735 c 0,15,16
 1202 1735 1202 1735 1297.5 1650.5 c 128,-1,17
 1393 1566 1393 1566 1393 1448 c 0,18,19
 1393 1446 1393 1446 1393 1445 c 128,-1,20
 1393 1444 1393 1444 1393 1443 c 1,21,22
 1282 1536 1282 1536 1130 1536 c 256,23,24
 978 1536 978 1536 868.5 1444 c 128,-1,25
 759 1352 759 1352 750 1220 c 1,26,27
 657 1198 657 1198 596 1134 c 1,28,29
 556 1147 556 1147 515 1173 c 1,0,1
809 695 m 1,30,-1
 767 645 l 1,31,-1
 1024 645 l 1,32,-1
 550 171 l 1,33,-1
 686 512 l 1,34,-1
 505 512 l 1,35,-1
 600 785 l 1,36,37
 683 701 683 701 809 695 c 1,30,-1
964 753 m 1,38,39
 924 739 924 739 873 739 c 0,40,41
 762 739 762 739 684 808 c 128,-1,42
 606 877 606 877 606 975 c 0,43,44
 606 1058 606 1058 662.5 1121 c 128,-1,45
 719 1184 719 1184 806 1205 c 1,46,47
 814 1322 814 1322 911 1403.5 c 128,-1,48
 1008 1485 1008 1485 1143 1485 c 0,49,50
 1347 1485 1347 1485 1442 1325 c 1,51,52
 1488 1337 1488 1337 1539 1337 c 0,53,54
 1679 1337 1679 1337 1778 1249 c 128,-1,55
 1877 1161 1877 1161 1877 1038 c 0,56,57
 1877 913 1877 913 1778 826 c 128,-1,58
 1679 739 1679 739 1539 739 c 0,59,60
 1491 739 1491 739 1450 749 c 1,61,62
 1349 684 1349 684 1210 684 c 0,63,64
 1065 684 1065 684 964 753 c 1,38,39
EndSplineSet
Validated: 1
EndChar

StartChar: uniEB46
Encoding: 60230 60230 11
Width: 1970
Flags: W
LayerCount: 2
Fore
SplineSet
652 895 m 1,0,1
 596 876 596 876 530 876 c 0,2,3
 381 876 381 876 276 969 c 128,-1,4
 171 1062 171 1062 171 1194 c 0,5,6
 171 1305 171 1305 247 1390 c 128,-1,7
 323 1475 323 1475 439 1502 c 1,8,9
 450 1658 450 1658 580.5 1767.5 c 128,-1,10
 711 1877 711 1877 892 1877 c 0,11,12
 1022 1877 1022 1877 1129 1817.5 c 128,-1,13
 1236 1758 1236 1758 1293 1662 c 1,14,15
 1357 1679 1357 1679 1424 1679 c 0,16,17
 1611 1679 1611 1679 1744 1561 c 128,-1,18
 1877 1443 1877 1443 1877 1277 c 0,19,20
 1877 1110 1877 1110 1744 993 c 128,-1,21
 1611 876 1611 876 1424 876 c 0,22,23
 1356 876 1356 876 1305 890 c 1,24,25
 1168 803 1168 803 982 803 c 0,26,27
 789 803 789 803 652 895 c 1,0,1
812 373 m 1,28,-1
 950 512 l 1,29,-1
 1027 512 l 1,30,-1
 890 373 l 1,31,-1
 812 373 l 1,28,-1
1089 575 m 1,32,-1
 1012 575 l 1,33,-1
 1149 714 l 1,34,-1
 1227 714 l 1,35,-1
 1089 575 l 1,32,-1
796 754 m 1,36,-1
 704 645 l 1,37,-1
 962 645 l 1,38,-1
 487 171 l 1,39,-1
 624 512 l 1,40,-1
 443 512 l 1,41,-1
 551 823 l 1,42,43
 571 826 571 826 604 836 c 1,44,45
 686 781 686 781 796 754 c 1,36,-1
EndSplineSet
Validated: 1
EndChar

StartChar: uniEB47
Encoding: 60231 60231 12
Width: 1970
Flags: W
LayerCount: 2
Fore
SplineSet
652 895 m 1,0,1
 596 876 596 876 530 876 c 0,2,3
 381 876 381 876 276 969 c 128,-1,4
 171 1062 171 1062 171 1194 c 0,5,6
 171 1305 171 1305 247 1390 c 128,-1,7
 323 1475 323 1475 439 1502 c 1,8,9
 450 1658 450 1658 580.5 1767.5 c 128,-1,10
 711 1877 711 1877 892 1877 c 0,11,12
 1022 1877 1022 1877 1129 1817.5 c 128,-1,13
 1236 1758 1236 1758 1293 1662 c 1,14,15
 1357 1679 1357 1679 1424 1679 c 0,16,17
 1611 1679 1611 1679 1744 1561 c 128,-1,18
 1877 1443 1877 1443 1877 1277 c 0,19,20
 1877 1110 1877 1110 1744 993 c 128,-1,21
 1611 876 1611 876 1424 876 c 0,22,23
 1356 876 1356 876 1305 890 c 1,24,25
 1168 803 1168 803 982 803 c 0,26,27
 789 803 789 803 652 895 c 1,0,1
1068 373 m 1,28,-1
 1205 512 l 1,29,-1
 1283 512 l 1,30,-1
 1145 373 l 1,31,-1
 1068 373 l 1,28,-1
1345 575 m 1,32,-1
 1267 575 l 1,33,-1
 1405 714 l 1,34,-1
 1482 714 l 1,35,-1
 1345 575 l 1,32,-1
812 373 m 1,36,-1
 950 512 l 1,37,-1
 1027 512 l 1,38,-1
 890 373 l 1,39,-1
 812 373 l 1,36,-1
1089 575 m 1,40,-1
 1012 575 l 1,41,-1
 1149 714 l 1,42,-1
 1227 714 l 1,43,-1
 1089 575 l 1,40,-1
796 754 m 1,44,-1
 704 645 l 1,45,-1
 962 645 l 1,46,-1
 487 171 l 1,47,-1
 624 512 l 1,48,-1
 443 512 l 1,49,-1
 551 823 l 1,50,51
 571 826 571 826 604 836 c 1,52,53
 686 781 686 781 796 754 c 1,44,-1
EndSplineSet
Validated: 1
EndChar

StartChar: uniEB48
Encoding: 60232 60232 13
Width: 1970
Flags: W
LayerCount: 2
Fore
SplineSet
652 895 m 1,0,1
 596 876 596 876 530 876 c 0,2,3
 381 876 381 876 276 969 c 128,-1,4
 171 1062 171 1062 171 1194 c 0,5,6
 171 1305 171 1305 247 1390 c 128,-1,7
 323 1475 323 1475 439 1502 c 1,8,9
 450 1658 450 1658 580.5 1767.5 c 128,-1,10
 711 1877 711 1877 892 1877 c 0,11,12
 1022 1877 1022 1877 1129 1817.5 c 128,-1,13
 1236 1758 1236 1758 1293 1662 c 1,14,15
 1357 1679 1357 1679 1424 1679 c 0,16,17
 1611 1679 1611 1679 1744 1561 c 128,-1,18
 1877 1443 1877 1443 1877 1277 c 0,19,20
 1877 1110 1877 1110 1744 993 c 128,-1,21
 1611 876 1611 876 1424 876 c 0,22,23
 1356 876 1356 876 1305 890 c 1,24,25
 1168 803 1168 803 982 803 c 0,26,27
 789 803 789 803 652 895 c 1,0,1
1068 373 m 1,28,-1
 1205 512 l 1,29,-1
 1283 512 l 1,30,-1
 1145 373 l 1,31,-1
 1068 373 l 1,28,-1
1345 575 m 1,32,-1
 1267 575 l 1,33,-1
 1405 714 l 1,34,-1
 1482 714 l 1,35,-1
 1345 575 l 1,32,-1
812 373 m 1,36,-1
 950 512 l 1,37,-1
 1027 512 l 1,38,-1
 890 373 l 1,39,-1
 812 373 l 1,36,-1
1089 575 m 1,40,-1
 1012 575 l 1,41,-1
 1149 714 l 1,42,-1
 1227 714 l 1,43,-1
 1089 575 l 1,40,-1
1323 373 m 1,44,-1
 1461 512 l 1,45,-1
 1538 512 l 1,46,-1
 1401 373 l 1,47,-1
 1323 373 l 1,44,-1
1600 575 m 1,48,-1
 1522 575 l 1,49,-1
 1660 714 l 1,50,-1
 1738 714 l 1,51,-1
 1600 575 l 1,48,-1
796 754 m 1,52,-1
 704 645 l 1,53,-1
 962 645 l 1,54,-1
 487 171 l 1,55,-1
 624 512 l 1,56,-1
 443 512 l 1,57,-1
 551 823 l 1,58,59
 571 826 571 826 604 836 c 1,60,61
 686 781 686 781 796 754 c 1,52,-1
EndSplineSet
Validated: 1
EndChar

StartChar: uniEB8C
Encoding: 60300 60300 14
Width: 1970
Flags: W
LayerCount: 2
Fore
SplineSet
652 895 m 1,0,1
 596 876 596 876 530 876 c 0,2,3
 381 876 381 876 276 969 c 128,-1,4
 171 1062 171 1062 171 1194 c 0,5,6
 171 1305 171 1305 247 1390 c 128,-1,7
 323 1475 323 1475 439 1502 c 1,8,9
 450 1658 450 1658 580.5 1767.5 c 128,-1,10
 711 1877 711 1877 892 1877 c 0,11,12
 1022 1877 1022 1877 1129 1817.5 c 128,-1,13
 1236 1758 1236 1758 1293 1662 c 1,14,15
 1357 1679 1357 1679 1424 1679 c 0,16,17
 1611 1679 1611 1679 1744 1561 c 128,-1,18
 1877 1443 1877 1443 1877 1277 c 0,19,20
 1877 1110 1877 1110 1744 993 c 128,-1,21
 1611 876 1611 876 1424 876 c 0,22,23
 1356 876 1356 876 1305 890 c 1,24,25
 1168 803 1168 803 982 803 c 0,26,27
 789 803 789 803 652 895 c 1,0,1
1234 373 m 1,28,-1
 1156 373 l 1,29,-1
 1018 512 l 1,30,-1
 1096 512 l 1,31,-1
 1234 373 l 1,28,-1
957 575 m 1,32,-1
 819 714 l 1,33,-1
 897 714 l 1,34,-1
 1034 575 l 1,35,-1
 957 575 l 1,32,-1
EndSplineSet
Validated: 1
EndChar

StartChar: uniEB8D
Encoding: 60301 60301 15
Width: 1970
Flags: W
LayerCount: 2
Fore
SplineSet
652 895 m 1,0,1
 596 876 596 876 530 876 c 0,2,3
 381 876 381 876 276 969 c 128,-1,4
 171 1062 171 1062 171 1194 c 0,5,6
 171 1305 171 1305 247 1390 c 128,-1,7
 323 1475 323 1475 439 1502 c 1,8,9
 450 1658 450 1658 580.5 1767.5 c 128,-1,10
 711 1877 711 1877 892 1877 c 0,11,12
 1022 1877 1022 1877 1129 1817.5 c 128,-1,13
 1236 1758 1236 1758 1293 1662 c 1,14,15
 1357 1679 1357 1679 1424 1679 c 0,16,17
 1611 1679 1611 1679 1744 1561 c 128,-1,18
 1877 1443 1877 1443 1877 1277 c 0,19,20
 1877 1110 1877 1110 1744 993 c 128,-1,21
 1611 876 1611 876 1424 876 c 0,22,23
 1356 876 1356 876 1305 890 c 1,24,25
 1168 803 1168 803 982 803 c 0,26,27
 789 803 789 803 652 895 c 1,0,1
978 373 m 1,28,-1
 901 373 l 1,29,-1
 763 512 l 1,30,-1
 840 512 l 1,31,-1
 978 373 l 1,28,-1
701 575 m 1,32,-1
 564 714 l 1,33,-1
 641 714 l 1,34,-1
 779 575 l 1,35,-1
 701 575 l 1,32,-1
1234 373 m 1,36,-1
 1156 373 l 1,37,-1
 1018 512 l 1,38,-1
 1096 512 l 1,39,-1
 1234 373 l 1,36,-1
957 575 m 1,40,-1
 819 714 l 1,41,-1
 897 714 l 1,42,-1
 1034 575 l 1,43,-1
 957 575 l 1,40,-1
EndSplineSet
Validated: 1
EndChar

StartChar: uniEB8E
Encoding: 60302 60302 16
Width: 1970
Flags: W
LayerCount: 2
Fore
SplineSet
652 895 m 1,0,1
 596 876 596 876 530 876 c 0,2,3
 381 876 381 876 276 969 c 128,-1,4
 171 1062 171 1062 171 1194 c 0,5,6
 171 1305 171 1305 247 1390 c 128,-1,7
 323 1475 323 1475 439 1502 c 1,8,9
 450 1658 450 1658 580.5 1767.5 c 128,-1,10
 711 1877 711 1877 892 1877 c 0,11,12
 1022 1877 1022 1877 1129 1817.5 c 128,-1,13
 1236 1758 1236 1758 1293 1662 c 1,14,15
 1357 1679 1357 1679 1424 1679 c 0,16,17
 1611 1679 1611 1679 1744 1561 c 128,-1,18
 1877 1443 1877 1443 1877 1277 c 0,19,20
 1877 1110 1877 1110 1744 993 c 128,-1,21
 1611 876 1611 876 1424 876 c 0,22,23
 1356 876 1356 876 1305 890 c 1,24,25
 1168 803 1168 803 982 803 c 0,26,27
 789 803 789 803 652 895 c 1,0,1
978 373 m 1,28,-1
 901 373 l 1,29,-1
 763 512 l 1,30,-1
 840 512 l 1,31,-1
 978 373 l 1,28,-1
701 575 m 1,32,-1
 564 714 l 1,33,-1
 641 714 l 1,34,-1
 779 575 l 1,35,-1
 701 575 l 1,32,-1
1234 373 m 1,36,-1
 1156 373 l 1,37,-1
 1018 512 l 1,38,-1
 1096 512 l 1,39,-1
 1234 373 l 1,36,-1
957 575 m 1,40,-1
 819 714 l 1,41,-1
 897 714 l 1,42,-1
 1034 575 l 1,43,-1
 957 575 l 1,40,-1
723 373 m 1,44,-1
 645 373 l 1,45,-1
 507 512 l 1,46,-1
 585 512 l 1,47,-1
 723 373 l 1,44,-1
446 575 m 1,48,-1
 308 714 l 1,49,-1
 386 714 l 1,50,-1
 523 575 l 1,51,-1
 446 575 l 1,48,-1
EndSplineSet
Validated: 1
EndChar

StartChar: uniEB96
Encoding: 60310 60310 17
Width: 1970
Flags: W
LayerCount: 2
Fore
SplineSet
652 895 m 1,0,1
 596 876 596 876 530 876 c 0,2,3
 381 876 381 876 276 969 c 128,-1,4
 171 1062 171 1062 171 1194 c 0,5,6
 171 1305 171 1305 247 1390 c 128,-1,7
 323 1475 323 1475 439 1502 c 1,8,9
 450 1658 450 1658 580.5 1767.5 c 128,-1,10
 711 1877 711 1877 892 1877 c 0,11,12
 1022 1877 1022 1877 1129 1817.5 c 128,-1,13
 1236 1758 1236 1758 1293 1662 c 1,14,15
 1357 1679 1357 1679 1424 1679 c 0,16,17
 1611 1679 1611 1679 1744 1561 c 128,-1,18
 1877 1443 1877 1443 1877 1277 c 0,19,20
 1877 1110 1877 1110 1744 993 c 128,-1,21
 1611 876 1611 876 1424 876 c 0,22,23
 1356 876 1356 876 1305 890 c 1,24,25
 1168 803 1168 803 982 803 c 0,26,27
 789 803 789 803 652 895 c 1,0,1
1272 491 m 0,28,29
 1229 516 1229 516 1224.5 608.5 c 128,-1,30
 1220 701 1220 701 1223 703 c 1,31,32
 1223 703 1223 703 1312 677 c 128,-1,33
 1401 651 1401 651 1416 604 c 0,34,35
 1438 532 1438 532 1386 493 c 1,36,37
 1335 453 1335 453 1272 491 c 0,28,29
1234 373 m 1,38,-1
 1156 373 l 1,39,-1
 1018 512 l 1,40,-1
 1096 512 l 1,41,-1
 1234 373 l 1,38,-1
957 575 m 1,42,-1
 819 714 l 1,43,-1
 897 714 l 1,44,-1
 1034 575 l 1,45,-1
 957 575 l 1,42,-1
EndSplineSet
Validated: 33
EndChar

StartChar: uniEB97
Encoding: 60311 60311 18
Width: 1970
Flags: W
LayerCount: 2
Fore
SplineSet
652 895 m 1,0,1
 596 876 596 876 530 876 c 0,2,3
 381 876 381 876 276 969 c 128,-1,4
 171 1062 171 1062 171 1194 c 0,5,6
 171 1305 171 1305 247 1390 c 128,-1,7
 323 1475 323 1475 439 1502 c 1,8,9
 450 1658 450 1658 580.5 1767.5 c 128,-1,10
 711 1877 711 1877 892 1877 c 0,11,12
 1022 1877 1022 1877 1129 1817.5 c 128,-1,13
 1236 1758 1236 1758 1293 1662 c 1,14,15
 1357 1679 1357 1679 1424 1679 c 0,16,17
 1611 1679 1611 1679 1744 1561 c 128,-1,18
 1877 1443 1877 1443 1877 1277 c 0,19,20
 1877 1110 1877 1110 1744 993 c 128,-1,21
 1611 876 1611 876 1424 876 c 0,22,23
 1356 876 1356 876 1305 890 c 1,24,25
 1168 803 1168 803 982 803 c 0,26,27
 789 803 789 803 652 895 c 1,0,1
978 373 m 1,28,-1
 901 373 l 1,29,-1
 763 512 l 1,30,-1
 840 512 l 1,31,-1
 978 373 l 1,28,-1
701 575 m 1,32,-1
 564 714 l 1,33,-1
 641 714 l 1,34,-1
 779 575 l 1,35,-1
 701 575 l 1,32,-1
1234 373 m 1,36,-1
 1156 373 l 1,37,-1
 1018 512 l 1,38,-1
 1096 512 l 1,39,-1
 1234 373 l 1,36,-1
957 575 m 1,40,-1
 819 714 l 1,41,-1
 897 714 l 1,42,-1
 1034 575 l 1,43,-1
 957 575 l 1,40,-1
1272 491 m 0,44,45
 1229 516 1229 516 1224.5 608.5 c 128,-1,46
 1220 701 1220 701 1223 703 c 1,47,48
 1223 703 1223 703 1312 677 c 128,-1,49
 1401 651 1401 651 1416 604 c 0,50,51
 1438 532 1438 532 1386 493 c 1,52,53
 1335 453 1335 453 1272 491 c 0,44,45
EndSplineSet
Validated: 33
EndChar

StartChar: uniEB98
Encoding: 60312 60312 19
Width: 1970
Flags: W
LayerCount: 2
Fore
SplineSet
652 895 m 1,0,1
 596 876 596 876 530 876 c 0,2,3
 381 876 381 876 276 969 c 128,-1,4
 171 1062 171 1062 171 1194 c 0,5,6
 171 1305 171 1305 247 1390 c 128,-1,7
 323 1475 323 1475 439 1502 c 1,8,9
 450 1658 450 1658 580.5 1767.5 c 128,-1,10
 711 1877 711 1877 892 1877 c 0,11,12
 1022 1877 1022 1877 1129 1817.5 c 128,-1,13
 1236 1758 1236 1758 1293 1662 c 1,14,15
 1357 1679 1357 1679 1424 1679 c 0,16,17
 1611 1679 1611 1679 1744 1561 c 128,-1,18
 1877 1443 1877 1443 1877 1277 c 0,19,20
 1877 1110 1877 1110 1744 993 c 128,-1,21
 1611 876 1611 876 1424 876 c 0,22,23
 1356 876 1356 876 1305 890 c 1,24,25
 1168 803 1168 803 982 803 c 0,26,27
 789 803 789 803 652 895 c 1,0,1
1584 591 m 1,28,29
 1536 619 1536 619 1531.5 720.5 c 128,-1,30
 1527 822 1527 822 1530 824 c 1,31,32
 1530 824 1530 824 1627.5 795.5 c 128,-1,33
 1725 767 1725 767 1741 716 c 0,34,35
 1764 638 1764 638 1708 594 c 0,36,37
 1651 550 1651 550 1584 591 c 1,28,29
1272 491 m 0,38,39
 1229 516 1229 516 1224.5 608.5 c 128,-1,40
 1220 701 1220 701 1223 703 c 1,41,42
 1223 703 1223 703 1312 677 c 128,-1,43
 1401 651 1401 651 1416 604 c 0,44,45
 1438 532 1438 532 1386 493 c 1,46,47
 1335 453 1335 453 1272 491 c 0,38,39
978 373 m 1,48,-1
 901 373 l 1,49,-1
 763 512 l 1,50,-1
 840 512 l 1,51,-1
 978 373 l 1,48,-1
701 575 m 1,52,-1
 564 714 l 1,53,-1
 641 714 l 1,54,-1
 779 575 l 1,55,-1
 701 575 l 1,52,-1
1234 373 m 1,56,-1
 1156 373 l 1,57,-1
 1018 512 l 1,58,-1
 1096 512 l 1,59,-1
 1234 373 l 1,56,-1
957 575 m 1,60,-1
 819 714 l 1,61,-1
 897 714 l 1,62,-1
 1034 575 l 1,63,-1
 957 575 l 1,60,-1
EndSplineSet
Validated: 33
EndChar

StartChar: uniEB99
Encoding: 60313 60313 20
Width: 1970
Flags: W
LayerCount: 2
Fore
SplineSet
652 895 m 1,0,1
 596 876 596 876 530 876 c 0,2,3
 381 876 381 876 276 969 c 128,-1,4
 171 1062 171 1062 171 1194 c 0,5,6
 171 1305 171 1305 247 1390 c 128,-1,7
 323 1475 323 1475 439 1502 c 1,8,9
 450 1658 450 1658 580.5 1767.5 c 128,-1,10
 711 1877 711 1877 892 1877 c 0,11,12
 1022 1877 1022 1877 1129 1817.5 c 128,-1,13
 1236 1758 1236 1758 1293 1662 c 1,14,15
 1357 1679 1357 1679 1424 1679 c 0,16,17
 1611 1679 1611 1679 1744 1561 c 128,-1,18
 1877 1443 1877 1443 1877 1277 c 0,19,20
 1877 1110 1877 1110 1744 993 c 128,-1,21
 1611 876 1611 876 1424 876 c 0,22,23
 1356 876 1356 876 1305 890 c 1,24,25
 1168 803 1168 803 982 803 c 0,26,27
 789 803 789 803 652 895 c 1,0,1
1272 491 m 0,28,29
 1229 516 1229 516 1224.5 608.5 c 128,-1,30
 1220 701 1220 701 1223 703 c 1,31,32
 1223 703 1223 703 1312 677 c 128,-1,33
 1401 651 1401 651 1416 604 c 0,34,35
 1438 532 1438 532 1386 493 c 1,36,37
 1335 453 1335 453 1272 491 c 0,28,29
978 373 m 1,38,-1
 901 373 l 1,39,-1
 763 512 l 1,40,-1
 840 512 l 1,41,-1
 978 373 l 1,38,-1
701 575 m 1,42,-1
 564 714 l 1,43,-1
 641 714 l 1,44,-1
 779 575 l 1,45,-1
 701 575 l 1,42,-1
1234 373 m 1,46,-1
 1156 373 l 1,47,-1
 1018 512 l 1,48,-1
 1096 512 l 1,49,-1
 1234 373 l 1,46,-1
957 575 m 1,50,-1
 819 714 l 1,51,-1
 897 714 l 1,52,-1
 1034 575 l 1,53,-1
 957 575 l 1,50,-1
723 373 m 1,54,-1
 645 373 l 1,55,-1
 507 512 l 1,56,-1
 585 512 l 1,57,-1
 723 373 l 1,54,-1
446 575 m 1,58,-1
 308 714 l 1,59,-1
 386 714 l 1,60,-1
 523 575 l 1,61,-1
 446 575 l 1,58,-1
EndSplineSet
Validated: 33
EndChar

StartChar: uniEB9A
Encoding: 60314 60314 21
Width: 1970
Flags: W
LayerCount: 2
Fore
SplineSet
652 895 m 1,0,1
 596 876 596 876 530 876 c 0,2,3
 381 876 381 876 276 969 c 128,-1,4
 171 1062 171 1062 171 1194 c 0,5,6
 171 1305 171 1305 247 1390 c 128,-1,7
 323 1475 323 1475 439 1502 c 1,8,9
 450 1658 450 1658 580.5 1767.5 c 128,-1,10
 711 1877 711 1877 892 1877 c 0,11,12
 1022 1877 1022 1877 1129 1817.5 c 128,-1,13
 1236 1758 1236 1758 1293 1662 c 1,14,15
 1357 1679 1357 1679 1424 1679 c 0,16,17
 1611 1679 1611 1679 1744 1561 c 128,-1,18
 1877 1443 1877 1443 1877 1277 c 0,19,20
 1877 1110 1877 1110 1744 993 c 128,-1,21
 1611 876 1611 876 1424 876 c 0,22,23
 1356 876 1356 876 1305 890 c 1,24,25
 1168 803 1168 803 982 803 c 0,26,27
 789 803 789 803 652 895 c 1,0,1
1584 591 m 1,28,29
 1536 619 1536 619 1531.5 720.5 c 128,-1,30
 1527 822 1527 822 1530 824 c 1,31,32
 1530 824 1530 824 1627.5 795.5 c 128,-1,33
 1725 767 1725 767 1741 716 c 0,34,35
 1764 638 1764 638 1708 594 c 0,36,37
 1651 550 1651 550 1584 591 c 1,28,29
1272 491 m 0,38,39
 1229 516 1229 516 1224.5 608.5 c 128,-1,40
 1220 701 1220 701 1223 703 c 1,41,42
 1223 703 1223 703 1312 677 c 128,-1,43
 1401 651 1401 651 1416 604 c 0,44,45
 1438 532 1438 532 1386 493 c 1,46,47
 1335 453 1335 453 1272 491 c 0,38,39
978 373 m 1,48,-1
 901 373 l 1,49,-1
 763 512 l 1,50,-1
 840 512 l 1,51,-1
 978 373 l 1,48,-1
701 575 m 1,52,-1
 564 714 l 1,53,-1
 641 714 l 1,54,-1
 779 575 l 1,55,-1
 701 575 l 1,52,-1
1234 373 m 1,56,-1
 1156 373 l 1,57,-1
 1018 512 l 1,58,-1
 1096 512 l 1,59,-1
 1234 373 l 1,56,-1
957 575 m 1,60,-1
 819 714 l 1,61,-1
 897 714 l 1,62,-1
 1034 575 l 1,63,-1
 957 575 l 1,60,-1
723 373 m 1,64,-1
 645 373 l 1,65,-1
 507 512 l 1,66,-1
 585 512 l 1,67,-1
 723 373 l 1,64,-1
446 575 m 1,68,-1
 308 714 l 1,69,-1
 386 714 l 1,70,-1
 523 575 l 1,71,-1
 446 575 l 1,68,-1
EndSplineSet
Validated: 33
EndChar

StartChar: uniEBA1
Encoding: 60321 60321 22
Width: 1970
Flags: W
LayerCount: 2
Fore
SplineSet
652 895 m 1,0,1
 596 876 596 876 530 876 c 0,2,3
 381 876 381 876 276 969 c 128,-1,4
 171 1062 171 1062 171 1194 c 0,5,6
 171 1305 171 1305 247 1390 c 128,-1,7
 323 1475 323 1475 439 1502 c 1,8,9
 450 1658 450 1658 580.5 1767.5 c 128,-1,10
 711 1877 711 1877 892 1877 c 0,11,12
 1022 1877 1022 1877 1129 1817.5 c 128,-1,13
 1236 1758 1236 1758 1293 1662 c 1,14,15
 1357 1679 1357 1679 1424 1679 c 0,16,17
 1611 1679 1611 1679 1744 1561 c 128,-1,18
 1877 1443 1877 1443 1877 1277 c 0,19,20
 1877 1110 1877 1110 1744 993 c 128,-1,21
 1611 876 1611 876 1424 876 c 0,22,23
 1356 876 1356 876 1305 890 c 1,24,25
 1168 803 1168 803 982 803 c 0,26,27
 789 803 789 803 652 895 c 1,0,1
1574 301 m 0,28,29
 1534 325 1534 325 1530 410 c 128,-1,30
 1526 495 1526 495 1528 497 c 1,31,32
 1528 497 1528 497 1610.5 472.5 c 128,-1,33
 1693 448 1693 448 1707 406 c 1,34,35
 1725 338 1725 338 1679 303 c 0,36,37
 1632 266 1632 266 1574 301 c 0,28,29
1584 591 m 1,38,39
 1536 619 1536 619 1531.5 720.5 c 128,-1,40
 1527 822 1527 822 1530 824 c 1,41,42
 1530 824 1530 824 1627.5 795.5 c 128,-1,43
 1725 767 1725 767 1741 716 c 0,44,45
 1764 638 1764 638 1708 594 c 0,46,47
 1651 550 1651 550 1584 591 c 1,38,39
1272 491 m 0,48,49
 1229 516 1229 516 1224.5 608.5 c 128,-1,50
 1220 701 1220 701 1223 703 c 1,51,52
 1223 703 1223 703 1312 677 c 128,-1,53
 1401 651 1401 651 1416 604 c 0,54,55
 1438 532 1438 532 1386 493 c 1,56,57
 1335 453 1335 453 1272 491 c 0,48,49
978 373 m 1,58,-1
 901 373 l 1,59,-1
 763 512 l 1,60,-1
 840 512 l 1,61,-1
 978 373 l 1,58,-1
701 575 m 1,62,-1
 564 714 l 1,63,-1
 641 714 l 1,64,-1
 779 575 l 1,65,-1
 701 575 l 1,62,-1
1234 373 m 1,66,-1
 1156 373 l 1,67,-1
 1018 512 l 1,68,-1
 1096 512 l 1,69,-1
 1234 373 l 1,66,-1
957 575 m 1,70,-1
 819 714 l 1,71,-1
 897 714 l 1,72,-1
 1034 575 l 1,73,-1
 957 575 l 1,70,-1
723 373 m 1,74,-1
 645 373 l 1,75,-1
 507 512 l 1,76,-1
 585 512 l 1,77,-1
 723 373 l 1,74,-1
446 575 m 1,78,-1
 308 714 l 1,79,-1
 386 714 l 1,80,-1
 523 575 l 1,81,-1
 446 575 l 1,78,-1
EndSplineSet
Validated: 33
EndChar

StartChar: uniEC54
Encoding: 60500 60500 23
Width: 1970
Flags: W
LayerCount: 2
Fore
SplineSet
652 895 m 1,0,1
 596 876 596 876 530 876 c 0,2,3
 381 876 381 876 276 969 c 128,-1,4
 171 1062 171 1062 171 1194 c 0,5,6
 171 1305 171 1305 247 1390 c 128,-1,7
 323 1475 323 1475 439 1502 c 1,8,9
 450 1658 450 1658 580.5 1767.5 c 128,-1,10
 711 1877 711 1877 892 1877 c 0,11,12
 1022 1877 1022 1877 1129 1817.5 c 128,-1,13
 1236 1758 1236 1758 1293 1662 c 1,14,15
 1357 1679 1357 1679 1424 1679 c 0,16,17
 1611 1679 1611 1679 1744 1561 c 128,-1,18
 1877 1443 1877 1443 1877 1277 c 0,19,20
 1877 1110 1877 1110 1744 993 c 128,-1,21
 1611 876 1611 876 1424 876 c 0,22,23
 1356 876 1356 876 1305 890 c 1,24,25
 1168 803 1168 803 982 803 c 0,26,27
 789 803 789 803 652 895 c 1,0,1
548 574 m 0,28,29
 527 627 527 627 588 713.5 c 128,-1,30
 649 800 649 800 652 800 c 1,31,32
 652 799 652 799 714 713 c 128,-1,33
 776 627 776 627 756 575 c 0,34,35
 726 496 726 496 652 496 c 256,36,37
 578 496 578 496 548 574 c 0,28,29
EndSplineSet
Validated: 33
EndChar

StartChar: uniEC55
Encoding: 60501 60501 24
Width: 1970
Flags: W
LayerCount: 2
Fore
SplineSet
652 895 m 1,0,1
 596 876 596 876 530 876 c 0,2,3
 381 876 381 876 276 969 c 128,-1,4
 171 1062 171 1062 171 1194 c 0,5,6
 171 1305 171 1305 247 1390 c 128,-1,7
 323 1475 323 1475 439 1502 c 1,8,9
 450 1658 450 1658 580.5 1767.5 c 128,-1,10
 711 1877 711 1877 892 1877 c 0,11,12
 1022 1877 1022 1877 1129 1817.5 c 128,-1,13
 1236 1758 1236 1758 1293 1662 c 1,14,15
 1357 1679 1357 1679 1424 1679 c 0,16,17
 1611 1679 1611 1679 1744 1561 c 128,-1,18
 1877 1443 1877 1443 1877 1277 c 0,19,20
 1877 1110 1877 1110 1744 993 c 128,-1,21
 1611 876 1611 876 1424 876 c 0,22,23
 1356 876 1356 876 1305 890 c 1,24,25
 1168 803 1168 803 982 803 c 0,26,27
 789 803 789 803 652 895 c 1,0,1
874 509 m 0,28,29
 853 562 853 562 914 648 c 128,-1,30
 975 734 975 734 979 734 c 1,31,32
 979 734 979 734 1040.5 648 c 128,-1,33
 1102 562 1102 562 1082 510 c 0,34,35
 1053 432 1053 432 978 432 c 0,36,37
 904 432 904 432 874 509 c 0,28,29
548 574 m 0,38,39
 527 627 527 627 588 713.5 c 128,-1,40
 649 800 649 800 652 800 c 1,41,42
 652 799 652 799 714 713 c 128,-1,43
 776 627 776 627 756 575 c 0,44,45
 726 496 726 496 652 496 c 256,46,47
 578 496 578 496 548 574 c 0,38,39
EndSplineSet
Validated: 33
EndChar

StartChar: uniEC56
Encoding: 60502 60502 25
Width: 1970
Flags: W
LayerCount: 2
Fore
SplineSet
652 895 m 1,0,1
 596 876 596 876 530 876 c 0,2,3
 381 876 381 876 276 969 c 128,-1,4
 171 1062 171 1062 171 1194 c 0,5,6
 171 1305 171 1305 247 1390 c 128,-1,7
 323 1475 323 1475 439 1502 c 1,8,9
 450 1658 450 1658 580.5 1767.5 c 128,-1,10
 711 1877 711 1877 892 1877 c 0,11,12
 1022 1877 1022 1877 1129 1817.5 c 128,-1,13
 1236 1758 1236 1758 1293 1662 c 1,14,15
 1357 1679 1357 1679 1424 1679 c 0,16,17
 1611 1679 1611 1679 1744 1561 c 128,-1,18
 1877 1443 1877 1443 1877 1277 c 0,19,20
 1877 1110 1877 1110 1744 993 c 128,-1,21
 1611 876 1611 876 1424 876 c 0,22,23
 1356 876 1356 876 1305 890 c 1,24,25
 1168 803 1168 803 982 803 c 0,26,27
 789 803 789 803 652 895 c 1,0,1
874 509 m 0,28,29
 853 562 853 562 914 648 c 128,-1,30
 975 734 975 734 979 734 c 1,31,32
 979 734 979 734 1040.5 648 c 128,-1,33
 1102 562 1102 562 1082 510 c 0,34,35
 1053 432 1053 432 978 432 c 0,36,37
 904 432 904 432 874 509 c 0,28,29
1200 574 m 0,38,39
 1179 627 1179 627 1240 713.5 c 128,-1,40
 1301 800 1301 800 1305 800 c 1,41,42
 1305 799 1305 799 1366.5 713 c 128,-1,43
 1428 627 1428 627 1409 575 c 1,44,45
 1378 496 1378 496 1304 496 c 256,46,47
 1230 496 1230 496 1200 574 c 0,38,39
548 574 m 0,48,49
 527 627 527 627 588 713.5 c 128,-1,50
 649 800 649 800 652 800 c 1,51,52
 652 799 652 799 714 713 c 128,-1,53
 776 627 776 627 756 575 c 0,54,55
 726 496 726 496 652 496 c 256,56,57
 578 496 578 496 548 574 c 0,48,49
EndSplineSet
Validated: 33
EndChar

StartChar: uniEC57
Encoding: 60503 60503 26
Width: 1970
Flags: W
LayerCount: 2
Fore
SplineSet
652 895 m 1,0,1
 596 876 596 876 530 876 c 0,2,3
 381 876 381 876 276 969 c 128,-1,4
 171 1062 171 1062 171 1194 c 0,5,6
 171 1305 171 1305 247 1390 c 128,-1,7
 323 1475 323 1475 439 1502 c 1,8,9
 450 1658 450 1658 580.5 1767.5 c 128,-1,10
 711 1877 711 1877 892 1877 c 0,11,12
 1022 1877 1022 1877 1129 1817.5 c 128,-1,13
 1236 1758 1236 1758 1293 1662 c 1,14,15
 1357 1679 1357 1679 1424 1679 c 0,16,17
 1611 1679 1611 1679 1744 1561 c 128,-1,18
 1877 1443 1877 1443 1877 1277 c 0,19,20
 1877 1110 1877 1110 1744 993 c 128,-1,21
 1611 876 1611 876 1424 876 c 0,22,23
 1356 876 1356 876 1305 890 c 1,24,25
 1168 803 1168 803 982 803 c 0,26,27
 789 803 789 803 652 895 c 1,0,1
452 751 m 1,28,-1
 514 751 l 1,29,-1
 514 543 l 1,30,-1
 452 543 l 1,31,-1
 452 751 l 1,28,-1
514 481 m 1,32,-1
 514 273 l 1,33,-1
 452 273 l 1,34,-1
 452 481 l 1,35,-1
 514 481 l 1,32,-1
707 751 m 1,36,-1
 770 751 l 1,37,-1
 770 543 l 1,38,-1
 707 543 l 1,39,-1
 707 751 l 1,36,-1
770 481 m 1,40,-1
 770 273 l 1,41,-1
 707 273 l 1,42,-1
 707 481 l 1,43,-1
 770 481 l 1,40,-1
963 751 m 1,44,-1
 1025 751 l 1,45,-1
 1025 543 l 1,46,-1
 963 543 l 1,47,-1
 963 751 l 1,44,-1
1025 481 m 1,48,-1
 1025 273 l 1,49,-1
 963 273 l 1,50,-1
 963 481 l 1,51,-1
 1025 481 l 1,48,-1
1218 751 m 1,52,-1
 1281 751 l 1,53,-1
 1281 543 l 1,54,-1
 1218 543 l 1,55,-1
 1218 751 l 1,52,-1
1281 481 m 1,56,-1
 1281 273 l 1,57,-1
 1218 273 l 1,58,-1
 1218 481 l 1,59,-1
 1281 481 l 1,56,-1
1474 751 m 1,60,-1
 1536 751 l 1,61,-1
 1536 543 l 1,62,-1
 1474 543 l 1,63,-1
 1474 751 l 1,60,-1
1536 481 m 1,64,-1
 1536 273 l 1,65,-1
 1474 273 l 1,66,-1
 1474 481 l 1,67,-1
 1536 481 l 1,64,-1
EndSplineSet
Validated: 1
EndChar

StartChar: uniEC58
Encoding: 60504 60504 27
Width: 1970
Flags: W
LayerCount: 2
Fore
SplineSet
652 895 m 1,0,1
 596 876 596 876 530 876 c 0,2,3
 381 876 381 876 276 969 c 128,-1,4
 171 1062 171 1062 171 1194 c 0,5,6
 171 1305 171 1305 247 1390 c 128,-1,7
 323 1475 323 1475 439 1502 c 1,8,9
 450 1658 450 1658 580.5 1767.5 c 128,-1,10
 711 1877 711 1877 892 1877 c 0,11,12
 1022 1877 1022 1877 1129 1817.5 c 128,-1,13
 1236 1758 1236 1758 1293 1662 c 1,14,15
 1357 1679 1357 1679 1424 1679 c 0,16,17
 1611 1679 1611 1679 1744 1561 c 128,-1,18
 1877 1443 1877 1443 1877 1277 c 0,19,20
 1877 1110 1877 1110 1744 993 c 128,-1,21
 1611 876 1611 876 1424 876 c 0,22,23
 1356 876 1356 876 1305 890 c 1,24,25
 1168 803 1168 803 982 803 c 0,26,27
 789 803 789 803 652 895 c 1,0,1
1536 326 m 1,28,29
 1536 309 1536 309 1536 293 c 128,-1,30
 1536 277 1536 277 1536 261 c 1,31,32
 1400 159 1400 159 1264.5 170.5 c 128,-1,33
 1129 182 1129 182 993.5 216 c 128,-1,34
 858 250 858 250 722.5 261 c 128,-1,35
 587 272 587 272 452 171 c 1,36,37
 452 186 452 186 452 202.5 c 128,-1,38
 452 219 452 219 452 235 c 1,39,40
 587 337 587 337 722.5 325.5 c 128,-1,41
 858 314 858 314 993.5 280 c 128,-1,42
 1129 246 1129 246 1264.5 235 c 128,-1,43
 1400 224 1400 224 1536 326 c 1,28,29
1536 455 m 1,44,45
 1536 439 1536 439 1536 422.5 c 128,-1,46
 1536 406 1536 406 1536 391 c 1,47,48
 1400 289 1400 289 1264.5 300 c 128,-1,49
 1129 311 1129 311 993.5 344.5 c 128,-1,50
 858 378 858 378 722.5 389.5 c 128,-1,51
 587 401 587 401 452 300 c 1,52,53
 452 316 452 316 452 332 c 128,-1,54
 452 348 452 348 452 365 c 1,55,56
 587 466 587 466 722.5 454.5 c 128,-1,57
 858 443 858 443 993.5 409.5 c 128,-1,58
 1129 376 1129 376 1264.5 364.5 c 128,-1,59
 1400 353 1400 353 1536 455 c 1,44,45
452 751 m 1,60,-1
 514 751 l 1,61,-1
 514 543 l 1,62,-1
 452 543 l 1,63,-1
 452 751 l 1,60,-1
707 751 m 1,64,-1
 770 751 l 1,65,-1
 770 543 l 1,66,-1
 707 543 l 1,67,-1
 707 751 l 1,64,-1
963 751 m 1,68,-1
 1025 751 l 1,69,-1
 1025 543 l 1,70,-1
 963 543 l 1,71,-1
 963 751 l 1,68,-1
1218 751 m 1,72,-1
 1281 751 l 1,73,-1
 1281 543 l 1,74,-1
 1218 543 l 1,75,-1
 1218 751 l 1,72,-1
1474 751 m 1,76,-1
 1536 751 l 1,77,-1
 1536 543 l 1,78,-1
 1474 543 l 1,79,-1
 1474 751 l 1,76,-1
EndSplineSet
Validated: 37
EndChar

StartChar: uniEC5F
Encoding: 60511 60511 28
Width: 1970
Flags: W
LayerCount: 2
Fore
SplineSet
652 895 m 1,0,1
 596 876 596 876 530 876 c 0,2,3
 381 876 381 876 276 969 c 128,-1,4
 171 1062 171 1062 171 1194 c 0,5,6
 171 1305 171 1305 247 1390 c 128,-1,7
 323 1475 323 1475 439 1502 c 1,8,9
 450 1658 450 1658 580.5 1767.5 c 128,-1,10
 711 1877 711 1877 892 1877 c 0,11,12
 1022 1877 1022 1877 1129 1817.5 c 128,-1,13
 1236 1758 1236 1758 1293 1662 c 1,14,15
 1357 1679 1357 1679 1424 1679 c 0,16,17
 1611 1679 1611 1679 1744 1561 c 128,-1,18
 1877 1443 1877 1443 1877 1277 c 0,19,20
 1877 1110 1877 1110 1744 993 c 128,-1,21
 1611 876 1611 876 1424 876 c 0,22,23
 1356 876 1356 876 1305 890 c 1,24,25
 1168 803 1168 803 982 803 c 0,26,27
 789 803 789 803 652 895 c 1,0,1
802 680 m 1,28,-1
 802 597 l 1,29,-1
 874 639 l 1,30,-1
 904 747 l 1,31,-1
 946 736 l 1,32,-1
 916 628 l 1,33,-1
 1025 599 l 1,34,-1
 1014 556 l 1,35,-1
 905 585 l 1,36,-1
 833 543 l 1,37,-1
 905 502 l 1,38,-1
 1014 530 l 1,39,-1
 1025 488 l 1,40,-1
 916 459 l 1,41,-1
 946 351 l 1,42,-1
 904 339 l 1,43,-1
 874 448 l 1,44,-1
 802 489 l 1,45,-1
 802 407 l 1,46,-1
 881 326 l 1,47,-1
 850 295 l 1,48,-1
 771 375 l 1,49,-1
 692 295 l 1,50,-1
 660 326 l 1,51,-1
 740 407 l 1,52,-1
 740 489 l 1,53,-1
 668 448 l 1,54,-1
 638 339 l 1,55,-1
 596 351 l 1,56,-1
 625 459 l 1,57,-1
 516 488 l 1,58,-1
 528 530 l 1,59,-1
 637 502 l 1,60,-1
 708 543 l 1,61,-1
 637 585 l 1,62,-1
 528 556 l 1,63,-1
 516 599 l 1,64,-1
 625 628 l 1,65,-1
 596 736 l 1,66,-1
 638 747 l 1,67,-1
 668 639 l 1,68,-1
 740 597 l 1,69,-1
 740 680 l 1,70,-1
 660 760 l 1,71,-1
 692 792 l 1,72,-1
 771 711 l 1,73,-1
 850 792 l 1,74,-1
 881 760 l 1,75,-1
 802 680 l 1,28,-1
1574 301 m 0,76,77
 1534 325 1534 325 1530 410 c 128,-1,78
 1526 495 1526 495 1528 497 c 1,79,80
 1528 497 1528 497 1610.5 472.5 c 128,-1,81
 1693 448 1693 448 1707 406 c 1,82,83
 1725 338 1725 338 1679 303 c 0,84,85
 1632 266 1632 266 1574 301 c 0,76,77
1584 591 m 1,86,87
 1536 619 1536 619 1531.5 720.5 c 128,-1,88
 1527 822 1527 822 1530 824 c 1,89,90
 1530 824 1530 824 1627.5 795.5 c 128,-1,91
 1725 767 1725 767 1741 716 c 0,92,93
 1764 638 1764 638 1708 594 c 0,94,95
 1651 550 1651 550 1584 591 c 1,86,87
1272 491 m 0,96,97
 1229 516 1229 516 1224.5 608.5 c 128,-1,98
 1220 701 1220 701 1223 703 c 1,99,100
 1223 703 1223 703 1312 677 c 128,-1,101
 1401 651 1401 651 1416 604 c 0,102,103
 1438 532 1438 532 1386 493 c 1,104,105
 1335 453 1335 453 1272 491 c 0,96,97
EndSplineSet
Validated: 33
EndChar

StartChar: uniEC68
Encoding: 60520 60520 29
Width: 1970
Flags: W
LayerCount: 2
Fore
SplineSet
652 895 m 1,0,1
 596 876 596 876 530 876 c 0,2,3
 381 876 381 876 276 969 c 128,-1,4
 171 1062 171 1062 171 1194 c 0,5,6
 171 1305 171 1305 247 1390 c 128,-1,7
 323 1475 323 1475 439 1502 c 1,8,9
 450 1658 450 1658 580.5 1767.5 c 128,-1,10
 711 1877 711 1877 892 1877 c 0,11,12
 1022 1877 1022 1877 1129 1817.5 c 128,-1,13
 1236 1758 1236 1758 1293 1662 c 1,14,15
 1357 1679 1357 1679 1424 1679 c 0,16,17
 1611 1679 1611 1679 1744 1561 c 128,-1,18
 1877 1443 1877 1443 1877 1277 c 0,19,20
 1877 1110 1877 1110 1744 993 c 128,-1,21
 1611 876 1611 876 1424 876 c 0,22,23
 1356 876 1356 876 1305 890 c 1,24,25
 1168 803 1168 803 982 803 c 0,26,27
 789 803 789 803 652 895 c 1,0,1
1466 462 m 1,28,29
 1451 498 1451 498 1492.5 556 c 128,-1,30
 1534 614 1534 614 1536 614 c 1,31,32
 1536 614 1536 614 1577.5 556 c 128,-1,33
 1619 498 1619 498 1606 463 c 0,34,35
 1587 410 1587 410 1536 410 c 0,36,37
 1486 410 1486 410 1466 462 c 1,28,29
954 462 m 1,38,39
 939 498 939 498 980.5 556 c 128,-1,40
 1022 614 1022 614 1024 614 c 1,41,42
 1024 614 1024 614 1065.5 556 c 128,-1,43
 1107 498 1107 498 1094 463 c 0,44,45
 1075 410 1075 410 1024 410 c 0,46,47
 974 410 974 410 954 462 c 1,38,39
442 462 m 1,48,49
 427 498 427 498 468.5 556 c 128,-1,50
 510 614 510 614 512 614 c 1,51,52
 512 614 512 614 553.5 556 c 128,-1,53
 595 498 595 498 583 463 c 1,54,55
 562 410 562 410 512 410 c 256,56,57
 462 410 462 410 442 462 c 1,48,49
EndSplineSet
Validated: 33
EndChar

StartChar: uniEC69
Encoding: 60521 60521 30
Width: 1970
Flags: W
LayerCount: 2
Fore
SplineSet
442 462 m 1,0,1
 427 498 427 498 468.5 556 c 128,-1,2
 510 614 510 614 512 614 c 1,3,4
 512 614 512 614 553.5 556 c 128,-1,5
 595 498 595 498 583 463 c 1,6,7
 562 410 562 410 512 410 c 256,8,9
 462 410 462 410 442 462 c 1,0,1
652 895 m 1,10,11
 596 876 596 876 530 876 c 0,12,13
 381 876 381 876 276 969 c 128,-1,14
 171 1062 171 1062 171 1194 c 0,15,16
 171 1305 171 1305 247 1390 c 128,-1,17
 323 1475 323 1475 439 1502 c 1,18,19
 450 1658 450 1658 580.5 1767.5 c 128,-1,20
 711 1877 711 1877 892 1877 c 0,21,22
 1022 1877 1022 1877 1129 1817.5 c 128,-1,23
 1236 1758 1236 1758 1293 1662 c 1,24,25
 1357 1679 1357 1679 1424 1679 c 0,26,27
 1611 1679 1611 1679 1744 1561 c 128,-1,28
 1877 1443 1877 1443 1877 1277 c 0,29,30
 1877 1110 1877 1110 1744 993 c 128,-1,31
 1611 876 1611 876 1424 876 c 0,32,33
 1356 876 1356 876 1305 890 c 1,34,35
 1168 803 1168 803 982 803 c 0,36,37
 789 803 789 803 652 895 c 1,10,11
698 599 m 1,38,39
 683 635 683 635 724.5 693 c 128,-1,40
 766 751 766 751 768 751 c 1,41,42
 768 751 768 751 809.5 693 c 128,-1,43
 851 635 851 635 839 599 c 1,44,45
 818 546 818 546 768 546 c 256,46,47
 718 546 718 546 698 599 c 1,38,39
1210 599 m 1,48,49
 1195 635 1195 635 1236.5 693 c 128,-1,50
 1278 751 1278 751 1280 751 c 1,51,52
 1280 751 1280 751 1321.5 693 c 128,-1,53
 1363 635 1363 635 1350 599 c 0,54,55
 1331 546 1331 546 1280 546 c 0,56,57
 1230 546 1230 546 1210 599 c 1,48,49
1466 462 m 1,58,59
 1451 498 1451 498 1492.5 556 c 128,-1,60
 1534 614 1534 614 1536 614 c 1,61,62
 1536 614 1536 614 1577.5 556 c 128,-1,63
 1619 498 1619 498 1606 463 c 0,64,65
 1587 410 1587 410 1536 410 c 0,66,67
 1486 410 1486 410 1466 462 c 1,58,59
954 462 m 1,68,69
 939 498 939 498 980.5 556 c 128,-1,70
 1022 614 1022 614 1024 614 c 1,71,72
 1024 614 1024 614 1065.5 556 c 128,-1,73
 1107 498 1107 498 1094 463 c 0,74,75
 1075 410 1075 410 1024 410 c 0,76,77
 974 410 974 410 954 462 c 1,68,69
EndSplineSet
Validated: 33
EndChar

StartChar: uniEC6A
Encoding: 60522 60522 31
Width: 1970
Flags: W
LayerCount: 2
Fore
SplineSet
652 895 m 1,0,1
 596 876 596 876 530 876 c 0,2,3
 381 876 381 876 276 969 c 128,-1,4
 171 1062 171 1062 171 1194 c 0,5,6
 171 1305 171 1305 247 1390 c 128,-1,7
 323 1475 323 1475 439 1502 c 1,8,9
 450 1658 450 1658 580.5 1767.5 c 128,-1,10
 711 1877 711 1877 892 1877 c 0,11,12
 1022 1877 1022 1877 1129 1817.5 c 128,-1,13
 1236 1758 1236 1758 1293 1662 c 1,14,15
 1357 1679 1357 1679 1424 1679 c 0,16,17
 1611 1679 1611 1679 1744 1561 c 128,-1,18
 1877 1443 1877 1443 1877 1277 c 0,19,20
 1877 1110 1877 1110 1744 993 c 128,-1,21
 1611 876 1611 876 1424 876 c 0,22,23
 1356 876 1356 876 1305 890 c 1,24,25
 1168 803 1168 803 982 803 c 0,26,27
 789 803 789 803 652 895 c 1,0,1
698 326 m 1,28,29
 683 362 683 362 724.5 420 c 128,-1,30
 766 478 766 478 768 478 c 1,31,32
 768 478 768 478 809.5 420 c 128,-1,33
 851 362 851 362 839 327 c 1,34,35
 818 273 818 273 768 273 c 256,36,37
 718 273 718 273 698 326 c 1,28,29
1210 326 m 1,38,39
 1195 362 1195 362 1236.5 420 c 128,-1,40
 1278 478 1278 478 1280 478 c 1,41,42
 1280 478 1280 478 1321.5 420 c 128,-1,43
 1363 362 1363 362 1350 327 c 0,44,45
 1331 273 1331 273 1280 273 c 0,46,47
 1230 273 1230 273 1210 326 c 1,38,39
698 599 m 1,48,49
 683 635 683 635 724.5 693 c 128,-1,50
 766 751 766 751 768 751 c 1,51,52
 768 751 768 751 809.5 693 c 128,-1,53
 851 635 851 635 839 599 c 1,54,55
 818 546 818 546 768 546 c 256,56,57
 718 546 718 546 698 599 c 1,48,49
1210 599 m 1,58,59
 1195 635 1195 635 1236.5 693 c 128,-1,60
 1278 751 1278 751 1280 751 c 1,61,62
 1280 751 1280 751 1321.5 693 c 128,-1,63
 1363 635 1363 635 1350 599 c 0,64,65
 1331 546 1331 546 1280 546 c 0,66,67
 1230 546 1230 546 1210 599 c 1,58,59
1466 462 m 1,68,69
 1451 498 1451 498 1492.5 556 c 128,-1,70
 1534 614 1534 614 1536 614 c 1,71,72
 1536 614 1536 614 1577.5 556 c 128,-1,73
 1619 498 1619 498 1606 463 c 0,74,75
 1587 410 1587 410 1536 410 c 0,76,77
 1486 410 1486 410 1466 462 c 1,68,69
954 462 m 1,78,79
 939 498 939 498 980.5 556 c 128,-1,80
 1022 614 1022 614 1024 614 c 1,81,82
 1024 614 1024 614 1065.5 556 c 128,-1,83
 1107 498 1107 498 1094 463 c 0,84,85
 1075 410 1075 410 1024 410 c 0,86,87
 974 410 974 410 954 462 c 1,78,79
442 462 m 1,88,89
 427 498 427 498 468.5 556 c 128,-1,90
 510 614 510 614 512 614 c 1,91,92
 512 614 512 614 553.5 556 c 128,-1,93
 595 498 595 498 583 463 c 1,94,95
 562 410 562 410 512 410 c 256,96,97
 462 410 462 410 442 462 c 1,88,89
EndSplineSet
Validated: 33
EndChar

StartChar: uniEC73
Encoding: 60531 60531 32
Width: 1970
Flags: W
LayerCount: 2
Fore
SplineSet
515 1173 m 1,0,1
 476 1160 476 1160 428 1160 c 0,2,3
 321 1160 321 1160 246 1226.5 c 128,-1,4
 171 1293 171 1293 171 1388 c 0,5,6
 171 1467 171 1467 225.5 1528 c 128,-1,7
 280 1589 280 1589 363 1608 c 1,8,9
 371 1720 371 1720 464.5 1798.5 c 128,-1,10
 558 1877 558 1877 687 1877 c 0,11,12
 884 1877 884 1877 975 1723 c 1,13,14
 1018 1735 1018 1735 1068 1735 c 0,15,16
 1202 1735 1202 1735 1297.5 1650.5 c 128,-1,17
 1393 1566 1393 1566 1393 1448 c 0,18,19
 1393 1446 1393 1446 1393 1445 c 128,-1,20
 1393 1444 1393 1444 1393 1443 c 1,21,22
 1282 1536 1282 1536 1130 1536 c 256,23,24
 978 1536 978 1536 868.5 1444 c 128,-1,25
 759 1352 759 1352 750 1220 c 1,26,27
 657 1198 657 1198 596 1134 c 1,28,29
 556 1147 556 1147 515 1173 c 1,0,1
698 326 m 1,30,31
 683 362 683 362 724.5 420 c 128,-1,32
 766 478 766 478 768 478 c 1,33,34
 768 478 768 478 809.5 420 c 128,-1,35
 851 362 851 362 839 327 c 1,36,37
 818 273 818 273 768 273 c 256,38,39
 718 273 718 273 698 326 c 1,30,31
1210 326 m 1,40,41
 1195 362 1195 362 1236.5 420 c 128,-1,42
 1278 478 1278 478 1280 478 c 1,43,44
 1280 478 1280 478 1321.5 420 c 128,-1,45
 1363 362 1363 362 1350 327 c 0,46,47
 1331 273 1331 273 1280 273 c 0,48,49
 1230 273 1230 273 1210 326 c 1,40,41
1466 462 m 1,50,51
 1451 498 1451 498 1492.5 556 c 128,-1,52
 1534 614 1534 614 1536 614 c 1,53,54
 1536 614 1536 614 1577.5 556 c 128,-1,55
 1619 498 1619 498 1606 463 c 0,56,57
 1587 410 1587 410 1536 410 c 0,58,59
 1486 410 1486 410 1466 462 c 1,50,51
954 462 m 1,60,61
 939 498 939 498 980.5 556 c 128,-1,62
 1022 614 1022 614 1024 614 c 1,63,64
 1024 614 1024 614 1065.5 556 c 128,-1,65
 1107 498 1107 498 1094 463 c 0,66,67
 1075 410 1075 410 1024 410 c 0,68,69
 974 410 974 410 954 462 c 1,60,61
442 462 m 1,70,71
 427 498 427 498 468.5 556 c 128,-1,72
 510 614 510 614 512 614 c 1,73,74
 512 614 512 614 553.5 556 c 128,-1,75
 595 498 595 498 583 463 c 1,76,77
 562 410 562 410 512 410 c 256,78,79
 462 410 462 410 442 462 c 1,70,71
964 753 m 1,80,81
 924 739 924 739 873 739 c 0,82,83
 762 739 762 739 684 808 c 128,-1,84
 606 877 606 877 606 975 c 0,85,86
 606 1058 606 1058 662.5 1121 c 128,-1,87
 719 1184 719 1184 806 1205 c 1,88,89
 814 1322 814 1322 911 1403.5 c 128,-1,90
 1008 1485 1008 1485 1143 1485 c 0,91,92
 1347 1485 1347 1485 1442 1325 c 1,93,94
 1488 1337 1488 1337 1539 1337 c 0,95,96
 1679 1337 1679 1337 1778 1249 c 128,-1,97
 1877 1161 1877 1161 1877 1038 c 0,98,99
 1877 913 1877 913 1778 826 c 128,-1,100
 1679 739 1679 739 1539 739 c 0,101,102
 1491 739 1491 739 1450 749 c 1,103,104
 1349 684 1349 684 1210 684 c 0,105,106
 1065 684 1065 684 964 753 c 1,80,81
EndSplineSet
Validated: 33
EndChar

StartChar: uniECB8
Encoding: 60600 60600 33
Width: 1970
Flags: W
LayerCount: 2
Fore
SplineSet
652 895 m 1,0,1
 596 876 596 876 530 876 c 0,2,3
 381 876 381 876 276 969 c 128,-1,4
 171 1062 171 1062 171 1194 c 0,5,6
 171 1305 171 1305 247 1390 c 128,-1,7
 323 1475 323 1475 439 1502 c 1,8,9
 450 1658 450 1658 580.5 1767.5 c 128,-1,10
 711 1877 711 1877 892 1877 c 0,11,12
 1022 1877 1022 1877 1129 1817.5 c 128,-1,13
 1236 1758 1236 1758 1293 1662 c 1,14,15
 1357 1679 1357 1679 1424 1679 c 0,16,17
 1611 1679 1611 1679 1744 1561 c 128,-1,18
 1877 1443 1877 1443 1877 1277 c 0,19,20
 1877 1110 1877 1110 1744 993 c 128,-1,21
 1611 876 1611 876 1424 876 c 0,22,23
 1356 876 1356 876 1305 890 c 1,24,25
 1168 803 1168 803 982 803 c 0,26,27
 789 803 789 803 652 895 c 1,0,1
1047 655 m 1,28,-1
 1047 593 l 1,29,-1
 1101 624 l 1,30,-1
 1124 706 l 1,31,-1
 1155 697 l 1,32,-1
 1133 616 l 1,33,-1
 1215 594 l 1,34,-1
 1206 562 l 1,35,-1
 1125 584 l 1,36,-1
 1071 553 l 1,37,-1
 1125 522 l 1,38,-1
 1206 543 l 1,39,-1
 1215 511 l 1,40,-1
 1133 490 l 1,41,-1
 1155 408 l 1,42,-1
 1124 400 l 1,43,-1
 1101 481 l 1,44,-1
 1047 512 l 1,45,-1
 1047 450 l 1,46,-1
 1107 390 l 1,47,-1
 1083 367 l 1,48,-1
 1024 427 l 1,49,-1
 965 367 l 1,50,-1
 941 390 l 1,51,-1
 1001 450 l 1,52,-1
 1001 512 l 1,53,-1
 947 481 l 1,54,-1
 924 400 l 1,55,-1
 893 408 l 1,56,-1
 915 490 l 1,57,-1
 833 511 l 1,58,-1
 842 543 l 1,59,-1
 923 522 l 1,60,-1
 977 553 l 1,61,-1
 923 584 l 1,62,-1
 842 562 l 1,63,-1
 833 594 l 1,64,-1
 915 616 l 1,65,-1
 893 697 l 1,66,-1
 924 706 l 1,67,-1
 947 624 l 1,68,-1
 1001 593 l 1,69,-1
 1001 655 l 1,70,-1
 941 715 l 1,71,-1
 965 739 l 1,72,-1
 1024 679 l 1,73,-1
 1083 739 l 1,74,-1
 1107 715 l 1,75,-1
 1047 655 l 1,28,-1
EndSplineSet
Validated: 1
EndChar

StartChar: uniECB9
Encoding: 60601 60601 34
Width: 1970
Flags: W
LayerCount: 2
Fore
SplineSet
652 895 m 1,0,1
 596 876 596 876 530 876 c 0,2,3
 381 876 381 876 276 969 c 128,-1,4
 171 1062 171 1062 171 1194 c 0,5,6
 171 1305 171 1305 247 1390 c 128,-1,7
 323 1475 323 1475 439 1502 c 1,8,9
 450 1658 450 1658 580.5 1767.5 c 128,-1,10
 711 1877 711 1877 892 1877 c 0,11,12
 1022 1877 1022 1877 1129 1817.5 c 128,-1,13
 1236 1758 1236 1758 1293 1662 c 1,14,15
 1357 1679 1357 1679 1424 1679 c 0,16,17
 1611 1679 1611 1679 1744 1561 c 128,-1,18
 1877 1443 1877 1443 1877 1277 c 0,19,20
 1877 1110 1877 1110 1744 993 c 128,-1,21
 1611 876 1611 876 1424 876 c 0,22,23
 1356 876 1356 876 1305 890 c 1,24,25
 1168 803 1168 803 982 803 c 0,26,27
 789 803 789 803 652 895 c 1,0,1
573 749 m 1,28,-1
 573 691 l 1,29,-1
 623 720 l 1,30,-1
 644 796 l 1,31,-1
 674 788 l 1,32,-1
 653 712 l 1,33,-1
 729 692 l 1,34,-1
 722 662 l 1,35,-1
 645 682 l 1,36,-1
 595 653 l 1,37,-1
 645 624 l 1,38,-1
 722 644 l 1,39,-1
 729 614 l 1,40,-1
 653 595 l 1,41,-1
 674 519 l 1,42,-1
 644 511 l 1,43,-1
 623 587 l 1,44,-1
 573 615 l 1,45,-1
 573 557 l 1,46,-1
 629 501 l 1,47,-1
 607 480 l 1,48,-1
 551 536 l 1,49,-1
 496 480 l 1,50,-1
 474 501 l 1,51,-1
 529 557 l 1,52,-1
 529 615 l 1,53,-1
 479 587 l 1,54,-1
 458 511 l 1,55,-1
 429 519 l 1,56,-1
 449 595 l 1,57,-1
 373 614 l 1,58,-1
 381 644 l 1,59,-1
 458 624 l 1,60,-1
 508 653 l 1,61,-1
 458 682 l 1,62,-1
 381 662 l 1,63,-1
 373 692 l 1,64,-1
 449 712 l 1,65,-1
 429 788 l 1,66,-1
 458 796 l 1,67,-1
 479 720 l 1,68,-1
 529 691 l 1,69,-1
 529 749 l 1,70,-1
 474 805 l 1,71,-1
 496 827 l 1,72,-1
 551 771 l 1,73,-1
 607 827 l 1,74,-1
 629 805 l 1,75,-1
 573 749 l 1,28,-1
1047 655 m 1,76,-1
 1047 593 l 1,77,-1
 1101 624 l 1,78,-1
 1124 706 l 1,79,-1
 1155 697 l 1,80,-1
 1133 616 l 1,81,-1
 1215 594 l 1,82,-1
 1206 562 l 1,83,-1
 1125 584 l 1,84,-1
 1071 553 l 1,85,-1
 1125 522 l 1,86,-1
 1206 543 l 1,87,-1
 1215 511 l 1,88,-1
 1133 490 l 1,89,-1
 1155 408 l 1,90,-1
 1124 400 l 1,91,-1
 1101 481 l 1,92,-1
 1047 512 l 1,93,-1
 1047 450 l 1,94,-1
 1107 390 l 1,95,-1
 1083 367 l 1,96,-1
 1024 427 l 1,97,-1
 965 367 l 1,98,-1
 941 390 l 1,99,-1
 1001 450 l 1,100,-1
 1001 512 l 1,101,-1
 947 481 l 1,102,-1
 924 400 l 1,103,-1
 893 408 l 1,104,-1
 915 490 l 1,105,-1
 833 511 l 1,106,-1
 842 543 l 1,107,-1
 923 522 l 1,108,-1
 977 553 l 1,109,-1
 923 584 l 1,110,-1
 842 562 l 1,111,-1
 833 594 l 1,112,-1
 915 616 l 1,113,-1
 893 697 l 1,114,-1
 924 706 l 1,115,-1
 947 624 l 1,116,-1
 1001 593 l 1,117,-1
 1001 655 l 1,118,-1
 941 715 l 1,119,-1
 965 739 l 1,120,-1
 1024 679 l 1,121,-1
 1083 739 l 1,122,-1
 1107 715 l 1,123,-1
 1047 655 l 1,76,-1
EndSplineSet
Validated: 1
EndChar

StartChar: uniECBA
Encoding: 60602 60602 35
Width: 1970
Flags: W
LayerCount: 2
Fore
SplineSet
652 895 m 1,0,1
 596 876 596 876 530 876 c 0,2,3
 381 876 381 876 276 969 c 128,-1,4
 171 1062 171 1062 171 1194 c 0,5,6
 171 1305 171 1305 247 1390 c 128,-1,7
 323 1475 323 1475 439 1502 c 1,8,9
 450 1658 450 1658 580.5 1767.5 c 128,-1,10
 711 1877 711 1877 892 1877 c 0,11,12
 1022 1877 1022 1877 1129 1817.5 c 128,-1,13
 1236 1758 1236 1758 1293 1662 c 1,14,15
 1357 1679 1357 1679 1424 1679 c 0,16,17
 1611 1679 1611 1679 1744 1561 c 128,-1,18
 1877 1443 1877 1443 1877 1277 c 0,19,20
 1877 1110 1877 1110 1744 993 c 128,-1,21
 1611 876 1611 876 1424 876 c 0,22,23
 1356 876 1356 876 1305 890 c 1,24,25
 1168 803 1168 803 982 803 c 0,26,27
 789 803 789 803 652 895 c 1,0,1
1524 749 m 1,28,-1
 1524 691 l 1,29,-1
 1574 720 l 1,30,-1
 1595 796 l 1,31,-1
 1625 788 l 1,32,-1
 1604 712 l 1,33,-1
 1680 692 l 1,34,-1
 1672 662 l 1,35,-1
 1596 682 l 1,36,-1
 1546 653 l 1,37,-1
 1596 624 l 1,38,-1
 1672 644 l 1,39,-1
 1680 614 l 1,40,-1
 1604 595 l 1,41,-1
 1625 519 l 1,42,-1
 1595 511 l 1,43,-1
 1574 587 l 1,44,-1
 1524 615 l 1,45,-1
 1524 557 l 1,46,-1
 1579 501 l 1,47,-1
 1558 480 l 1,48,-1
 1502 536 l 1,49,-1
 1447 480 l 1,50,-1
 1425 501 l 1,51,-1
 1480 557 l 1,52,-1
 1480 615 l 1,53,-1
 1430 587 l 1,54,-1
 1409 511 l 1,55,-1
 1380 519 l 1,56,-1
 1400 595 l 1,57,-1
 1324 614 l 1,58,-1
 1332 644 l 1,59,-1
 1408 624 l 1,60,-1
 1459 653 l 1,61,-1
 1408 682 l 1,62,-1
 1332 662 l 1,63,-1
 1324 692 l 1,64,-1
 1400 712 l 1,65,-1
 1380 788 l 1,66,-1
 1409 796 l 1,67,-1
 1430 720 l 1,68,-1
 1480 691 l 1,69,-1
 1480 749 l 1,70,-1
 1425 805 l 1,71,-1
 1447 827 l 1,72,-1
 1502 771 l 1,73,-1
 1558 827 l 1,74,-1
 1579 805 l 1,75,-1
 1524 749 l 1,28,-1
573 749 m 1,76,-1
 573 691 l 1,77,-1
 623 720 l 1,78,-1
 644 796 l 1,79,-1
 674 788 l 1,80,-1
 653 712 l 1,81,-1
 729 692 l 1,82,-1
 722 662 l 1,83,-1
 645 682 l 1,84,-1
 595 653 l 1,85,-1
 645 624 l 1,86,-1
 722 644 l 1,87,-1
 729 614 l 1,88,-1
 653 595 l 1,89,-1
 674 519 l 1,90,-1
 644 511 l 1,91,-1
 623 587 l 1,92,-1
 573 615 l 1,93,-1
 573 557 l 1,94,-1
 629 501 l 1,95,-1
 607 480 l 1,96,-1
 551 536 l 1,97,-1
 496 480 l 1,98,-1
 474 501 l 1,99,-1
 529 557 l 1,100,-1
 529 615 l 1,101,-1
 479 587 l 1,102,-1
 458 511 l 1,103,-1
 429 519 l 1,104,-1
 449 595 l 1,105,-1
 373 614 l 1,106,-1
 381 644 l 1,107,-1
 458 624 l 1,108,-1
 508 653 l 1,109,-1
 458 682 l 1,110,-1
 381 662 l 1,111,-1
 373 692 l 1,112,-1
 449 712 l 1,113,-1
 429 788 l 1,114,-1
 458 796 l 1,115,-1
 479 720 l 1,116,-1
 529 691 l 1,117,-1
 529 749 l 1,118,-1
 474 805 l 1,119,-1
 496 827 l 1,120,-1
 551 771 l 1,121,-1
 607 827 l 1,122,-1
 629 805 l 1,123,-1
 573 749 l 1,76,-1
1047 655 m 1,124,-1
 1047 593 l 1,125,-1
 1101 624 l 1,126,-1
 1124 706 l 1,127,-1
 1155 697 l 1,128,-1
 1133 616 l 1,129,-1
 1215 594 l 1,130,-1
 1206 562 l 1,131,-1
 1125 584 l 1,132,-1
 1071 553 l 1,133,-1
 1125 522 l 1,134,-1
 1206 543 l 1,135,-1
 1215 511 l 1,136,-1
 1133 490 l 1,137,-1
 1155 408 l 1,138,-1
 1124 400 l 1,139,-1
 1101 481 l 1,140,-1
 1047 512 l 1,141,-1
 1047 450 l 1,142,-1
 1107 390 l 1,143,-1
 1083 367 l 1,144,-1
 1024 427 l 1,145,-1
 965 367 l 1,146,-1
 941 390 l 1,147,-1
 1001 450 l 1,148,-1
 1001 512 l 1,149,-1
 947 481 l 1,150,-1
 924 400 l 1,151,-1
 893 408 l 1,152,-1
 915 490 l 1,153,-1
 833 511 l 1,154,-1
 842 543 l 1,155,-1
 923 522 l 1,156,-1
 977 553 l 1,157,-1
 923 584 l 1,158,-1
 842 562 l 1,159,-1
 833 594 l 1,160,-1
 915 616 l 1,161,-1
 893 697 l 1,162,-1
 924 706 l 1,163,-1
 947 624 l 1,164,-1
 1001 593 l 1,165,-1
 1001 655 l 1,166,-1
 941 715 l 1,167,-1
 965 739 l 1,168,-1
 1024 679 l 1,169,-1
 1083 739 l 1,170,-1
 1107 715 l 1,171,-1
 1047 655 l 1,124,-1
EndSplineSet
Validated: 1
EndChar

StartChar: uniECC3
Encoding: 60611 60611 36
Width: 1970
Flags: W
LayerCount: 2
Fore
SplineSet
652 895 m 1,0,1
 596 876 596 876 530 876 c 0,2,3
 381 876 381 876 276 969 c 128,-1,4
 171 1062 171 1062 171 1194 c 0,5,6
 171 1305 171 1305 247 1390 c 128,-1,7
 323 1475 323 1475 439 1502 c 1,8,9
 450 1658 450 1658 580.5 1767.5 c 128,-1,10
 711 1877 711 1877 892 1877 c 0,11,12
 1022 1877 1022 1877 1129 1817.5 c 128,-1,13
 1236 1758 1236 1758 1293 1662 c 1,14,15
 1357 1679 1357 1679 1424 1679 c 0,16,17
 1611 1679 1611 1679 1744 1561 c 128,-1,18
 1877 1443 1877 1443 1877 1277 c 0,19,20
 1877 1110 1877 1110 1744 993 c 128,-1,21
 1611 876 1611 876 1424 876 c 0,22,23
 1356 876 1356 876 1305 890 c 1,24,25
 1168 803 1168 803 982 803 c 0,26,27
 789 803 789 803 652 895 c 1,0,1
1064 373 m 1,28,-1
 1202 512 l 1,29,-1
 1280 512 l 1,30,-1
 1142 373 l 1,31,-1
 1064 373 l 1,28,-1
1341 575 m 1,32,-1
 1264 575 l 1,33,-1
 1401 714 l 1,34,-1
 1479 714 l 1,35,-1
 1341 575 l 1,32,-1
809 373 m 1,36,-1
 946 512 l 1,37,-1
 1024 512 l 1,38,-1
 886 373 l 1,39,-1
 809 373 l 1,36,-1
1086 575 m 1,40,-1
 1008 575 l 1,41,-1
 1146 714 l 1,42,-1
 1223 714 l 1,43,-1
 1086 575 l 1,40,-1
675 733 m 1,44,-1
 675 675 l 1,45,-1
 725 703 l 1,46,-1
 746 779 l 1,47,-1
 776 771 l 1,48,-1
 755 696 l 1,49,-1
 831 676 l 1,50,-1
 823 646 l 1,51,-1
 747 666 l 1,52,-1
 697 637 l 1,53,-1
 747 608 l 1,54,-1
 823 628 l 1,55,-1
 831 598 l 1,56,-1
 755 578 l 1,57,-1
 776 502 l 1,58,-1
 746 494 l 1,59,-1
 725 570 l 1,60,-1
 675 599 l 1,61,-1
 675 541 l 1,62,-1
 730 485 l 1,63,-1
 708 463 l 1,64,-1
 653 519 l 1,65,-1
 597 463 l 1,66,-1
 575 485 l 1,67,-1
 631 541 l 1,68,-1
 631 599 l 1,69,-1
 581 570 l 1,70,-1
 560 494 l 1,71,-1
 530 502 l 1,72,-1
 551 578 l 1,73,-1
 475 598 l 1,74,-1
 483 628 l 1,75,-1
 559 608 l 1,76,-1
 609 637 l 1,77,-1
 559 666 l 1,78,-1
 483 646 l 1,79,-1
 475 676 l 1,80,-1
 551 696 l 1,81,-1
 530 771 l 1,82,-1
 560 779 l 1,83,-1
 581 703 l 1,84,-1
 631 675 l 1,85,-1
 631 733 l 1,86,-1
 575 789 l 1,87,-1
 597 810 l 1,88,-1
 653 754 l 1,89,-1
 708 810 l 1,90,-1
 730 789 l 1,91,-1
 675 733 l 1,44,-1
EndSplineSet
Validated: 1
EndChar

StartChar: uniECC4
Encoding: 60612 60612 37
Width: 1970
Flags: W
LayerCount: 2
Fore
SplineSet
652 895 m 1,0,1
 596 876 596 876 530 876 c 0,2,3
 381 876 381 876 276 969 c 128,-1,4
 171 1062 171 1062 171 1194 c 0,5,6
 171 1305 171 1305 247 1390 c 128,-1,7
 323 1475 323 1475 439 1502 c 1,8,9
 450 1658 450 1658 580.5 1767.5 c 128,-1,10
 711 1877 711 1877 892 1877 c 0,11,12
 1022 1877 1022 1877 1129 1817.5 c 128,-1,13
 1236 1758 1236 1758 1293 1662 c 1,14,15
 1357 1679 1357 1679 1424 1679 c 0,16,17
 1611 1679 1611 1679 1744 1561 c 128,-1,18
 1877 1443 1877 1443 1877 1277 c 0,19,20
 1877 1110 1877 1110 1744 993 c 128,-1,21
 1611 876 1611 876 1424 876 c 0,22,23
 1356 876 1356 876 1305 890 c 1,24,25
 1168 803 1168 803 982 803 c 0,26,27
 789 803 789 803 652 895 c 1,0,1
994 720 m 1,28,-1
 1056 720 l 1,29,-1
 1056 512 l 1,30,-1
 994 512 l 1,31,-1
 994 720 l 1,28,-1
1056 450 m 1,32,-1
 1056 242 l 1,33,-1
 994 242 l 1,34,-1
 994 450 l 1,35,-1
 1056 450 l 1,32,-1
1249 720 m 1,36,-1
 1312 720 l 1,37,-1
 1312 512 l 1,38,-1
 1249 512 l 1,39,-1
 1249 720 l 1,36,-1
1312 450 m 1,40,-1
 1312 242 l 1,41,-1
 1249 242 l 1,42,-1
 1249 450 l 1,43,-1
 1312 450 l 1,40,-1
1505 720 m 1,44,-1
 1567 720 l 1,45,-1
 1567 512 l 1,46,-1
 1505 512 l 1,47,-1
 1505 720 l 1,44,-1
1567 450 m 1,48,-1
 1567 242 l 1,49,-1
 1505 242 l 1,50,-1
 1505 450 l 1,51,-1
 1567 450 l 1,48,-1
675 733 m 1,52,-1
 675 675 l 1,53,-1
 725 703 l 1,54,-1
 746 779 l 1,55,-1
 776 771 l 1,56,-1
 755 696 l 1,57,-1
 831 676 l 1,58,-1
 823 646 l 1,59,-1
 747 666 l 1,60,-1
 697 637 l 1,61,-1
 747 608 l 1,62,-1
 823 628 l 1,63,-1
 831 598 l 1,64,-1
 755 578 l 1,65,-1
 776 502 l 1,66,-1
 746 494 l 1,67,-1
 725 570 l 1,68,-1
 675 599 l 1,69,-1
 675 541 l 1,70,-1
 730 485 l 1,71,-1
 708 463 l 1,72,-1
 653 519 l 1,73,-1
 597 463 l 1,74,-1
 575 485 l 1,75,-1
 631 541 l 1,76,-1
 631 599 l 1,77,-1
 581 570 l 1,78,-1
 560 494 l 1,79,-1
 530 502 l 1,80,-1
 551 578 l 1,81,-1
 475 598 l 1,82,-1
 483 628 l 1,83,-1
 559 608 l 1,84,-1
 609 637 l 1,85,-1
 559 666 l 1,86,-1
 483 646 l 1,87,-1
 475 676 l 1,88,-1
 551 696 l 1,89,-1
 530 771 l 1,90,-1
 560 779 l 1,91,-1
 581 703 l 1,92,-1
 631 675 l 1,93,-1
 631 733 l 1,94,-1
 575 789 l 1,95,-1
 597 810 l 1,96,-1
 653 754 l 1,97,-1
 708 810 l 1,98,-1
 730 789 l 1,99,-1
 675 733 l 1,52,-1
EndSplineSet
Validated: 1
EndChar

StartChar: uniECC7
Encoding: 60615 60615 38
Width: 1970
Flags: W
LayerCount: 2
Fore
SplineSet
652 895 m 1,0,1
 596 876 596 876 530 876 c 0,2,3
 381 876 381 876 276 969 c 128,-1,4
 171 1062 171 1062 171 1194 c 0,5,6
 171 1305 171 1305 247 1390 c 128,-1,7
 323 1475 323 1475 439 1502 c 1,8,9
 450 1658 450 1658 580.5 1767.5 c 128,-1,10
 711 1877 711 1877 892 1877 c 0,11,12
 1022 1877 1022 1877 1129 1817.5 c 128,-1,13
 1236 1758 1236 1758 1293 1662 c 1,14,15
 1357 1679 1357 1679 1424 1679 c 0,16,17
 1611 1679 1611 1679 1744 1561 c 128,-1,18
 1877 1443 1877 1443 1877 1277 c 0,19,20
 1877 1110 1877 1110 1744 993 c 128,-1,21
 1611 876 1611 876 1424 876 c 0,22,23
 1356 876 1356 876 1305 890 c 1,24,25
 1168 803 1168 803 982 803 c 0,26,27
 789 803 789 803 652 895 c 1,0,1
1454 574 m 0,28,29
 1423 496 1423 496 1350 496 c 0,30,31
 1275 496 1275 496 1246 575 c 1,32,33
 1225 627 1225 627 1287 713 c 128,-1,34
 1349 799 1349 799 1350 800 c 1,35,36
 1353 800 1353 800 1414 713.5 c 128,-1,37
 1475 627 1475 627 1454 574 c 0,28,29
675 733 m 1,38,-1
 675 675 l 1,39,-1
 725 703 l 1,40,-1
 746 779 l 1,41,-1
 776 771 l 1,42,-1
 755 696 l 1,43,-1
 831 676 l 1,44,-1
 823 646 l 1,45,-1
 747 666 l 1,46,-1
 697 637 l 1,47,-1
 747 608 l 1,48,-1
 823 628 l 1,49,-1
 831 598 l 1,50,-1
 755 578 l 1,51,-1
 776 502 l 1,52,-1
 746 494 l 1,53,-1
 725 570 l 1,54,-1
 675 599 l 1,55,-1
 675 541 l 1,56,-1
 730 485 l 1,57,-1
 708 463 l 1,58,-1
 653 519 l 1,59,-1
 597 463 l 1,60,-1
 575 485 l 1,61,-1
 631 541 l 1,62,-1
 631 599 l 1,63,-1
 581 570 l 1,64,-1
 560 494 l 1,65,-1
 530 502 l 1,66,-1
 551 578 l 1,67,-1
 475 598 l 1,68,-1
 483 628 l 1,69,-1
 559 608 l 1,70,-1
 609 637 l 1,71,-1
 559 666 l 1,72,-1
 483 646 l 1,73,-1
 475 676 l 1,74,-1
 551 696 l 1,75,-1
 530 771 l 1,76,-1
 560 779 l 1,77,-1
 581 703 l 1,78,-1
 631 675 l 1,79,-1
 631 733 l 1,80,-1
 575 789 l 1,81,-1
 597 810 l 1,82,-1
 653 754 l 1,83,-1
 708 810 l 1,84,-1
 730 789 l 1,85,-1
 675 733 l 1,38,-1
EndSplineSet
Validated: 33
EndChar

StartChar: uniECC8
Encoding: 60616 60616 39
Width: 1970
Flags: W
LayerCount: 2
Fore
SplineSet
675 733 m 1,0,-1
 675 675 l 1,1,-1
 725 703 l 1,2,-1
 746 779 l 1,3,-1
 776 771 l 1,4,-1
 755 696 l 1,5,-1
 831 676 l 1,6,-1
 823 646 l 1,7,-1
 747 666 l 1,8,-1
 697 637 l 1,9,-1
 747 608 l 1,10,-1
 823 628 l 1,11,-1
 831 598 l 1,12,-1
 755 578 l 1,13,-1
 776 502 l 1,14,-1
 746 494 l 1,15,-1
 725 570 l 1,16,-1
 675 599 l 1,17,-1
 675 541 l 1,18,-1
 730 485 l 1,19,-1
 708 463 l 1,20,-1
 653 519 l 1,21,-1
 597 463 l 1,22,-1
 575 485 l 1,23,-1
 631 541 l 1,24,-1
 631 599 l 1,25,-1
 581 570 l 1,26,-1
 560 494 l 1,27,-1
 530 502 l 1,28,-1
 551 578 l 1,29,-1
 475 598 l 1,30,-1
 483 628 l 1,31,-1
 559 608 l 1,32,-1
 609 637 l 1,33,-1
 559 666 l 1,34,-1
 483 646 l 1,35,-1
 475 676 l 1,36,-1
 551 696 l 1,37,-1
 530 771 l 1,38,-1
 560 779 l 1,39,-1
 581 703 l 1,40,-1
 631 675 l 1,41,-1
 631 733 l 1,42,-1
 575 789 l 1,43,-1
 597 810 l 1,44,-1
 653 754 l 1,45,-1
 708 810 l 1,46,-1
 730 789 l 1,47,-1
 675 733 l 1,0,-1
652 895 m 1,48,49
 596 876 596 876 530 876 c 0,50,51
 381 876 381 876 276 969 c 128,-1,52
 171 1062 171 1062 171 1194 c 0,53,54
 171 1305 171 1305 247 1390 c 128,-1,55
 323 1475 323 1475 439 1502 c 1,56,57
 450 1658 450 1658 580.5 1767.5 c 128,-1,58
 711 1877 711 1877 892 1877 c 0,59,60
 1022 1877 1022 1877 1129 1817.5 c 128,-1,61
 1236 1758 1236 1758 1293 1662 c 1,62,63
 1357 1679 1357 1679 1424 1679 c 0,64,65
 1611 1679 1611 1679 1744 1561 c 128,-1,66
 1877 1443 1877 1443 1877 1277 c 0,67,68
 1877 1110 1877 1110 1744 993 c 128,-1,69
 1611 876 1611 876 1424 876 c 0,70,71
 1356 876 1356 876 1305 890 c 1,72,73
 1168 803 1168 803 982 803 c 0,74,75
 789 803 789 803 652 895 c 1,48,49
1128 509 m 0,76,77
 1097 432 1097 432 1024 432 c 0,78,79
 948 432 948 432 920 510 c 1,80,81
 899 562 899 562 961 648 c 128,-1,82
 1023 734 1023 734 1024 734 c 0,83,84
 1026 734 1026 734 1087.5 648 c 128,-1,85
 1149 562 1149 562 1128 509 c 0,76,77
1454 574 m 0,86,87
 1423 496 1423 496 1350 496 c 0,88,89
 1275 496 1275 496 1246 575 c 1,90,91
 1225 627 1225 627 1287 713 c 128,-1,92
 1349 799 1349 799 1350 800 c 1,93,94
 1353 800 1353 800 1414 713.5 c 128,-1,95
 1475 627 1475 627 1454 574 c 0,86,87
EndSplineSet
Validated: 33
EndChar

StartChar: uniECCC
Encoding: 60620 60620 40
Width: 1970
Flags: W
LayerCount: 2
Fore
SplineSet
652 895 m 1,0,1
 596 876 596 876 530 876 c 0,2,3
 381 876 381 876 276 969 c 128,-1,4
 171 1062 171 1062 171 1194 c 0,5,6
 171 1305 171 1305 247 1390 c 128,-1,7
 323 1475 323 1475 439 1502 c 1,8,9
 450 1658 450 1658 580.5 1767.5 c 128,-1,10
 711 1877 711 1877 892 1877 c 0,11,12
 1022 1877 1022 1877 1129 1817.5 c 128,-1,13
 1236 1758 1236 1758 1293 1662 c 1,14,15
 1357 1679 1357 1679 1424 1679 c 0,16,17
 1611 1679 1611 1679 1744 1561 c 128,-1,18
 1877 1443 1877 1443 1877 1277 c 0,19,20
 1877 1110 1877 1110 1744 993 c 128,-1,21
 1611 876 1611 876 1424 876 c 0,22,23
 1356 876 1356 876 1305 890 c 1,24,25
 1168 803 1168 803 982 803 c 0,26,27
 789 803 789 803 652 895 c 1,0,1
1126 589 m 1,28,-1
 1202 569 l 1,29,-1
 1194 539 l 1,30,-1
 1118 559 l 1,31,-1
 1068 530 l 1,32,-1
 1118 501 l 1,33,-1
 1194 521 l 1,34,-1
 1202 491 l 1,35,-1
 1126 471 l 1,36,-1
 1147 395 l 1,37,-1
 1117 387 l 1,38,-1
 1096 463 l 1,39,-1
 1046 492 l 1,40,-1
 1046 434 l 1,41,-1
 1101 378 l 1,42,-1
 1079 356 l 1,43,-1
 1024 412 l 1,44,-1
 969 356 l 1,45,-1
 947 378 l 1,46,-1
 1002 434 l 1,47,-1
 1002 492 l 1,48,-1
 952 463 l 1,49,-1
 931 387 l 1,50,-1
 901 395 l 1,51,-1
 922 471 l 1,52,-1
 846 491 l 1,53,-1
 854 521 l 1,54,-1
 930 501 l 1,55,-1
 980 530 l 1,56,-1
 930 559 l 1,57,-1
 854 539 l 1,58,-1
 846 569 l 1,59,-1
 922 589 l 1,60,-1
 1024 530 l 1,61,-1
 1126 589 l 1,28,-1
1638 589 m 1,62,-1
 1714 569 l 1,63,-1
 1706 539 l 1,64,-1
 1630 559 l 1,65,-1
 1580 530 l 1,66,-1
 1630 501 l 1,67,-1
 1706 521 l 1,68,-1
 1714 491 l 1,69,-1
 1638 471 l 1,70,-1
 1659 395 l 1,71,-1
 1629 387 l 1,72,-1
 1608 463 l 1,73,-1
 1558 492 l 1,74,-1
 1558 434 l 1,75,-1
 1613 378 l 1,76,-1
 1591 356 l 1,77,-1
 1536 412 l 1,78,-1
 1480 356 l 1,79,-1
 1459 378 l 1,80,-1
 1514 434 l 1,81,-1
 1514 492 l 1,82,-1
 1464 463 l 1,83,-1
 1443 387 l 1,84,-1
 1413 395 l 1,85,-1
 1434 471 l 1,86,-1
 1358 491 l 1,87,-1
 1366 521 l 1,88,-1
 1442 501 l 1,89,-1
 1492 530 l 1,90,-1
 1442 559 l 1,91,-1
 1366 539 l 1,92,-1
 1358 569 l 1,93,-1
 1434 589 l 1,94,-1
 1536 530 l 1,95,-1
 1638 589 l 1,62,-1
614 589 m 1,96,-1
 690 569 l 1,97,-1
 682 539 l 1,98,-1
 606 559 l 1,99,-1
 556 530 l 1,100,-1
 606 501 l 1,101,-1
 682 521 l 1,102,-1
 690 491 l 1,103,-1
 614 471 l 1,104,-1
 635 395 l 1,105,-1
 605 387 l 1,106,-1
 584 463 l 1,107,-1
 534 492 l 1,108,-1
 534 434 l 1,109,-1
 589 378 l 1,110,-1
 568 356 l 1,111,-1
 512 412 l 1,112,-1
 457 356 l 1,113,-1
 435 378 l 1,114,-1
 490 434 l 1,115,-1
 490 492 l 1,116,-1
 440 463 l 1,117,-1
 419 387 l 1,118,-1
 389 395 l 1,119,-1
 410 471 l 1,120,-1
 334 491 l 1,121,-1
 342 521 l 1,122,-1
 418 501 l 1,123,-1
 468 530 l 1,124,-1
 418 559 l 1,125,-1
 342 539 l 1,126,-1
 334 569 l 1,127,-1
 410 589 l 1,128,-1
 512 530 l 1,129,-1
 614 589 l 1,96,-1
EndSplineSet
Validated: 1
EndChar

StartChar: uniECCD
Encoding: 60621 60621 41
Width: 1970
Flags: W
LayerCount: 2
Fore
SplineSet
614 589 m 1,0,-1
 690 569 l 1,1,-1
 682 539 l 1,2,-1
 606 559 l 1,3,-1
 556 530 l 1,4,-1
 606 501 l 1,5,-1
 682 521 l 1,6,-1
 690 491 l 1,7,-1
 614 471 l 1,8,-1
 635 395 l 1,9,-1
 605 387 l 1,10,-1
 584 463 l 1,11,-1
 534 492 l 1,12,-1
 534 434 l 1,13,-1
 589 378 l 1,14,-1
 568 356 l 1,15,-1
 512 412 l 1,16,-1
 457 356 l 1,17,-1
 435 378 l 1,18,-1
 490 434 l 1,19,-1
 490 492 l 1,20,-1
 440 463 l 1,21,-1
 419 387 l 1,22,-1
 389 395 l 1,23,-1
 410 471 l 1,24,-1
 334 491 l 1,25,-1
 342 521 l 1,26,-1
 418 501 l 1,27,-1
 468 530 l 1,28,-1
 418 559 l 1,29,-1
 342 539 l 1,30,-1
 334 569 l 1,31,-1
 410 589 l 1,32,-1
 512 530 l 1,33,-1
 614 589 l 1,0,-1
652 895 m 1,34,35
 596 876 596 876 530 876 c 0,36,37
 381 876 381 876 276 969 c 128,-1,38
 171 1062 171 1062 171 1194 c 0,39,40
 171 1305 171 1305 247 1390 c 128,-1,41
 323 1475 323 1475 439 1502 c 1,42,43
 450 1658 450 1658 580.5 1767.5 c 128,-1,44
 711 1877 711 1877 892 1877 c 0,45,46
 1022 1877 1022 1877 1129 1817.5 c 128,-1,47
 1236 1758 1236 1758 1293 1662 c 1,48,49
 1357 1679 1357 1679 1424 1679 c 0,50,51
 1611 1679 1611 1679 1744 1561 c 128,-1,52
 1877 1443 1877 1443 1877 1277 c 0,53,54
 1877 1110 1877 1110 1744 993 c 128,-1,55
 1611 876 1611 876 1424 876 c 0,56,57
 1356 876 1356 876 1305 890 c 1,58,59
 1168 803 1168 803 982 803 c 0,60,61
 789 803 789 803 652 895 c 1,34,35
1372 799 m 1,62,-1
 1440 781 l 1,63,-1
 1433 754 l 1,64,-1
 1364 772 l 1,65,-1
 1319 746 l 1,66,-1
 1364 720 l 1,67,-1
 1433 738 l 1,68,-1
 1440 711 l 1,69,-1
 1372 693 l 1,70,-1
 1390 625 l 1,71,-1
 1364 618 l 1,72,-1
 1345 686 l 1,73,-1
 1300 712 l 1,74,-1
 1300 660 l 1,75,-1
 1349 609 l 1,76,-1
 1330 590 l 1,77,-1
 1280 640 l 1,78,-1
 1230 590 l 1,79,-1
 1210 609 l 1,80,-1
 1260 660 l 1,81,-1
 1260 712 l 1,82,-1
 1215 686 l 1,83,-1
 1196 618 l 1,84,-1
 1169 625 l 1,85,-1
 1188 693 l 1,86,-1
 1120 711 l 1,87,-1
 1127 738 l 1,88,-1
 1195 720 l 1,89,-1
 1240 746 l 1,90,-1
 1195 772 l 1,91,-1
 1127 754 l 1,92,-1
 1120 781 l 1,93,-1
 1188 799 l 1,94,-1
 1280 746 l 1,95,-1
 1372 799 l 1,62,-1
860 799 m 1,96,-1
 928 781 l 1,97,-1
 921 754 l 1,98,-1
 853 772 l 1,99,-1
 808 746 l 1,100,-1
 853 720 l 1,101,-1
 921 738 l 1,102,-1
 928 711 l 1,103,-1
 860 693 l 1,104,-1
 879 625 l 1,105,-1
 852 618 l 1,106,-1
 833 686 l 1,107,-1
 788 712 l 1,108,-1
 788 660 l 1,109,-1
 838 609 l 1,110,-1
 818 590 l 1,111,-1
 768 640 l 1,112,-1
 718 590 l 1,113,-1
 699 609 l 1,114,-1
 748 660 l 1,115,-1
 748 712 l 1,116,-1
 703 686 l 1,117,-1
 684 618 l 1,118,-1
 658 625 l 1,119,-1
 676 693 l 1,120,-1
 608 711 l 1,121,-1
 615 738 l 1,122,-1
 684 720 l 1,123,-1
 729 746 l 1,124,-1
 684 772 l 1,125,-1
 615 754 l 1,126,-1
 608 781 l 1,127,-1
 676 799 l 1,128,-1
 768 746 l 1,129,-1
 860 799 l 1,96,-1
1126 589 m 1,130,-1
 1202 569 l 1,131,-1
 1194 539 l 1,132,-1
 1118 559 l 1,133,-1
 1068 530 l 1,134,-1
 1118 501 l 1,135,-1
 1194 521 l 1,136,-1
 1202 491 l 1,137,-1
 1126 471 l 1,138,-1
 1147 395 l 1,139,-1
 1117 387 l 1,140,-1
 1096 463 l 1,141,-1
 1046 492 l 1,142,-1
 1046 434 l 1,143,-1
 1101 378 l 1,144,-1
 1079 356 l 1,145,-1
 1024 412 l 1,146,-1
 969 356 l 1,147,-1
 947 378 l 1,148,-1
 1002 434 l 1,149,-1
 1002 492 l 1,150,-1
 952 463 l 1,151,-1
 931 387 l 1,152,-1
 901 395 l 1,153,-1
 922 471 l 1,154,-1
 846 491 l 1,155,-1
 854 521 l 1,156,-1
 930 501 l 1,157,-1
 980 530 l 1,158,-1
 930 559 l 1,159,-1
 854 539 l 1,160,-1
 846 569 l 1,161,-1
 922 589 l 1,162,-1
 1024 530 l 1,163,-1
 1126 589 l 1,130,-1
1638 589 m 1,164,-1
 1714 569 l 1,165,-1
 1706 539 l 1,166,-1
 1630 559 l 1,167,-1
 1580 530 l 1,168,-1
 1630 501 l 1,169,-1
 1706 521 l 1,170,-1
 1714 491 l 1,171,-1
 1638 471 l 1,172,-1
 1659 395 l 1,173,-1
 1629 387 l 1,174,-1
 1608 463 l 1,175,-1
 1558 492 l 1,176,-1
 1558 434 l 1,177,-1
 1613 378 l 1,178,-1
 1591 356 l 1,179,-1
 1536 412 l 1,180,-1
 1480 356 l 1,181,-1
 1459 378 l 1,182,-1
 1514 434 l 1,183,-1
 1514 492 l 1,184,-1
 1464 463 l 1,185,-1
 1443 387 l 1,186,-1
 1413 395 l 1,187,-1
 1434 471 l 1,188,-1
 1358 491 l 1,189,-1
 1366 521 l 1,190,-1
 1442 501 l 1,191,-1
 1492 530 l 1,192,-1
 1442 559 l 1,193,-1
 1366 539 l 1,194,-1
 1358 569 l 1,195,-1
 1434 589 l 1,196,-1
 1536 530 l 1,197,-1
 1638 589 l 1,164,-1
EndSplineSet
Validated: 1
EndChar

StartChar: uniECCE
Encoding: 60622 60622 42
Width: 1970
Flags: W
LayerCount: 2
Fore
SplineSet
652 895 m 1,0,1
 596 876 596 876 530 876 c 0,2,3
 381 876 381 876 276 969 c 128,-1,4
 171 1062 171 1062 171 1194 c 0,5,6
 171 1305 171 1305 247 1390 c 128,-1,7
 323 1475 323 1475 439 1502 c 1,8,9
 450 1658 450 1658 580.5 1767.5 c 128,-1,10
 711 1877 711 1877 892 1877 c 0,11,12
 1022 1877 1022 1877 1129 1817.5 c 128,-1,13
 1236 1758 1236 1758 1293 1662 c 1,14,15
 1357 1679 1357 1679 1424 1679 c 0,16,17
 1611 1679 1611 1679 1744 1561 c 128,-1,18
 1877 1443 1877 1443 1877 1277 c 0,19,20
 1877 1110 1877 1110 1744 993 c 128,-1,21
 1611 876 1611 876 1424 876 c 0,22,23
 1356 876 1356 876 1305 890 c 1,24,25
 1168 803 1168 803 982 803 c 0,26,27
 789 803 789 803 652 895 c 1,0,1
1362 380 m 1,28,-1
 1422 364 l 1,29,-1
 1416 340 l 1,30,-1
 1355 356 l 1,31,-1
 1315 333 l 1,32,-1
 1355 310 l 1,33,-1
 1416 326 l 1,34,-1
 1422 302 l 1,35,-1
 1362 286 l 1,36,-1
 1378 225 l 1,37,-1
 1354 219 l 1,38,-1
 1338 280 l 1,39,-1
 1297 303 l 1,40,-1
 1297 256 l 1,41,-1
 1342 212 l 1,42,-1
 1324 194 l 1,43,-1
 1280 239 l 1,44,-1
 1236 194 l 1,45,-1
 1218 212 l 1,46,-1
 1262 256 l 1,47,-1
 1262 303 l 1,48,-1
 1222 280 l 1,49,-1
 1206 219 l 1,50,-1
 1182 225 l 1,51,-1
 1198 286 l 1,52,-1
 1137 302 l 1,53,-1
 1144 326 l 1,54,-1
 1205 310 l 1,55,-1
 1245 333 l 1,56,-1
 1205 356 l 1,57,-1
 1144 340 l 1,58,-1
 1137 364 l 1,59,-1
 1198 380 l 1,60,-1
 1280 333 l 1,61,-1
 1362 380 l 1,28,-1
850 380 m 1,62,-1
 911 364 l 1,63,-1
 904 340 l 1,64,-1
 843 356 l 1,65,-1
 803 333 l 1,66,-1
 843 310 l 1,67,-1
 904 326 l 1,68,-1
 911 302 l 1,69,-1
 850 286 l 1,70,-1
 866 225 l 1,71,-1
 842 219 l 1,72,-1
 826 280 l 1,73,-1
 786 303 l 1,74,-1
 786 256 l 1,75,-1
 830 212 l 1,76,-1
 812 194 l 1,77,-1
 768 239 l 1,78,-1
 724 194 l 1,79,-1
 706 212 l 1,80,-1
 751 256 l 1,81,-1
 751 303 l 1,82,-1
 710 280 l 1,83,-1
 694 219 l 1,84,-1
 670 225 l 1,85,-1
 686 286 l 1,86,-1
 626 302 l 1,87,-1
 632 326 l 1,88,-1
 693 310 l 1,89,-1
 733 333 l 1,90,-1
 693 356 l 1,91,-1
 632 340 l 1,92,-1
 626 364 l 1,93,-1
 686 380 l 1,94,-1
 768 333 l 1,95,-1
 850 380 l 1,62,-1
1372 799 m 1,96,-1
 1440 781 l 1,97,-1
 1433 754 l 1,98,-1
 1364 772 l 1,99,-1
 1319 746 l 1,100,-1
 1364 720 l 1,101,-1
 1433 738 l 1,102,-1
 1440 711 l 1,103,-1
 1372 693 l 1,104,-1
 1390 625 l 1,105,-1
 1364 618 l 1,106,-1
 1345 686 l 1,107,-1
 1300 712 l 1,108,-1
 1300 660 l 1,109,-1
 1349 609 l 1,110,-1
 1330 590 l 1,111,-1
 1280 640 l 1,112,-1
 1230 590 l 1,113,-1
 1210 609 l 1,114,-1
 1260 660 l 1,115,-1
 1260 712 l 1,116,-1
 1215 686 l 1,117,-1
 1196 618 l 1,118,-1
 1169 625 l 1,119,-1
 1188 693 l 1,120,-1
 1120 711 l 1,121,-1
 1127 738 l 1,122,-1
 1195 720 l 1,123,-1
 1240 746 l 1,124,-1
 1195 772 l 1,125,-1
 1127 754 l 1,126,-1
 1120 781 l 1,127,-1
 1188 799 l 1,128,-1
 1280 746 l 1,129,-1
 1372 799 l 1,96,-1
860 799 m 1,130,-1
 928 781 l 1,131,-1
 921 754 l 1,132,-1
 853 772 l 1,133,-1
 808 746 l 1,134,-1
 853 720 l 1,135,-1
 921 738 l 1,136,-1
 928 711 l 1,137,-1
 860 693 l 1,138,-1
 879 625 l 1,139,-1
 852 618 l 1,140,-1
 833 686 l 1,141,-1
 788 712 l 1,142,-1
 788 660 l 1,143,-1
 838 609 l 1,144,-1
 818 590 l 1,145,-1
 768 640 l 1,146,-1
 718 590 l 1,147,-1
 699 609 l 1,148,-1
 748 660 l 1,149,-1
 748 712 l 1,150,-1
 703 686 l 1,151,-1
 684 618 l 1,152,-1
 658 625 l 1,153,-1
 676 693 l 1,154,-1
 608 711 l 1,155,-1
 615 738 l 1,156,-1
 684 720 l 1,157,-1
 729 746 l 1,158,-1
 684 772 l 1,159,-1
 615 754 l 1,160,-1
 608 781 l 1,161,-1
 676 799 l 1,162,-1
 768 746 l 1,163,-1
 860 799 l 1,130,-1
1126 589 m 1,164,-1
 1202 569 l 1,165,-1
 1194 539 l 1,166,-1
 1118 559 l 1,167,-1
 1068 530 l 1,168,-1
 1118 501 l 1,169,-1
 1194 521 l 1,170,-1
 1202 491 l 1,171,-1
 1126 471 l 1,172,-1
 1147 395 l 1,173,-1
 1117 387 l 1,174,-1
 1096 463 l 1,175,-1
 1046 492 l 1,176,-1
 1046 434 l 1,177,-1
 1101 378 l 1,178,-1
 1079 356 l 1,179,-1
 1024 412 l 1,180,-1
 969 356 l 1,181,-1
 947 378 l 1,182,-1
 1002 434 l 1,183,-1
 1002 492 l 1,184,-1
 952 463 l 1,185,-1
 931 387 l 1,186,-1
 901 395 l 1,187,-1
 922 471 l 1,188,-1
 846 491 l 1,189,-1
 854 521 l 1,190,-1
 930 501 l 1,191,-1
 980 530 l 1,192,-1
 930 559 l 1,193,-1
 854 539 l 1,194,-1
 846 569 l 1,195,-1
 922 589 l 1,196,-1
 1024 530 l 1,197,-1
 1126 589 l 1,164,-1
1638 589 m 1,198,-1
 1714 569 l 1,199,-1
 1706 539 l 1,200,-1
 1630 559 l 1,201,-1
 1580 530 l 1,202,-1
 1630 501 l 1,203,-1
 1706 521 l 1,204,-1
 1714 491 l 1,205,-1
 1638 471 l 1,206,-1
 1659 395 l 1,207,-1
 1629 387 l 1,208,-1
 1608 463 l 1,209,-1
 1558 492 l 1,210,-1
 1558 434 l 1,211,-1
 1613 378 l 1,212,-1
 1591 356 l 1,213,-1
 1536 412 l 1,214,-1
 1480 356 l 1,215,-1
 1459 378 l 1,216,-1
 1514 434 l 1,217,-1
 1514 492 l 1,218,-1
 1464 463 l 1,219,-1
 1443 387 l 1,220,-1
 1413 395 l 1,221,-1
 1434 471 l 1,222,-1
 1358 491 l 1,223,-1
 1366 521 l 1,224,-1
 1442 501 l 1,225,-1
 1492 530 l 1,226,-1
 1442 559 l 1,227,-1
 1366 539 l 1,228,-1
 1358 569 l 1,229,-1
 1434 589 l 1,230,-1
 1536 530 l 1,231,-1
 1638 589 l 1,198,-1
614 589 m 1,232,-1
 690 569 l 1,233,-1
 682 539 l 1,234,-1
 606 559 l 1,235,-1
 556 530 l 1,236,-1
 606 501 l 1,237,-1
 682 521 l 1,238,-1
 690 491 l 1,239,-1
 614 471 l 1,240,-1
 635 395 l 1,241,-1
 605 387 l 1,242,-1
 584 463 l 1,243,-1
 534 492 l 1,244,-1
 534 434 l 1,245,-1
 589 378 l 1,246,-1
 568 356 l 1,247,-1
 512 412 l 1,248,-1
 457 356 l 1,249,-1
 435 378 l 1,250,-1
 490 434 l 1,251,-1
 490 492 l 1,252,-1
 440 463 l 1,253,-1
 419 387 l 1,254,-1
 389 395 l 1,255,-1
 410 471 l 1,256,-1
 334 491 l 1,257,-1
 342 521 l 1,258,-1
 418 501 l 1,259,-1
 468 530 l 1,260,-1
 418 559 l 1,261,-1
 342 539 l 1,262,-1
 334 569 l 1,263,-1
 410 589 l 1,264,-1
 512 530 l 1,265,-1
 614 589 l 1,232,-1
EndSplineSet
Validated: 1
EndChar

StartChar: uniED1D
Encoding: 60701 60701 43
Width: 1970
Flags: W
LayerCount: 2
Fore
SplineSet
1877 1139 m 1,0,-1
 1877 1043 l 1,1,-1
 1877 1018 l 1,2,-1
 1857 1003 l 2,3,4
 1641 841 1641 841 1431 857.5 c 128,-1,5
 1221 874 1221 874 1012 927 c 0,6,7
 820 975 820 975 628.5 991.5 c 128,-1,8
 437 1008 437 1008 251 869 c 1,9,-1
 171 808 l 1,10,-1
 171 909 l 1,11,-1
 171 1005 l 1,12,-1
 171 1030 l 1,13,-1
 191 1045 l 2,14,15
 406 1207 406 1207 616 1190 c 128,-1,16
 826 1173 826 1173 1036 1121 c 0,17,18
 1228 1073 1228 1073 1419 1056 c 128,-1,19
 1610 1039 1610 1039 1797 1179 c 1,20,-1
 1877 1240 l 1,21,-1
 1877 1139 l 1,0,-1
1877 627 m 1,22,-1
 1877 531 l 1,23,-1
 1877 506 l 1,24,-1
 1857 491 l 2,25,26
 1641 329 1641 329 1431 345.5 c 128,-1,27
 1221 362 1221 362 1012 415 c 0,28,29
 820 463 820 463 628.5 480 c 128,-1,30
 437 497 437 497 251 357 c 1,31,-1
 171 296 l 1,32,-1
 171 397 l 1,33,-1
 171 493 l 1,34,-1
 171 518 l 1,35,-1
 191 533 l 2,36,37
 406 695 406 695 616 678 c 128,-1,38
 826 661 826 661 1036 609 c 0,39,40
 1228 561 1228 561 1419 544 c 128,-1,41
 1610 527 1610 527 1797 667 c 1,42,-1
 1877 728 l 1,43,-1
 1877 627 l 1,22,-1
1877 1651 m 1,44,-1
 1877 1555 l 1,45,-1
 1877 1530 l 1,46,-1
 1857 1515 l 2,47,48
 1641 1353 1641 1353 1431 1369.5 c 128,-1,49
 1221 1386 1221 1386 1012 1439 c 0,50,51
 820 1487 820 1487 628.5 1503.5 c 128,-1,52
 437 1520 437 1520 251 1381 c 1,53,-1
 171 1320 l 1,54,-1
 171 1421 l 1,55,-1
 171 1517 l 1,56,-1
 171 1542 l 1,57,-1
 191 1557 l 2,58,59
 406 1719 406 1719 616 1702 c 128,-1,60
 826 1685 826 1685 1036 1633 c 0,61,62
 1228 1585 1228 1585 1419 1567.5 c 128,-1,63
 1610 1550 1610 1550 1797 1691 c 1,64,-1
 1877 1752 l 1,65,-1
 1877 1651 l 1,44,-1
EndSplineSet
Validated: 33
EndChar

StartChar: uniED27
Encoding: 60711 60711 44
Width: 1970
Flags: W
LayerCount: 2
Fore
SplineSet
1877 1651 m 1,0,-1
 1877 1555 l 1,1,-1
 1877 1530 l 1,2,-1
 1857 1515 l 2,3,4
 1641 1353 1641 1353 1431 1369.5 c 128,-1,5
 1221 1386 1221 1386 1012 1439 c 0,6,7
 820 1487 820 1487 628.5 1503.5 c 128,-1,8
 437 1520 437 1520 251 1381 c 1,9,-1
 171 1320 l 1,10,-1
 171 1421 l 1,11,-1
 171 1517 l 1,12,-1
 171 1542 l 1,13,-1
 191 1557 l 2,14,15
 406 1719 406 1719 616 1702 c 128,-1,16
 826 1685 826 1685 1036 1633 c 0,17,18
 1228 1585 1228 1585 1419 1567.5 c 128,-1,19
 1610 1550 1610 1550 1797 1691 c 1,20,-1
 1877 1752 l 1,21,-1
 1877 1651 l 1,0,-1
171 394 m 1,22,-1
 171 631 l 1,23,-1
 1877 631 l 1,24,-1
 1877 394 l 1,25,-1
 171 394 l 1,22,-1
171 899 m 1,26,-1
 171 1135 l 1,27,-1
 1877 1135 l 1,28,-1
 1877 899 l 1,29,-1
 171 899 l 1,26,-1
EndSplineSet
Validated: 33
EndChar

StartChar: uniED31
Encoding: 60721 60721 45
Width: 1970
Flags: W
LayerCount: 2
Fore
SplineSet
171 906 m 1,0,-1
 171 1142 l 1,1,-1
 1877 1142 l 1,2,-1
 1877 906 l 1,3,-1
 171 906 l 1,0,-1
171 1417 m 1,4,-1
 171 1654 l 1,5,-1
 1877 1654 l 1,6,-1
 1877 1417 l 1,7,-1
 171 1417 l 1,4,-1
171 394 m 1,8,-1
 171 631 l 1,9,-1
 1877 631 l 1,10,-1
 1877 394 l 1,11,-1
 171 394 l 1,8,-1
EndSplineSet
Validated: 1
EndChar

StartChar: uniED3B
Encoding: 60731 60731 46
Width: 2007
Flags: W
LayerCount: 2
Fore
SplineSet
1388 426 m 1,0,1
 1339 316 1339 316 1194.5 245 c 128,-1,2
 1050 174 1050 174 864 174 c 0,3,4
 637 174 637 174 477.5 276 c 128,-1,5
 318 378 318 378 318 522 c 0,6,7
 318 594 318 594 363 661 c 1,8,9
 251 750 251 750 251 862 c 0,10,11
 251 933 251 933 299 997 c 1,12,13
 171 1089 171 1089 171 1201 c 0,14,15
 171 1320 171 1320 310.5 1412 c 128,-1,16
 450 1504 450 1504 664 1536 c 1,17,18
 549 1494 549 1494 480.5 1428 c 128,-1,19
 412 1362 412 1362 412 1285 c 0,20,21
 412 1156 412 1156 589 1066 c 128,-1,22
 766 976 766 976 1017 976 c 0,23,24
 1328 976 1328 976 1509 1104 c 1,25,26
 1447 995 1447 995 1266.5 924 c 128,-1,27
 1086 853 1086 853 853 853 c 0,28,29
 644 853 644 853 471 912 c 1,30,31
 492 795 492 795 646.5 715.5 c 128,-1,32
 801 636 801 636 1013 636 c 0,33,34
 1291 636 1291 636 1455 765 c 1,35,36
 1400 656 1400 656 1237.5 584.5 c 128,-1,37
 1075 513 1075 513 865 513 c 0,38,39
 670 513 670 513 513 576 c 1,40,41
 530 458 530 458 668 377.5 c 128,-1,42
 806 297 806 297 995 297 c 0,43,44
 1242 297 1242 297 1388 426 c 1,0,1
944 1289 m 1,45,-1
 1143 1491 l 1,46,-1
 1255 1491 l 1,47,-1
 1056 1289 l 1,48,-1
 944 1289 l 1,45,-1
1344 1581 m 1,49,-1
 1232 1581 l 1,50,-1
 1431 1782 l 1,51,-1
 1543 1782 l 1,52,-1
 1344 1581 l 1,49,-1
575 1289 m 1,53,-1
 774 1491 l 1,54,-1
 886 1491 l 1,55,-1
 687 1289 l 1,56,-1
 575 1289 l 1,53,-1
975 1581 m 1,57,-1
 863 1581 l 1,58,-1
 1061 1782 l 1,59,-1
 1174 1782 l 1,60,-1
 975 1581 l 1,57,-1
1313 1289 m 1,61,-1
 1512 1491 l 1,62,-1
 1624 1491 l 1,63,-1
 1425 1289 l 1,64,-1
 1313 1289 l 1,61,-1
1713 1581 m 1,65,-1
 1601 1581 l 1,66,-1
 1800 1782 l 1,67,-1
 1912 1782 l 1,68,-1
 1713 1581 l 1,65,-1
EndSplineSet
Validated: 1
EndChar

StartChar: uniED45
Encoding: 60741 60741 47
Width: 1970
Flags: W
LayerCount: 2
Fore
SplineSet
171 394 m 1,0,-1
 171 631 l 1,1,-1
 1877 631 l 1,2,-1
 1877 394 l 1,3,-1
 171 394 l 1,0,-1
1877 1651 m 1,4,-1
 1877 1555 l 1,5,-1
 1877 1530 l 1,6,-1
 1857 1515 l 2,7,8
 1641 1353 1641 1353 1431 1369.5 c 128,-1,9
 1221 1386 1221 1386 1012 1439 c 0,10,11
 820 1487 820 1487 628.5 1503.5 c 128,-1,12
 437 1520 437 1520 251 1381 c 1,13,-1
 171 1320 l 1,14,-1
 171 1421 l 1,15,-1
 171 1517 l 1,16,-1
 171 1542 l 1,17,-1
 191 1557 l 2,18,19
 406 1719 406 1719 616 1702 c 128,-1,20
 826 1685 826 1685 1036 1633 c 0,21,22
 1228 1585 1228 1585 1419 1567.5 c 128,-1,23
 1610 1550 1610 1550 1797 1691 c 1,24,-1
 1877 1752 l 1,25,-1
 1877 1651 l 1,4,-1
1877 1139 m 1,26,-1
 1877 1043 l 1,27,-1
 1877 1018 l 1,28,-1
 1857 1003 l 2,29,30
 1641 841 1641 841 1431 857.5 c 128,-1,31
 1221 874 1221 874 1012 927 c 0,32,33
 820 975 820 975 628.5 991.5 c 128,-1,34
 437 1008 437 1008 251 869 c 1,35,-1
 171 808 l 1,36,-1
 171 909 l 1,37,-1
 171 1005 l 1,38,-1
 171 1030 l 1,39,-1
 191 1045 l 2,40,41
 406 1207 406 1207 616 1190 c 128,-1,42
 826 1173 826 1173 1036 1121 c 0,43,44
 1228 1073 1228 1073 1419 1056 c 128,-1,45
 1610 1039 1610 1039 1797 1179 c 1,46,-1
 1877 1240 l 1,47,-1
 1877 1139 l 1,26,-1
EndSplineSet
Validated: 33
EndChar

StartChar: uniED4F
Encoding: 60751 60751 48
Width: 2014
Flags: W
LayerCount: 2
Fore
SplineSet
1811 884 m 1,0,1
 1766 785 1766 785 1637 721.5 c 128,-1,2
 1508 658 1508 658 1341 658 c 0,3,4
 1139 658 1139 658 996 749.5 c 128,-1,5
 853 841 853 841 853 970 c 0,6,7
 853 1034 853 1034 894 1094 c 1,8,9
 793 1174 793 1174 793 1274 c 0,10,11
 793 1336 793 1336 837 1395 c 1,12,13
 722 1476 722 1476 722 1577 c 0,14,15
 722 1684 722 1684 846.5 1766.5 c 128,-1,16
 971 1849 971 1849 1163 1877 c 1,17,18
 1060 1839 1060 1839 998.5 1780 c 128,-1,19
 937 1721 937 1721 937 1652 c 0,20,21
 937 1538 937 1538 1095.5 1457 c 128,-1,22
 1254 1376 1254 1376 1479 1376 c 0,23,24
 1758 1376 1758 1376 1919 1491 c 1,25,26
 1864 1393 1864 1393 1702.5 1329 c 128,-1,27
 1541 1265 1541 1265 1332 1265 c 0,28,29
 1144 1265 1144 1265 990 1319 c 1,30,31
 1009 1214 1009 1214 1147.5 1143 c 128,-1,32
 1286 1072 1286 1072 1475 1072 c 0,33,34
 1726 1072 1726 1072 1871 1187 c 1,35,36
 1821 1089 1821 1089 1676 1025.5 c 128,-1,37
 1531 962 1531 962 1343 962 c 0,38,39
 1171 962 1171 962 1027 1018 c 1,40,41
 1042 913 1042 913 1166 840.5 c 128,-1,42
 1290 768 1290 768 1459 768 c 0,43,44
 1681 768 1681 768 1811 884 c 1,0,1
1877 627 m 1,45,-1
 1877 531 l 1,46,-1
 1877 506 l 1,47,-1
 1857 491 l 2,48,49
 1641 329 1641 329 1431 345.5 c 128,-1,50
 1221 362 1221 362 1012 415 c 0,51,52
 820 463 820 463 628.5 480 c 128,-1,53
 437 497 437 497 251 357 c 1,54,-1
 171 296 l 1,55,-1
 171 397 l 1,56,-1
 171 493 l 1,57,-1
 171 518 l 1,58,-1
 191 533 l 2,59,60
 406 695 406 695 616 678 c 128,-1,61
 826 661 826 661 1036 609 c 0,62,63
 1228 561 1228 561 1419 544 c 128,-1,64
 1610 527 1610 527 1797 667 c 1,65,-1
 1877 728 l 1,66,-1
 1877 627 l 1,45,-1
EndSplineSet
Validated: 33
EndChar

StartChar: uniED59
Encoding: 60761 60761 49
Width: 2014
Flags: W
LayerCount: 2
Fore
SplineSet
1811 884 m 1,0,1
 1766 785 1766 785 1637 721.5 c 128,-1,2
 1508 658 1508 658 1341 658 c 0,3,4
 1139 658 1139 658 996 749.5 c 128,-1,5
 853 841 853 841 853 970 c 0,6,7
 853 1034 853 1034 894 1094 c 1,8,9
 793 1174 793 1174 793 1274 c 0,10,11
 793 1336 793 1336 837 1395 c 1,12,13
 722 1476 722 1476 722 1577 c 0,14,15
 722 1684 722 1684 846.5 1766.5 c 128,-1,16
 971 1849 971 1849 1163 1877 c 1,17,18
 1060 1839 1060 1839 998.5 1780 c 128,-1,19
 937 1721 937 1721 937 1652 c 0,20,21
 937 1538 937 1538 1095.5 1457 c 128,-1,22
 1254 1376 1254 1376 1479 1376 c 0,23,24
 1758 1376 1758 1376 1919 1491 c 1,25,26
 1864 1393 1864 1393 1702.5 1329 c 128,-1,27
 1541 1265 1541 1265 1332 1265 c 0,28,29
 1144 1265 1144 1265 990 1319 c 1,30,31
 1009 1214 1009 1214 1147.5 1143 c 128,-1,32
 1286 1072 1286 1072 1475 1072 c 0,33,34
 1726 1072 1726 1072 1871 1187 c 1,35,36
 1821 1089 1821 1089 1676 1025.5 c 128,-1,37
 1531 962 1531 962 1343 962 c 0,38,39
 1171 962 1171 962 1027 1018 c 1,40,41
 1042 913 1042 913 1166 840.5 c 128,-1,42
 1290 768 1290 768 1459 768 c 0,43,44
 1681 768 1681 768 1811 884 c 1,0,1
171 394 m 1,45,-1
 171 631 l 1,46,-1
 1877 631 l 1,47,-1
 1877 394 l 1,48,-1
 171 394 l 1,45,-1
EndSplineSet
Validated: 1
EndChar

StartChar: uniED5A
Encoding: 60762 60762 50
Width: 1970
Flags: W
LayerCount: 2
Fore
SplineSet
171 171 m 1,0,-1
 171 512 l 1,1,-1
 787 787 l 1,2,-1
 836 787 l 1,3,-1
 915 707 l 1,4,-1
 844 636 l 1,5,-1
 1074 552 l 1,6,-1
 898 429 l 1,7,-1
 1130 314 l 1,8,-1
 1090 411 l 1,9,-1
 1305 592 l 1,10,-1
 1097 666 l 1,11,-1
 1210 787 l 1,12,-1
 1261 787 l 1,13,-1
 1877 512 l 1,14,-1
 1877 171 l 1,15,-1
 171 171 l 1,0,-1
999 773 m 1,16,-1
 921 773 l 1,17,-1
 783 913 l 1,18,-1
 861 913 l 1,19,-1
 999 773 l 1,16,-1
722 975 m 1,20,-1
 584 1114 l 1,21,-1
 662 1114 l 1,22,-1
 799 975 l 1,23,-1
 722 975 l 1,20,-1
1049 773 m 1,24,-1
 1187 913 l 1,25,-1
 1265 913 l 1,26,-1
 1127 773 l 1,27,-1
 1049 773 l 1,24,-1
1326 975 m 1,28,-1
 1249 975 l 1,29,-1
 1386 1114 l 1,30,-1
 1464 1114 l 1,31,-1
 1326 975 l 1,28,-1
758 1175 m 1,32,33
 716 1161 716 1161 670 1161 c 0,34,35
 563 1161 563 1161 488 1227.5 c 128,-1,36
 413 1294 413 1294 413 1389 c 0,37,38
 413 1468 413 1468 467.5 1529 c 128,-1,39
 522 1590 522 1590 605 1610 c 1,40,41
 613 1722 613 1722 706.5 1800.5 c 128,-1,42
 800 1879 800 1879 929 1879 c 0,43,44
 1124 1879 1124 1879 1217 1725 c 1,45,46
 1260 1737 1260 1737 1310 1737 c 0,47,48
 1445 1737 1445 1737 1540 1652.5 c 128,-1,49
 1635 1568 1635 1568 1635 1449 c 0,50,51
 1635 1329 1635 1329 1540 1245 c 128,-1,52
 1445 1161 1445 1161 1310 1161 c 0,53,54
 1270 1161 1270 1161 1225 1171 c 1,55,56
 1127 1109 1127 1109 994 1109 c 0,57,58
 856 1109 856 1109 758 1175 c 1,32,33
EndSplineSet
Validated: 1
EndChar

StartChar: uniED63
Encoding: 60771 60771 51
Width: 1970
Flags: W
LayerCount: 2
Fore
SplineSet
652 895 m 1,0,1
 596 876 596 876 530 876 c 0,2,3
 381 876 381 876 276 969 c 128,-1,4
 171 1062 171 1062 171 1194 c 0,5,6
 171 1305 171 1305 247 1390 c 128,-1,7
 323 1475 323 1475 439 1502 c 1,8,9
 450 1658 450 1658 580.5 1767.5 c 128,-1,10
 711 1877 711 1877 892 1877 c 0,11,12
 1022 1877 1022 1877 1129 1817.5 c 128,-1,13
 1236 1758 1236 1758 1293 1662 c 1,14,15
 1357 1679 1357 1679 1424 1679 c 0,16,17
 1611 1679 1611 1679 1744 1561 c 128,-1,18
 1877 1443 1877 1443 1877 1277 c 0,19,20
 1877 1110 1877 1110 1744 993 c 128,-1,21
 1611 876 1611 876 1424 876 c 0,22,23
 1356 876 1356 876 1305 890 c 1,24,25
 1168 803 1168 803 982 803 c 0,26,27
 789 803 789 803 652 895 c 1,0,1
1488 815 m 1,28,29
 1593 765 1593 765 1593 705 c 0,30,31
 1593 649 1593 649 1501 603 c 1,32,33
 1536 569 1536 569 1536 534 c 0,34,35
 1536 476 1536 476 1450 429 c 1,36,37
 1479 396 1479 396 1479 362 c 0,38,39
 1479 284 1479 284 1345.5 228.5 c 128,-1,40
 1212 173 1212 173 1024 173 c 0,41,42
 835 173 835 173 702 228.5 c 128,-1,43
 569 284 569 284 569 362 c 0,44,45
 569 396 569 396 598 429 c 1,46,47
 512 476 512 476 512 534 c 0,48,49
 512 569 512 569 547 603 c 1,50,51
 455 649 455 649 455 705 c 0,52,53
 455 779 455 779 607 834 c 1,54,55
 760 733 760 733 977 733 c 0,56,57
 1188 733 1188 733 1341 831 c 1,58,59
 1403 815 1403 815 1476 815 c 0,60,61
 1479 815 1479 815 1482 815 c 128,-1,62
 1485 815 1485 815 1488 815 c 1,28,29
EndSplineSet
Validated: 1
EndChar

StartChar: uniED6D
Encoding: 60781 60781 52
Width: 1970
Flags: W
LayerCount: 2
Fore
SplineSet
515 1173 m 1,0,1
 476 1160 476 1160 428 1160 c 0,2,3
 321 1160 321 1160 246 1226.5 c 128,-1,4
 171 1293 171 1293 171 1388 c 0,5,6
 171 1467 171 1467 225.5 1528 c 128,-1,7
 280 1589 280 1589 363 1608 c 1,8,9
 371 1720 371 1720 464.5 1798.5 c 128,-1,10
 558 1877 558 1877 687 1877 c 0,11,12
 884 1877 884 1877 975 1723 c 1,13,14
 1018 1735 1018 1735 1068 1735 c 0,15,16
 1202 1735 1202 1735 1297.5 1650.5 c 128,-1,17
 1393 1566 1393 1566 1393 1448 c 0,18,19
 1393 1446 1393 1446 1393 1445 c 128,-1,20
 1393 1444 1393 1444 1393 1443 c 1,21,22
 1282 1536 1282 1536 1130 1536 c 256,23,24
 978 1536 978 1536 868.5 1444 c 128,-1,25
 759 1352 759 1352 750 1220 c 1,26,27
 657 1198 657 1198 596 1134 c 1,28,29
 556 1147 556 1147 515 1173 c 1,0,1
896 320 m 1,30,31
 869 255 869 255 788 213 c 128,-1,32
 707 171 707 171 602 171 c 0,33,34
 475 171 475 171 386 231 c 128,-1,35
 297 291 297 291 297 378 c 0,36,37
 297 423 297 423 322 460 c 1,38,39
 259 513 259 513 259 579 c 0,40,41
 259 620 259 620 286 660 c 1,42,43
 214 714 214 714 214 780 c 0,44,45
 214 851 214 851 292.5 905.5 c 128,-1,46
 371 960 371 960 491 979 c 1,47,48
 349 924 349 924 349 830 c 0,49,50
 349 754 349 754 448 700.5 c 128,-1,51
 547 647 547 647 688 647 c 0,52,53
 861 647 861 647 964 723 c 1,54,55
 929 658 929 658 828 616 c 128,-1,56
 727 574 727 574 596 574 c 0,57,58
 479 574 479 574 382 609 c 1,59,60
 394 540 394 540 480.5 492.5 c 128,-1,61
 567 445 567 445 685 445 c 0,62,63
 842 445 842 445 934 522 c 1,64,65
 902 456 902 456 811 414 c 128,-1,66
 720 372 720 372 603 372 c 0,67,68
 493 372 493 372 406 410 c 1,69,70
 415 340 415 340 492.5 292 c 128,-1,71
 570 244 570 244 676 244 c 0,72,73
 815 244 815 244 896 320 c 1,30,31
964 753 m 1,74,75
 924 739 924 739 873 739 c 0,76,77
 762 739 762 739 684 808 c 128,-1,78
 606 877 606 877 606 975 c 0,79,80
 606 1058 606 1058 662.5 1121 c 128,-1,81
 719 1184 719 1184 806 1205 c 1,82,83
 814 1322 814 1322 911 1403.5 c 128,-1,84
 1008 1485 1008 1485 1143 1485 c 0,85,86
 1347 1485 1347 1485 1442 1325 c 1,87,88
 1488 1337 1488 1337 1539 1337 c 0,89,90
 1679 1337 1679 1337 1778 1249 c 128,-1,91
 1877 1161 1877 1161 1877 1038 c 0,92,93
 1877 913 1877 913 1778 826 c 128,-1,94
 1679 739 1679 739 1539 739 c 0,95,96
 1491 739 1491 739 1450 749 c 1,97,98
 1349 684 1349 684 1210 684 c 0,99,100
 1065 684 1065 684 964 753 c 1,74,75
EndSplineSet
Validated: 1
EndChar

StartChar: uniED80
Encoding: 60800 60800 53
Width: 1851
Flags: W
LayerCount: 2
Fore
SplineSet
1024 46 m 5,0,-1
 878 298 l 5,1,2
 700 341 700 341 577 472 c 5,3,-1
 285 472 l 5,4,-1
 431 725 l 5,5,6
 406 810 406 810 406 899 c 4,7,8
 406 987 406 987 431 1073 c 5,9,-1
 285 1326 l 5,10,-1
 577 1326 l 5,11,12
 700 1456 700 1456 878 1500 c 5,13,-1
 1024 1752 l 5,14,-1
 1170 1500 l 5,15,16
 1347 1456 1347 1456 1471 1326 c 5,17,-1
 1763 1326 l 5,18,-1
 1617 1073 l 5,19,20
 1642 987 1642 987 1642 899 c 4,21,22
 1642 810 1642 810 1617 725 c 5,23,-1
 1763 472 l 5,24,-1
 1471 472 l 5,25,26
 1347 341 1347 341 1170 298 c 5,27,-1
 1024 46 l 5,0,-1
EndSplineSet
Validated: 1
EndChar

StartChar: uniF168
Encoding: 61800 61800 54
Width: 1344
Flags: W
LayerCount: 2
Fore
SplineSet
1024 1877 m 0,0,1
 1153 1877 1153 1877 1280 1838 c 1,2,3
 1020 1756 1020 1756 851.5 1533 c 128,-1,4
 683 1310 683 1310 683 1024 c 0,5,6
 683 737 683 737 851.5 514 c 128,-1,7
 1020 291 1020 291 1280 210 c 1,8,9
 1153 171 1153 171 1024 171 c 0,10,11
 670 171 670 171 420.5 420.5 c 128,-1,12
 171 670 171 670 171 1024 c 0,13,14
 171 1377 171 1377 420.5 1627 c 128,-1,15
 670 1877 670 1877 1024 1877 c 0,0,1
EndSplineSet
Validated: 1
EndChar

StartChar: uniED81
Encoding: 60801 60801 55
Width: 1970
Flags: W
LayerCount: 2
Fore
SplineSet
964 580 m 1,0,1
 920 566 920 566 873 566 c 0,2,3
 762 566 762 566 684 635 c 128,-1,4
 606 704 606 704 606 803 c 0,5,6
 606 886 606 886 662.5 949 c 128,-1,7
 719 1012 719 1012 806 1033 c 1,8,9
 814 1150 814 1150 911 1231.5 c 128,-1,10
 1008 1313 1008 1313 1143 1313 c 0,11,12
 1348 1313 1348 1313 1442 1152 c 1,13,14
 1486 1165 1486 1165 1539 1165 c 0,15,16
 1679 1165 1679 1165 1778 1077 c 128,-1,17
 1877 989 1877 989 1877 866 c 0,18,19
 1877 741 1877 741 1778 653.5 c 128,-1,20
 1679 566 1679 566 1539 566 c 0,21,22
 1495 566 1495 566 1450 577 c 1,23,24
 1349 512 1349 512 1210 512 c 0,25,26
 1066 512 1066 512 964 580 c 1,0,1
1083 1330 m 1,27,28
 960 1313 960 1313 875.5 1231.5 c 128,-1,29
 791 1150 791 1150 783 1039 c 1,30,31
 639 1005 639 1005 590 884 c 1,32,-1
 575 909 l 1,33,34
 458 937 458 937 374 1025 c 1,35,-1
 180 1025 l 1,36,-1
 277 1193 l 1,37,38
 261 1246 261 1246 261 1309 c 0,39,40
 261 1371 261 1371 277 1425 c 1,41,-1
 180 1593 l 1,42,-1
 374 1593 l 1,43,44
 458 1680 458 1680 575 1709 c 1,45,-1
 672 1877 l 1,46,-1
 769 1709 l 1,47,48
 887 1680 887 1680 970 1593 c 1,49,-1
 1164 1593 l 1,50,-1
 1067 1425 l 1,51,52
 1081 1374 1081 1374 1083 1330 c 1,27,28
EndSplineSet
Validated: 1
EndChar

StartChar: uniF169
Encoding: 61801 61801 56
Width: 1970
Flags: W
LayerCount: 2
Fore
SplineSet
597 1877 m 0,0,1
 661 1877 661 1877 725 1858 c 1,2,3
 595 1816 595 1816 511 1705 c 128,-1,4
 427 1594 427 1594 427 1451 c 0,5,6
 427 1307 427 1307 511 1195.5 c 128,-1,7
 595 1084 595 1084 725 1043 c 1,8,9
 661 1024 661 1024 597 1024 c 0,10,11
 420 1024 420 1024 295.5 1149 c 128,-1,12
 171 1274 171 1274 171 1451 c 0,13,14
 171 1627 171 1627 295.5 1752 c 128,-1,15
 420 1877 420 1877 597 1877 c 0,0,1
964 580 m 1,16,17
 920 566 920 566 873 566 c 0,18,19
 762 566 762 566 684 635 c 128,-1,20
 606 704 606 704 606 803 c 0,21,22
 606 886 606 886 662.5 949 c 128,-1,23
 719 1012 719 1012 806 1033 c 1,24,25
 814 1150 814 1150 911 1231.5 c 128,-1,26
 1008 1313 1008 1313 1143 1313 c 0,27,28
 1348 1313 1348 1313 1442 1152 c 1,29,30
 1486 1165 1486 1165 1539 1165 c 0,31,32
 1679 1165 1679 1165 1778 1077 c 128,-1,33
 1877 989 1877 989 1877 866 c 0,34,35
 1877 741 1877 741 1778 653.5 c 128,-1,36
 1679 566 1679 566 1539 566 c 0,37,38
 1495 566 1495 566 1450 577 c 1,39,40
 1349 512 1349 512 1210 512 c 0,41,42
 1066 512 1066 512 964 580 c 1,16,17
EndSplineSet
Validated: 1
EndChar

StartChar: uniED82
Encoding: 60802 60802 57
Width: 1980
Flags: W
LayerCount: 2
Fore
SplineSet
515 685 m 1,0,1
 473 671 473 671 428 671 c 0,2,3
 321 671 321 671 246 737.5 c 128,-1,4
 171 804 171 804 171 899 c 0,5,6
 171 978 171 978 225.5 1039 c 128,-1,7
 280 1100 280 1100 363 1119 c 1,8,9
 371 1232 371 1232 464.5 1310.5 c 128,-1,10
 558 1389 558 1389 687 1389 c 0,11,12
 883 1389 883 1389 975 1235 c 1,13,14
 1018 1247 1018 1247 1068 1247 c 0,15,16
 1202 1247 1202 1247 1297.5 1162.5 c 128,-1,17
 1393 1078 1393 1078 1393 959 c 0,18,19
 1393 958 1393 958 1393 956.5 c 128,-1,20
 1393 955 1393 955 1393 955 c 1,21,22
 1281 1047 1281 1047 1130 1047 c 0,23,24
 978 1047 978 1047 868.5 955.5 c 128,-1,25
 759 864 759 864 750 732 c 1,26,27
 656 710 656 710 596 645 c 1,28,29
 549 662 549 662 515 685 c 1,0,1
1531 1037 m 1,30,-1
 1461 1159 l 1,31,32
 1378 1178 1378 1178 1316 1242 c 1,33,-1
 1176 1242 l 1,34,-1
 1246 1364 l 1,35,36
 1234 1403 1234 1403 1234 1447 c 0,37,38
 1234 1490 1234 1490 1246 1531 c 1,39,-1
 1176 1653 l 1,40,-1
 1316 1653 l 1,41,42
 1378 1716 1378 1716 1461 1736 c 1,43,-1
 1531 1858 l 1,44,-1
 1601 1736 l 1,45,46
 1685 1716 1685 1716 1746 1653 c 1,47,-1
 1886 1653 l 1,48,-1
 1816 1531 l 1,49,50
 1828 1490 1828 1490 1828 1447 c 0,51,52
 1828 1403 1828 1403 1816 1364 c 1,53,-1
 1886 1242 l 1,54,-1
 1746 1242 l 1,55,56
 1685 1178 1685 1178 1601 1159 c 1,57,-1
 1531 1037 l 1,30,-1
964 264 m 1,58,59
 920 250 920 250 873 250 c 0,60,61
 762 250 762 250 684 319 c 128,-1,62
 606 388 606 388 606 487 c 0,63,64
 606 569 606 569 662.5 632.5 c 128,-1,65
 719 696 719 696 806 716 c 1,66,67
 814 833 814 833 911 914.5 c 128,-1,68
 1008 996 1008 996 1143 996 c 0,69,70
 1347 996 1347 996 1442 836 c 1,71,72
 1492 849 1492 849 1539 849 c 0,73,74
 1679 849 1679 849 1778 761 c 128,-1,75
 1877 673 1877 673 1877 549 c 256,76,77
 1877 425 1877 425 1778 337.5 c 128,-1,78
 1679 250 1679 250 1539 250 c 0,79,80
 1491 250 1491 250 1450 260 c 1,81,82
 1350 196 1350 196 1210 196 c 0,83,84
 1066 196 1066 196 964 264 c 1,58,59
EndSplineSet
Validated: 1
EndChar

StartChar: uniF16A
Encoding: 61802 61802 58
Width: 1970
Flags: W
LayerCount: 2
Fore
SplineSet
515 685 m 1,0,1
 473 671 473 671 428 671 c 0,2,3
 321 671 321 671 246 737.5 c 128,-1,4
 171 804 171 804 171 899 c 0,5,6
 171 978 171 978 225.5 1039 c 128,-1,7
 280 1100 280 1100 363 1119 c 1,8,9
 371 1232 371 1232 464.5 1310.5 c 128,-1,10
 558 1389 558 1389 687 1389 c 0,11,12
 883 1389 883 1389 975 1235 c 1,13,14
 1018 1247 1018 1247 1068 1247 c 0,15,16
 1202 1247 1202 1247 1297.5 1162.5 c 128,-1,17
 1393 1078 1393 1078 1393 959 c 0,18,19
 1393 958 1393 958 1393 956.5 c 128,-1,20
 1393 955 1393 955 1393 955 c 1,21,22
 1281 1047 1281 1047 1130 1047 c 0,23,24
 978 1047 978 1047 868.5 955.5 c 128,-1,25
 759 864 759 864 750 732 c 1,26,27
 656 710 656 710 596 645 c 1,28,29
 549 662 549 662 515 685 c 1,0,1
1749 1877 m 0,30,31
 1813 1877 1813 1877 1877 1858 c 1,32,33
 1747 1816 1747 1816 1663 1705 c 128,-1,34
 1579 1594 1579 1594 1579 1451 c 0,35,36
 1579 1307 1579 1307 1663 1195.5 c 128,-1,37
 1747 1084 1747 1084 1877 1043 c 1,38,39
 1813 1024 1813 1024 1749 1024 c 0,40,41
 1572 1024 1572 1024 1447.5 1149 c 128,-1,42
 1323 1274 1323 1274 1323 1451 c 0,43,44
 1323 1627 1323 1627 1447.5 1752 c 128,-1,45
 1572 1877 1572 1877 1749 1877 c 0,30,31
964 264 m 1,46,47
 920 250 920 250 873 250 c 0,48,49
 762 250 762 250 684 319 c 128,-1,50
 606 388 606 388 606 487 c 0,51,52
 606 569 606 569 662.5 632.5 c 128,-1,53
 719 696 719 696 806 716 c 1,54,55
 814 833 814 833 911 914.5 c 128,-1,56
 1008 996 1008 996 1143 996 c 0,57,58
 1347 996 1347 996 1442 836 c 1,59,60
 1492 849 1492 849 1539 849 c 0,61,62
 1679 849 1679 849 1778 761 c 128,-1,63
 1877 673 1877 673 1877 549 c 256,64,65
 1877 425 1877 425 1778 337.5 c 128,-1,66
 1679 250 1679 250 1539 250 c 0,67,68
 1491 250 1491 250 1450 260 c 1,69,70
 1350 196 1350 196 1210 196 c 0,71,72
 1066 196 1066 196 964 264 c 1,46,47
EndSplineSet
Validated: 1
EndChar

StartChar: uniED83
Encoding: 60803 60803 59
Width: 1970
Flags: W
LayerCount: 2
Fore
SplineSet
515 917 m 1,0,1
 473 903 473 903 428 903 c 0,2,3
 321 903 321 903 246 969.5 c 128,-1,4
 171 1036 171 1036 171 1131 c 0,5,6
 171 1210 171 1210 225.5 1271 c 128,-1,7
 280 1332 280 1332 363 1351 c 1,8,9
 371 1464 371 1464 464.5 1542 c 128,-1,10
 558 1620 558 1620 687 1620 c 0,11,12
 884 1620 884 1620 975 1467 c 1,13,14
 1024 1479 1024 1479 1068 1479 c 0,15,16
 1202 1479 1202 1479 1297.5 1394.5 c 128,-1,17
 1393 1310 1393 1310 1393 1191 c 0,18,19
 1393 1189 1393 1189 1393 1188 c 128,-1,20
 1393 1187 1393 1187 1393 1186 c 1,21,22
 1282 1279 1282 1279 1130 1279 c 256,23,24
 978 1279 978 1279 868.5 1187.5 c 128,-1,25
 759 1096 759 1096 750 964 c 1,26,27
 655 940 655 940 596 877 c 1,28,29
 549 894 549 894 515 917 c 1,0,1
964 496 m 1,30,31
 920 482 920 482 873 482 c 0,32,33
 762 482 762 482 684 551 c 128,-1,34
 606 620 606 620 606 719 c 0,35,36
 606 801 606 801 662.5 864.5 c 128,-1,37
 719 928 719 928 806 948 c 1,38,39
 814 1065 814 1065 911 1146.5 c 128,-1,40
 1008 1228 1008 1228 1143 1228 c 0,41,42
 1347 1228 1347 1228 1442 1068 c 1,43,44
 1488 1080 1488 1080 1539 1080 c 0,45,46
 1679 1080 1679 1080 1778 992.5 c 128,-1,47
 1877 905 1877 905 1877 781 c 256,48,49
 1877 657 1877 657 1778 569.5 c 128,-1,50
 1679 482 1679 482 1539 482 c 0,51,52
 1491 482 1491 482 1450 492 c 1,53,54
 1350 428 1350 428 1210 428 c 0,55,56
 1066 428 1066 428 964 496 c 1,30,31
EndSplineSet
Validated: 1
EndChar

StartChar: uniED84
Encoding: 60804 60804 60
Width: 1970
Flags: W
LayerCount: 2
Fore
SplineSet
652 578 m 1,0,1
 595 560 595 560 530 560 c 0,2,3
 381 560 381 560 276 653 c 128,-1,4
 171 746 171 746 171 878 c 0,5,6
 171 988 171 988 247 1073 c 128,-1,7
 323 1158 323 1158 439 1185 c 1,8,9
 450 1342 450 1342 580.5 1451.5 c 128,-1,10
 711 1561 711 1561 892 1561 c 0,11,12
 1022 1561 1022 1561 1129 1501.5 c 128,-1,13
 1236 1442 1236 1442 1293 1346 c 1,14,15
 1357 1363 1357 1363 1424 1363 c 0,16,17
 1611 1363 1611 1363 1744 1245 c 128,-1,18
 1877 1127 1877 1127 1877 961 c 0,19,20
 1877 794 1877 794 1744 677 c 128,-1,21
 1611 560 1611 560 1424 560 c 0,22,23
 1358 560 1358 560 1305 573 c 1,24,25
 1167 487 1167 487 982 487 c 0,26,27
 790 487 790 487 652 578 c 1,0,1
EndSplineSet
Validated: 1
EndChar

StartChar: uniEDE4
Encoding: 60900 60900 61
Width: 1970
Flags: W
LayerCount: 2
Fore
SplineSet
1024 171 m 1,0,1
 1057 524 1057 524 928 715 c 128,-1,2
 799 906 799 906 630.5 1057.5 c 128,-1,3
 462 1209 462 1209 316.5 1383 c 128,-1,4
 171 1557 171 1557 171 1877 c 1,5,-1
 1877 1877 l 1,6,7
 1841 1766 1841 1766 1830.5 1723 c 128,-1,8
 1820 1680 1820 1680 1725 1604 c 0,9,10
 1464 1396 1464 1396 1449.5 1316 c 128,-1,11
 1435 1236 1435 1236 1453.5 1132.5 c 128,-1,12
 1472 1029 1472 1029 1417.5 826.5 c 128,-1,13
 1363 624 1363 624 1024 171 c 1,0,1
EndSplineSet
Validated: 33
EndChar

StartChar: uniEDE5
Encoding: 60901 60901 62
Width: 1677
Flags: W
LayerCount: 2
Fore
SplineSet
1024 1598 m 0,0,1
 1261 1598 1261 1598 1429.5 1429.5 c 128,-1,2
 1598 1261 1598 1261 1598 1024 c 0,3,4
 1598 922 1598 922 1562 825 c 1,5,6
 1568 784 1568 784 1568 743 c 0,7,8
 1568 506 1568 506 1400.5 338.5 c 128,-1,9
 1233 171 1233 171 996 171 c 0,10,11
 906 171 906 171 824 197 c 1,12,13
 1039 264 1039 264 1152 464 c 1,14,15
 1088 450 1088 450 1024 450 c 0,16,17
 786 450 786 450 618 618 c 128,-1,18
 450 786 450 786 450 1024 c 0,19,20
 450 1125 450 1125 486 1223 c 1,21,22
 480 1263 480 1263 480 1305 c 0,23,24
 480 1542 480 1542 647.5 1709.5 c 128,-1,25
 815 1877 815 1877 1052 1877 c 0,26,27
 1141 1877 1141 1877 1224 1851 c 1,28,29
 1008 1783 1008 1783 896 1584 c 1,30,31
 959 1598 959 1598 1024 1598 c 0,0,1
1024 1278 m 256,32,33
 919 1278 919 1278 844.5 1203.5 c 128,-1,34
 770 1129 770 1129 770 1024 c 256,35,36
 770 919 770 919 844.5 844.5 c 128,-1,37
 919 770 919 770 1024 770 c 256,38,39
 1129 770 1129 770 1203.5 844.5 c 128,-1,40
 1278 919 1278 919 1278 1024 c 256,41,42
 1278 1129 1278 1129 1203.5 1203.5 c 128,-1,43
 1129 1278 1129 1278 1024 1278 c 256,32,33
EndSplineSet
Validated: 1
EndChar

StartChar: uniEDE6
Encoding: 60902 60902 63
Width: 1970
Flags: W
LayerCount: 2
Fore
SplineSet
450 1039 m 1,0,-1
 450 1039 l 1,1,2
 450 1042 450 1042 450.5 1046 c 128,-1,3
 451 1050 451 1050 451 1053 c 1,4,-1
 451 1053 l 1,5,6
 451 1063 451 1063 452 1068 c 1,7,-1
 452 1068 l 1,8,9
 452 1071 452 1071 452.5 1075 c 128,-1,10
 453 1079 453 1079 453 1082 c 2,11,-1
 453 1083 l 2,12,13
 453 1086 453 1086 453.5 1089.5 c 128,-1,14
 454 1093 454 1093 455 1096 c 1,15,-1
 455 1098 l 2,16,17
 455 1102 455 1102 457 1110 c 1,18,-1
 457 1112 l 1,19,20
 454 1100 454 1100 459 1125 c 1,21,-1
 459 1126 l 2,22,23
 459 1129 459 1129 460 1132 c 128,-1,24
 461 1135 461 1135 462 1138 c 1,25,26
 462 1138 462 1138 462 1139 c 128,-1,27
 462 1140 462 1140 462 1141 c 0,28,29
 464 1149 464 1149 464 1152 c 1,30,31
 465 1153 465 1153 465 1155 c 0,32,33
 465 1158 465 1158 466 1160.5 c 128,-1,34
 467 1163 467 1163 468 1166 c 0,35,36
 468 1168 468 1168 469 1169 c 1,37,38
 469 1171 469 1171 469.5 1173.5 c 128,-1,39
 470 1176 470 1176 471 1179 c 0,40,41
 472 1180 472 1180 472 1183 c 0,42,43
 472 1185 472 1185 473 1187 c 128,-1,44
 474 1189 474 1189 475 1192 c 0,45,46
 475 1193 475 1193 475.5 1194 c 128,-1,47
 476 1195 476 1195 477 1197 c 0,48,49
 477 1199 477 1199 478 1201 c 128,-1,50
 479 1203 479 1203 480 1206 c 2,51,52
 480 1206 480 1206 480.5 1207.5 c 128,-1,53
 481 1209 481 1209 481 1210 c 0,54,55
 481 1212 481 1212 482 1214 c 128,-1,56
 483 1216 483 1216 484 1219 c 2,57,58
 484 1219 484 1219 484.5 1220.5 c 128,-1,59
 485 1222 485 1222 486 1223 c 1,60,-1
 486 1223 l 1,61,62
 480 1263 480 1263 480 1305 c 0,63,64
 480 1542 480 1542 647.5 1709.5 c 128,-1,65
 815 1877 815 1877 1052 1877 c 0,66,67
 1141 1877 1141 1877 1224 1851 c 1,68,69
 1008 1783 1008 1783 896 1584 c 1,70,-1
 896 1584 l 1,71,72
 899 1584 899 1584 907 1586 c 0,73,74
 909 1586 909 1586 910 1587 c 1,75,76
 913 1587 913 1587 921 1589 c 1,77,78
 921 1589 921 1589 922 1589 c 128,-1,79
 923 1589 923 1589 924 1589 c 0,80,81
 927 1589 927 1589 930 1589.5 c 128,-1,82
 933 1590 933 1590 936 1591 c 1,83,84
 936 1591 936 1591 936.5 1591 c 128,-1,85
 937 1591 937 1591 938 1592 c 1,86,87
 941 1592 941 1592 944 1592.5 c 128,-1,88
 947 1593 947 1593 950 1593 c 2,89,-1
 952 1593 l 2,90,91
 955 1593 955 1593 958.5 1593.5 c 128,-1,92
 962 1594 962 1594 965 1595 c 1,93,-1
 966 1595 l 2,94,95
 969 1595 969 1595 972.5 1595.5 c 128,-1,96
 976 1596 976 1596 980 1596 c 1,97,-1
 980 1596 l 1,98,99
 985 1597 985 1597 994 1597 c 2,100,-1
 995 1597 l 2,101,102
 998 1597 998 1597 1001.5 1597.5 c 128,-1,103
 1005 1598 1005 1598 1009 1598 c 1,104,-1
 1009 1598 l 1,105,106
 1012 1598 1012 1598 1016 1598 c 128,-1,107
 1020 1598 1020 1598 1024 1598 c 1,108,-1
 1024 1598 l 1,109,110
 1027 1598 1027 1598 1031 1598 c 128,-1,111
 1035 1598 1035 1598 1039 1598 c 1,112,-1
 1039 1598 l 1,113,114
 1042 1598 1042 1598 1046 1597.5 c 128,-1,115
 1050 1597 1050 1597 1053 1597 c 1,116,-1
 1053 1597 l 1,117,118
 1063 1597 1063 1597 1068 1596 c 1,119,-1
 1068 1596 l 1,120,121
 1071 1596 1071 1596 1075 1595.5 c 128,-1,122
 1079 1595 1079 1595 1082 1595 c 2,123,-1
 1083 1595 l 1,124,125
 1086 1594 1086 1594 1089.5 1593.5 c 128,-1,126
 1093 1593 1093 1593 1096 1593 c 2,127,-1
 1098 1593 l 2,128,129
 1101 1593 1101 1593 1111 1591 c 1,130,-1
 1112 1591 l 1,131,132
 1100 1594 1100 1594 1125 1589 c 1,133,-1
 1126 1589 l 1,134,135
 1129 1588 1129 1588 1132 1587 c 128,-1,136
 1135 1586 1135 1586 1138 1586 c 2,137,138
 1138 1586 1138 1586 1139 1586 c 128,-1,139
 1140 1586 1140 1586 1141 1586 c 0,140,141
 1149 1584 1149 1584 1152 1584 c 2,142,-1
 1155 1583 l 2,143,144
 1158 1582 1158 1582 1160.5 1581 c 128,-1,145
 1163 1580 1163 1580 1166 1580 c 0,146,147
 1168 1580 1168 1580 1169 1579 c 0,148,149
 1171 1578 1171 1578 1173.5 1577.5 c 128,-1,150
 1176 1577 1176 1577 1179 1577 c 1,151,152
 1180 1576 1180 1576 1183 1576 c 0,153,154
 1189 1574 1189 1574 1193 1573 c 2,155,156
 1193 1573 1193 1573 1197 1571 c 0,157,158
 1199 1570 1199 1570 1201 1569 c 128,-1,159
 1203 1568 1203 1568 1206 1568 c 0,160,161
 1207 1568 1207 1568 1208 1567.5 c 128,-1,162
 1209 1567 1209 1567 1210 1567 c 0,163,164
 1212 1566 1212 1566 1214 1565 c 128,-1,165
 1216 1564 1216 1564 1219 1564 c 1,166,167
 1219 1563 1219 1563 1220.5 1562.5 c 128,-1,168
 1222 1562 1222 1562 1223 1562 c 1,169,-1
 1223 1562 l 1,170,171
 1263 1568 1263 1568 1305 1568 c 0,172,173
 1542 1568 1542 1568 1709.5 1400.5 c 128,-1,174
 1877 1233 1877 1233 1877 996 c 0,175,176
 1877 906 1877 906 1851 824 c 1,177,178
 1783 1039 1783 1039 1584 1152 c 1,179,180
 1584 1149 1584 1149 1586 1141 c 0,181,182
 1586 1139 1586 1139 1587 1138 c 1,183,184
 1587 1133 1587 1133 1589 1127 c 1,185,-1
 1589 1124 l 2,186,187
 1589 1121 1589 1121 1589.5 1118 c 128,-1,188
 1590 1115 1590 1115 1591 1112 c 2,189,-1
 1592 1110 l 1,190,191
 1592 1107 1592 1107 1592.5 1104 c 128,-1,192
 1593 1101 1593 1101 1593 1098 c 2,193,-1
 1593 1096 l 2,194,195
 1593 1093 1593 1093 1593.5 1089.5 c 128,-1,196
 1594 1086 1594 1086 1595 1083 c 1,197,-1
 1595 1082 l 2,198,199
 1595 1078 1595 1078 1595.5 1074.5 c 128,-1,200
 1596 1071 1596 1071 1596 1068 c 1,201,-1
 1596 1068 l 1,202,203
 1597 1063 1597 1063 1597 1054 c 2,204,-1
 1597 1053 l 2,205,206
 1597 1049 1597 1049 1597.5 1045.5 c 128,-1,207
 1598 1042 1598 1042 1598 1039 c 1,208,-1
 1598 1039 l 1,209,210
 1598 1035 1598 1035 1598 1031 c 128,-1,211
 1598 1027 1598 1027 1598 1024 c 1,212,-1
 1598 1024 l 1,213,214
 1598 1020 1598 1020 1598 1016.5 c 128,-1,215
 1598 1013 1598 1013 1598 1010 c 2,216,-1
 1598 1009 l 2,217,218
 1598 1005 1598 1005 1597.5 1001.5 c 128,-1,219
 1597 998 1597 998 1597 995 c 2,220,-1
 1597 994 l 2,221,222
 1597 985 1597 985 1596 980 c 1,223,-1
 1596 980 l 1,224,225
 1596 976 1596 976 1595.5 972.5 c 128,-1,226
 1595 969 1595 969 1595 966 c 2,227,-1
 1595 965 l 1,228,229
 1594 962 1594 962 1593.5 958.5 c 128,-1,230
 1593 955 1593 955 1593 952 c 2,231,-1
 1593 950 l 2,232,233
 1593 946 1593 946 1591 938 c 1,234,-1
 1591 936 l 1,235,236
 1590 933 1590 933 1589.5 930 c 128,-1,237
 1589 927 1589 927 1589 924 c 2,238,-1
 1589 921 l 1,239,240
 1588 918 1588 918 1586 910 c 0,241,242
 1586 909 1586 909 1586 908 c 128,-1,243
 1586 907 1586 907 1586 907 c 1,244,245
 1584 899 1584 899 1584 896 c 1,246,247
 1583 895 1583 895 1583 893 c 0,248,249
 1582 890 1582 890 1581 887.5 c 128,-1,250
 1580 885 1580 885 1580 882 c 0,251,252
 1580 880 1580 880 1579 879 c 0,253,254
 1578 876 1578 876 1577.5 873.5 c 128,-1,255
 1577 871 1577 871 1577 869 c 1,256,257
 1576 868 1576 868 1576 865 c 0,258,259
 1575 862 1575 862 1574 860 c 128,-1,260
 1573 858 1573 858 1573 856 c 0,261,262
 1572 854 1572 854 1571.5 853 c 128,-1,263
 1571 852 1571 852 1571 851 c 0,264,265
 1570 848 1570 848 1569 846 c 128,-1,266
 1568 844 1568 844 1568 842 c 0,267,268
 1568 841 1568 841 1567.5 839.5 c 128,-1,269
 1567 838 1567 838 1567 838 c 2,270,271
 1566 835 1566 835 1565 833 c 128,-1,272
 1564 831 1564 831 1564 829 c 1,273,274
 1563 828 1563 828 1562.5 826.5 c 128,-1,275
 1562 825 1562 825 1562 825 c 1,276,277
 1568 784 1568 784 1568 743 c 0,278,279
 1568 506 1568 506 1400.5 338.5 c 128,-1,280
 1233 171 1233 171 996 171 c 0,281,282
 906 171 906 171 824 197 c 1,283,284
 1039 264 1039 264 1152 464 c 1,285,286
 1149 464 1149 464 1141 462 c 0,287,288
 1139 462 1139 462 1138 461 c 1,289,290
 1135 461 1135 461 1127 459 c 0,291,292
 1126 459 1126 459 1125 459 c 128,-1,293
 1124 459 1124 459 1124 459 c 1,294,295
 1121 458 1121 458 1118 457.5 c 128,-1,296
 1115 457 1115 457 1112 457 c 1,297,-1
 1110 456 l 1,298,299
 1107 456 1107 456 1104 455.5 c 128,-1,300
 1101 455 1101 455 1098 455 c 2,301,-1
 1096 455 l 1,302,303
 1093 454 1093 454 1089.5 453.5 c 128,-1,304
 1086 453 1086 453 1083 453 c 2,305,-1
 1082 453 l 2,306,307
 1078 453 1078 453 1074.5 452.5 c 128,-1,308
 1071 452 1071 452 1068 452 c 1,309,-1
 1068 452 l 1,310,311
 1063 451 1063 451 1054 451 c 2,312,-1
 1053 451 l 2,313,314
 1049 451 1049 451 1045.5 450.5 c 128,-1,315
 1042 450 1042 450 1039 450 c 1,316,-1
 1039 450 l 1,317,318
 1035 450 1035 450 1031 450 c 128,-1,319
 1027 450 1027 450 1024 450 c 1,320,-1
 1024 450 l 1,321,322
 1020 450 1020 450 1016.5 450 c 128,-1,323
 1013 450 1013 450 1010 450 c 2,324,-1
 1009 450 l 2,325,326
 1005 450 1005 450 1001.5 450.5 c 128,-1,327
 998 451 998 451 995 451 c 2,328,-1
 994 451 l 2,329,330
 985 451 985 451 980 452 c 1,331,-1
 980 452 l 1,332,333
 976 452 976 452 972.5 452.5 c 128,-1,334
 969 453 969 453 966 453 c 2,335,-1
 965 453 l 2,336,337
 962 453 962 453 958.5 453.5 c 128,-1,338
 955 454 955 454 952 455 c 1,339,-1
 950 455 l 2,340,341
 946 455 946 455 938 457 c 1,342,-1
 936 457 l 2,343,344
 933 457 933 457 930 457.5 c 128,-1,345
 927 458 927 458 924 459 c 1,346,-1
 921 459 l 1,347,348
 915 461 915 461 910 461 c 1,349,350
 909 462 909 462 907 462 c 0,351,352
 899 464 899 464 896 464 c 1,353,354
 895 465 895 465 893 465 c 0,355,356
 890 465 890 465 887.5 466 c 128,-1,357
 885 467 885 467 882 468 c 0,358,359
 880 468 880 468 879 469 c 1,360,361
 876 469 876 469 873.5 469.5 c 128,-1,362
 871 470 871 470 869 471 c 0,363,364
 868 472 868 472 865 472 c 256,365,366
 862 472 862 472 860 473 c 128,-1,367
 858 474 858 474 856 475 c 0,368,369
 854 475 854 475 853 475.5 c 128,-1,370
 852 476 852 476 851 477 c 1,371,372
 848 477 848 477 846 478 c 128,-1,373
 844 479 844 479 842 480 c 0,374,375
 841 480 841 480 839.5 480.5 c 128,-1,376
 838 481 838 481 837 481 c 0,377,378
 835 482 835 482 829 484 c 0,379,380
 828 484 828 484 826.5 484.5 c 128,-1,381
 825 485 825 485 825 486 c 1,382,383
 784 480 784 480 743 480 c 0,384,385
 506 480 506 480 338.5 647.5 c 128,-1,386
 171 815 171 815 171 1052 c 0,387,388
 171 1141 171 1141 197 1224 c 1,389,390
 264 1008 264 1008 464 896 c 1,391,-1
 464 896 l 1,392,393
 464 899 464 899 462 907 c 0,394,395
 462 909 462 909 461 910 c 1,396,397
 461 913 461 913 459 921 c 1,398,399
 459 921 459 921 459 922 c 128,-1,400
 459 923 459 923 459 924 c 0,401,402
 454 944 454 944 457 935 c 1,403,404
 457 937 457 937 456 938 c 1,405,406
 456 941 456 941 455.5 944 c 128,-1,407
 455 947 455 947 455 950 c 2,408,-1
 455 952 l 1,409,410
 454 955 454 955 453.5 958.5 c 128,-1,411
 453 962 453 962 453 965 c 2,412,-1
 453 966 l 2,413,414
 453 969 453 969 452.5 972.5 c 128,-1,415
 452 976 452 976 452 980 c 1,416,-1
 452 980 l 1,417,418
 451 985 451 985 451 994 c 2,419,-1
 451 995 l 2,420,421
 451 998 451 998 450.5 1001.5 c 128,-1,422
 450 1005 450 1005 450 1009 c 1,423,-1
 450 1009 l 1,424,425
 450 1012 450 1012 450 1016 c 128,-1,426
 450 1020 450 1020 450 1024 c 1,427,-1
 450 1024 l 1,428,429
 450 1027 450 1027 450 1031 c 128,-1,430
 450 1035 450 1035 450 1039 c 1,0,-1
1024 1278 m 0,431,432
 1022 1278 1022 1278 1020.5 1278 c 128,-1,433
 1019 1278 1019 1278 1017 1278 c 1,434,-1
 1017 1278 l 1,435,436
 1015 1278 1015 1278 1013.5 1278 c 128,-1,437
 1012 1278 1012 1278 1011 1278 c 1,438,-1
 1011 1278 l 1,439,440
 1007 1278 1007 1278 1005 1277 c 1,441,-1
 1005 1277 l 1,442,443
 1002 1277 1002 1277 1000.5 1277 c 128,-1,444
 999 1277 999 1277 998 1277 c 1,445,-1
 998 1277 l 1,446,447
 996 1277 996 1277 994.5 1276.5 c 128,-1,448
 993 1276 993 1276 992 1276 c 1,449,-1
 992 1276 l 1,450,451
 990 1276 990 1276 988.5 1275.5 c 128,-1,452
 987 1275 987 1275 985 1275 c 1,453,-1
 985 1275 l 1,454,455
 983 1275 983 1275 981.5 1274.5 c 128,-1,456
 980 1274 980 1274 979 1274 c 1,457,-1
 979 1274 l 1,458,459
 977 1274 977 1274 975.5 1273.5 c 128,-1,460
 974 1273 974 1273 973 1273 c 1,461,-1
 973 1273 l 1,462,463
 971 1273 971 1273 969.5 1272.5 c 128,-1,464
 968 1272 968 1272 967 1272 c 1,465,-1
 967 1272 l 1,466,467
 965 1271 965 1271 963.5 1270.5 c 128,-1,468
 962 1270 962 1270 961 1270 c 1,469,-1
 961 1270 l 1,470,471
 958 1270 958 1270 956.5 1269.5 c 128,-1,472
 955 1269 955 1269 955 1269 c 1,473,-1
 955 1269 l 1,474,475
 951 1267 951 1267 948 1267 c 1,476,-1
 948 1267 l 1,477,478
 946 1265 946 1265 942 1265 c 1,479,-1
 942 1265 l 1,480,481
 940 1263 940 1263 937 1263 c 1,482,-1
 937 1263 l 1,483,484
 933 1261 933 1261 931 1261 c 1,485,-1
 931 1261 l 1,486,487
 929 1260 929 1260 927.5 1259 c 128,-1,488
 926 1258 926 1258 925 1258 c 1,489,-1
 925 1258 l 1,490,491
 921 1256 921 1256 920 1256 c 1,492,-1
 920 1256 l 1,493,494
 918 1255 918 1255 916.5 1254 c 128,-1,495
 915 1253 915 1253 914 1253 c 1,496,-1
 914 1253 l 1,497,498
 912 1252 912 1252 910.5 1251 c 128,-1,499
 909 1250 909 1250 908 1250 c 1,500,-1
 908 1250 l 1,501,502
 906 1249 906 1249 905 1248 c 128,-1,503
 904 1247 904 1247 903 1247 c 1,504,-1
 903 1247 l 1,505,506
 899 1245 899 1245 898 1244 c 1,507,-1
 898 1244 l 1,508,509
 896 1243 896 1243 894.5 1242 c 128,-1,510
 893 1241 893 1241 892 1241 c 1,511,-1
 892 1241 l 1,512,513
 890 1240 890 1240 889 1239 c 128,-1,514
 888 1238 888 1238 887 1238 c 1,515,-1
 887 1238 l 1,516,517
 885 1237 885 1237 884 1236 c 128,-1,518
 883 1235 883 1235 882 1235 c 1,519,-1
 882 1235 l 1,520,521
 880 1234 880 1234 879 1232.5 c 128,-1,522
 878 1231 878 1231 877 1231 c 1,523,-1
 877 1231 l 1,524,525
 875 1230 875 1230 874 1229 c 128,-1,526
 873 1228 873 1228 872 1228 c 1,527,-1
 872 1228 l 1,528,529
 869 1225 869 1225 867 1224 c 1,530,-1
 867 1224 l 1,531,532
 865 1223 865 1223 864 1221.5 c 128,-1,533
 863 1220 863 1220 862 1220 c 1,534,-1
 862 1220 l 1,535,536
 858 1216 858 1216 858 1216 c 1,537,-1
 858 1216 l 1,538,539
 856 1215 856 1215 855 1213.5 c 128,-1,540
 854 1212 854 1212 853 1212 c 1,541,-1
 853 1212 l 1,542,543
 852 1211 852 1211 850.5 1209.5 c 128,-1,544
 849 1208 849 1208 849 1208 c 1,545,-1
 849 1208 l 1,546,547
 846 1205 846 1205 844 1204 c 1,548,-1
 844 1204 l 1,549,550
 843 1202 843 1202 840 1199 c 1,551,-1
 840 1199 l 1,552,553
 839 1198 839 1198 837.5 1196.5 c 128,-1,554
 836 1195 836 1195 836 1195 c 1,555,-1
 836 1195 l 1,556,557
 835 1193 835 1193 833.5 1192 c 128,-1,558
 832 1191 832 1191 832 1190 c 1,559,-1
 832 1190 l 1,560,561
 832 1190 832 1190 828 1186 c 1,562,-1
 828 1186 l 1,563,564
 827 1184 827 1184 825.5 1183 c 128,-1,565
 824 1182 824 1182 824 1181 c 1,566,-1
 824 1181 l 1,567,568
 823 1179 823 1179 820 1176 c 1,569,-1
 820 1176 l 1,570,571
 819 1174 819 1174 818 1173 c 128,-1,572
 817 1172 817 1172 817 1171 c 1,573,-1
 817 1171 l 1,574,575
 816 1169 816 1169 814.5 1168 c 128,-1,576
 813 1167 813 1167 813 1166 c 1,577,-1
 813 1166 l 1,578,579
 812 1164 812 1164 811 1163 c 128,-1,580
 810 1162 810 1162 810 1161 c 1,581,-1
 810 1161 l 1,582,583
 809 1159 809 1159 808 1158 c 128,-1,584
 807 1157 807 1157 807 1156 c 1,585,-1
 807 1156 l 1,586,587
 806 1154 806 1154 805 1152.5 c 128,-1,588
 804 1151 804 1151 804 1150 c 1,589,-1
 804 1150 l 1,590,591
 803 1149 803 1149 801 1145 c 1,592,-1
 801 1145 l 1,593,594
 800 1143 800 1143 799 1142 c 128,-1,595
 798 1141 798 1141 798 1140 c 1,596,-1
 798 1140 l 1,597,598
 797 1138 797 1138 796 1136.5 c 128,-1,599
 795 1135 795 1135 795 1134 c 1,600,-1
 795 1134 l 1,601,602
 794 1132 794 1132 793 1130.5 c 128,-1,603
 792 1129 792 1129 792 1128 c 1,604,-1
 792 1128 l 1,605,606
 792 1127 792 1127 790 1123 c 1,607,-1
 790 1123 l 1,608,609
 789 1121 789 1121 788 1119.5 c 128,-1,610
 787 1118 787 1118 787 1117 c 1,611,-1
 787 1117 l 1,612,613
 787 1115 787 1115 785 1111 c 1,614,-1
 785 1111 l 1,615,616
 785 1108 785 1108 783 1106 c 1,617,-1
 783 1106 l 1,618,619
 783 1102 783 1102 781 1100 c 1,620,-1
 781 1100 l 1,621,622
 781 1097 781 1097 779 1093 c 1,623,-1
 779 1093 l 1,624,625
 779 1092 779 1092 778.5 1090.5 c 128,-1,626
 778 1089 778 1089 778 1087 c 1,627,-1
 778 1087 l 1,628,629
 777 1085 777 1085 776.5 1083.5 c 128,-1,630
 776 1082 776 1082 776 1081 c 1,631,-1
 776 1081 l 1,632,633
 776 1079 776 1079 775.5 1077.5 c 128,-1,634
 775 1076 775 1076 775 1075 c 1,635,-1
 775 1075 l 1,636,637
 775 1073 775 1073 774.5 1071.5 c 128,-1,638
 774 1070 774 1070 774 1069 c 1,639,-1
 774 1069 l 1,640,641
 774 1067 774 1067 773.5 1065.5 c 128,-1,642
 773 1064 773 1064 773 1063 c 1,643,-1
 773 1063 l 1,644,645
 773 1060 773 1060 772.5 1058.5 c 128,-1,646
 772 1057 772 1057 772 1056 c 1,647,-1
 772 1056 l 1,648,649
 772 1054 772 1054 771.5 1052.5 c 128,-1,650
 771 1051 771 1051 771 1050 c 1,651,-1
 771 1050 l 1,652,653
 771 1048 771 1048 771 1046.5 c 128,-1,654
 771 1045 771 1045 771 1043 c 1,655,-1
 771 1043 l 1,656,657
 770 1041 770 1041 770 1037 c 1,658,-1
 770 1037 l 1,659,660
 770 1035 770 1035 770 1033.5 c 128,-1,661
 770 1032 770 1032 770 1031 c 1,662,-1
 770 1031 l 1,663,664
 770 1028 770 1028 770 1026.5 c 128,-1,665
 770 1025 770 1025 770 1024 c 0,666,667
 770 919 770 919 844.5 844.5 c 128,-1,668
 919 770 919 770 1024 770 c 0,669,670
 1025 770 1025 770 1026.5 770 c 128,-1,671
 1028 770 1028 770 1031 770 c 1,672,-1
 1031 770 l 1,673,674
 1032 770 1032 770 1033.5 770 c 128,-1,675
 1035 770 1035 770 1037 770 c 1,676,-1
 1037 770 l 1,677,678
 1041 770 1041 770 1043 771 c 1,679,-1
 1043 771 l 1,680,681
 1045 771 1045 771 1046.5 771 c 128,-1,682
 1048 771 1048 771 1050 771 c 1,683,-1
 1050 771 l 1,684,685
 1051 771 1051 771 1052.5 771.5 c 128,-1,686
 1054 772 1054 772 1056 772 c 1,687,-1
 1056 772 l 1,688,689
 1057 772 1057 772 1058.5 772.5 c 128,-1,690
 1060 773 1060 773 1063 773 c 1,691,-1
 1063 773 l 1,692,693
 1064 773 1064 773 1065.5 773.5 c 128,-1,694
 1067 774 1067 774 1069 774 c 1,695,-1
 1069 774 l 1,696,697
 1070 774 1070 774 1071.5 774.5 c 128,-1,698
 1073 775 1073 775 1075 775 c 1,699,-1
 1075 775 l 1,700,701
 1076 775 1076 775 1077.5 775.5 c 128,-1,702
 1079 776 1079 776 1081 776 c 1,703,-1
 1081 776 l 1,704,705
 1082 776 1082 776 1083.5 776.5 c 128,-1,706
 1085 777 1085 777 1087 778 c 1,707,-1
 1087 778 l 1,708,709
 1089 778 1089 778 1090.5 778.5 c 128,-1,710
 1092 779 1092 779 1093 779 c 1,711,-1
 1093 779 l 1,712,713
 1097 781 1097 781 1100 781 c 1,714,-1
 1100 781 l 1,715,716
 1102 783 1102 783 1106 783 c 1,717,-1
 1106 783 l 1,718,719
 1108 785 1108 785 1111 785 c 1,720,-1
 1111 785 l 1,721,722
 1115 787 1115 787 1117 787 c 1,723,-1
 1117 787 l 1,724,725
 1118 787 1118 787 1119.5 788 c 128,-1,726
 1121 789 1121 789 1123 790 c 1,727,-1
 1123 790 l 1,728,729
 1127 792 1127 792 1128 792 c 1,730,-1
 1128 792 l 1,731,732
 1129 792 1129 792 1130.5 793 c 128,-1,733
 1132 794 1132 794 1134 795 c 1,734,-1
 1134 795 l 1,735,736
 1135 795 1135 795 1136.5 796 c 128,-1,737
 1138 797 1138 797 1140 798 c 1,738,-1
 1140 798 l 1,739,740
 1141 798 1141 798 1142 799 c 128,-1,741
 1143 800 1143 800 1145 801 c 1,742,-1
 1145 801 l 1,743,744
 1149 803 1149 803 1150 804 c 1,745,-1
 1150 804 l 1,746,747
 1151 804 1151 804 1152.5 805 c 128,-1,748
 1154 806 1154 806 1156 807 c 1,749,-1
 1156 807 l 1,750,751
 1157 807 1157 807 1158 808 c 128,-1,752
 1159 809 1159 809 1161 810 c 1,753,-1
 1161 810 l 1,754,755
 1162 810 1162 810 1163 811 c 128,-1,756
 1164 812 1164 812 1166 813 c 1,757,-1
 1166 813 l 1,758,759
 1167 813 1167 813 1168 814.5 c 128,-1,760
 1169 816 1169 816 1171 817 c 1,761,-1
 1171 817 l 1,762,763
 1172 817 1172 817 1173 818 c 128,-1,764
 1174 819 1174 819 1176 820 c 1,765,-1
 1176 820 l 1,766,767
 1179 823 1179 823 1181 824 c 1,768,-1
 1181 824 l 1,769,770
 1182 824 1182 824 1183 825.5 c 128,-1,771
 1184 827 1184 827 1186 828 c 1,772,-1
 1186 828 l 1,773,774
 1190 832 1190 832 1190 832 c 1,775,-1
 1190 832 l 1,776,777
 1191 832 1191 832 1192 833.5 c 128,-1,778
 1193 835 1193 835 1195 836 c 1,779,-1
 1195 836 l 1,780,781
 1195 836 1195 836 1196.5 837.5 c 128,-1,782
 1198 839 1198 839 1199 840 c 1,783,-1
 1199 840 l 1,784,785
 1202 843 1202 843 1204 844 c 1,786,-1
 1204 844 l 1,787,788
 1205 846 1205 846 1208 849 c 1,789,-1
 1208 849 l 1,790,791
 1208 849 1208 849 1209.5 850.5 c 128,-1,792
 1211 852 1211 852 1212 853 c 1,793,-1
 1212 853 l 1,794,795
 1212 854 1212 854 1213.5 855 c 128,-1,796
 1215 856 1215 856 1216 858 c 1,797,-1
 1216 858 l 1,798,799
 1216 858 1216 858 1220 862 c 1,800,-1
 1220 862 l 1,801,802
 1220 863 1220 863 1221.5 864 c 128,-1,803
 1223 865 1223 865 1224 867 c 1,804,-1
 1224 867 l 1,805,806
 1225 869 1225 869 1228 872 c 1,807,-1
 1228 872 l 1,808,809
 1228 873 1228 873 1229 874 c 128,-1,810
 1230 875 1230 875 1231 877 c 1,811,-1
 1231 877 l 1,812,813
 1231 878 1231 878 1232.5 879 c 128,-1,814
 1234 880 1234 880 1235 882 c 1,815,-1
 1235 882 l 1,816,817
 1235 883 1235 883 1236 884 c 128,-1,818
 1237 885 1237 885 1238 887 c 1,819,-1
 1238 887 l 1,820,821
 1238 888 1238 888 1239 889 c 128,-1,822
 1240 890 1240 890 1241 892 c 1,823,-1
 1241 892 l 1,824,825
 1241 893 1241 893 1242 894.5 c 128,-1,826
 1243 896 1243 896 1244 898 c 1,827,-1
 1244 898 l 1,828,829
 1245 899 1245 899 1247 903 c 1,830,-1
 1247 903 l 1,831,832
 1247 904 1247 904 1248 905 c 128,-1,833
 1249 906 1249 906 1250 908 c 1,834,-1
 1250 908 l 1,835,836
 1250 909 1250 909 1251 910.5 c 128,-1,837
 1252 912 1252 912 1253 914 c 1,838,-1
 1253 914 l 1,839,840
 1253 915 1253 915 1254 916.5 c 128,-1,841
 1255 918 1255 918 1256 920 c 1,842,-1
 1256 920 l 1,843,844
 1256 921 1256 921 1258 925 c 1,845,-1
 1258 925 l 1,846,847
 1258 926 1258 926 1259 927.5 c 128,-1,848
 1260 929 1260 929 1261 931 c 1,849,-1
 1261 931 l 1,850,851
 1261 933 1261 933 1263 937 c 1,852,-1
 1263 937 l 1,853,854
 1263 940 1263 940 1265 942 c 1,855,-1
 1265 942 l 1,856,857
 1265 946 1265 946 1267 948 c 1,858,-1
 1267 948 l 1,859,860
 1267 951 1267 951 1269 955 c 1,861,-1
 1269 955 l 1,862,863
 1269 956 1269 956 1269.5 957 c 128,-1,864
 1270 958 1270 958 1270 961 c 1,865,-1
 1270 961 l 1,866,867
 1270 962 1270 962 1270.5 963.5 c 128,-1,868
 1271 965 1271 965 1272 967 c 1,869,-1
 1272 967 l 1,870,871
 1272 968 1272 968 1272.5 969.5 c 128,-1,872
 1273 971 1273 971 1273 973 c 1,873,-1
 1273 973 l 1,874,875
 1273 974 1273 974 1273.5 975.5 c 128,-1,876
 1274 977 1274 977 1274 979 c 1,877,-1
 1274 979 l 1,878,879
 1274 980 1274 980 1274.5 981.5 c 128,-1,880
 1275 983 1275 983 1275 985 c 1,881,-1
 1275 985 l 1,882,883
 1275 987 1275 987 1275.5 988.5 c 128,-1,884
 1276 990 1276 990 1276 992 c 1,885,-1
 1276 992 l 1,886,887
 1276 993 1276 993 1276.5 994.5 c 128,-1,888
 1277 996 1277 996 1277 998 c 1,889,-1
 1277 998 l 1,890,891
 1277 999 1277 999 1277 1000.5 c 128,-1,892
 1277 1002 1277 1002 1277 1005 c 1,893,-1
 1277 1005 l 1,894,895
 1278 1007 1278 1007 1278 1011 c 1,896,-1
 1278 1011 l 1,897,898
 1278 1012 1278 1012 1278 1013.5 c 128,-1,899
 1278 1015 1278 1015 1278 1017 c 1,900,-1
 1278 1017 l 1,901,902
 1278 1019 1278 1019 1278 1020.5 c 128,-1,903
 1278 1022 1278 1022 1278 1024 c 0,904,905
 1278 1129 1278 1129 1203.5 1203.5 c 128,-1,906
 1129 1278 1129 1278 1024 1278 c 0,431,432
EndSplineSet
Validated: 5
EndChar

StartChar: uniEDE7
Encoding: 60903 60903 64
Width: 1925
Flags: W
LayerCount: 2
Fore
SplineSet
661 510 m 1,0,1
 714 452 714 452 714 373 c 0,2,3
 714 289 714 289 655 230 c 128,-1,4
 596 171 596 171 512 171 c 256,5,6
 428 171 428 171 369 230 c 128,-1,7
 310 289 310 289 310 373 c 0,8,9
 310 452 310 452 363 510 c 1,10,-1
 363 1809 l 2,11,12
 363 1846 363 1846 448 1869 c 1,13,-1
 448 457 l 1,14,15
 400 423 400 423 400 365 c 0,16,17
 400 252 400 252 512 252 c 0,18,19
 625 252 625 252 625 365 c 0,20,21
 625 423 625 423 576 457 c 1,22,-1
 576 1869 l 1,23,24
 661 1846 661 1846 661 1809 c 2,25,-1
 661 510 l 1,0,1
547 787 m 1,26,-1
 547 417 l 1,27,28
 574 398 574 398 574 366 c 0,29,30
 574 303 574 303 512 303 c 256,31,32
 450 303 450 303 450 366 c 0,33,34
 450 398 450 398 478 417 c 1,35,-1
 478 787 l 1,36,-1
 547 787 l 1,26,-1
1014 1234 m 1,37,-1
 1227 1111 l 1,38,-1
 1227 1357 l 1,39,-1
 1050 1536 l 1,40,-1
 1150 1536 l 1,41,-1
 1277 1407 l 1,42,-1
 1404 1536 l 1,43,-1
 1504 1536 l 1,44,-1
 1327 1357 l 1,45,-1
 1327 1111 l 1,46,-1
 1540 1234 l 1,47,-1
 1607 1476 l 1,48,-1
 1657 1390 l 1,49,-1
 1609 1215 l 1,50,-1
 1784 1170 l 1,51,-1
 1834 1083 l 1,52,-1
 1590 1147 l 1,53,-1
 1377 1024 l 1,54,-1
 1590 901 l 1,55,-1
 1834 965 l 1,56,-1
 1784 878 l 1,57,-1
 1609 833 l 1,58,-1
 1657 658 l 1,59,-1
 1607 572 l 1,60,-1
 1540 814 l 1,61,-1
 1327 937 l 1,62,-1
 1327 691 l 1,63,-1
 1504 512 l 1,64,-1
 1404 512 l 1,65,-1
 1277 641 l 1,66,-1
 1150 512 l 1,67,-1
 1050 512 l 1,68,-1
 1227 691 l 1,69,-1
 1227 937 l 1,70,-1
 1014 814 l 1,71,-1
 947 572 l 1,72,-1
 897 658 l 1,73,-1
 945 833 l 1,74,-1
 770 878 l 1,75,-1
 720 965 l 1,76,-1
 964 901 l 1,77,-1
 1176 1024 l 1,78,-1
 964 1147 l 1,79,-1
 720 1083 l 1,80,-1
 770 1170 l 1,81,-1
 945 1215 l 1,82,-1
 897 1390 l 1,83,-1
 947 1476 l 1,84,-1
 1014 1234 l 1,37,-1
EndSplineSet
Validated: 1
EndChar

StartChar: uniEDE8
Encoding: 60904 60904 65
Width: 1806
Flags: W
LayerCount: 2
Fore
SplineSet
661 510 m 1,0,1
 714 452 714 452 714 373 c 0,2,3
 714 289 714 289 655 230 c 128,-1,4
 596 171 596 171 512 171 c 256,5,6
 428 171 428 171 369 230 c 128,-1,7
 310 289 310 289 310 373 c 0,8,9
 310 452 310 452 363 510 c 1,10,-1
 363 1809 l 2,11,12
 363 1846 363 1846 448 1869 c 1,13,-1
 448 457 l 1,14,15
 400 423 400 423 400 365 c 0,16,17
 400 252 400 252 512 252 c 0,18,19
 625 252 625 252 625 365 c 0,20,21
 625 423 625 423 576 457 c 1,22,-1
 576 1869 l 1,23,24
 661 1846 661 1846 661 1809 c 2,25,-1
 661 510 l 1,0,1
1277 512 m 1,26,-1
 1189 664 l 1,27,28
 1084 689 1084 689 1009 768 c 1,29,-1
 834 768 l 1,30,-1
 921 920 l 1,31,32
 906 969 906 969 906 1024 c 0,33,34
 906 1078 906 1078 921 1128 c 1,35,-1
 834 1280 l 1,36,-1
 1009 1280 l 1,37,38
 1084 1358 1084 1358 1189 1384 c 1,39,-1
 1277 1536 l 1,40,-1
 1364 1384 l 1,41,42
 1469 1358 1469 1358 1545 1280 c 1,43,-1
 1720 1280 l 1,44,-1
 1633 1128 l 1,45,46
 1648 1073 1648 1073 1648 1024 c 256,47,48
 1648 975 1648 975 1633 920 c 1,49,-1
 1720 768 l 1,50,-1
 1545 768 l 1,51,52
 1469 689 1469 689 1364 664 c 1,53,-1
 1277 512 l 1,26,-1
547 1869 m 1,54,-1
 547 417 l 1,55,56
 574 398 574 398 574 366 c 0,57,58
 574 303 574 303 512 303 c 256,59,60
 450 303 450 303 450 366 c 0,61,62
 450 398 450 398 478 417 c 1,63,-1
 478 1869 l 1,64,-1
 547 1869 l 1,54,-1
EndSplineSet
Validated: 1
EndChar

StartChar: uniEDE9
Encoding: 60905 60905 66
Width: 1970
Flags: W
LayerCount: 2
Fore
SplineSet
1569 819 m 1,0,1
 1447 815 1447 815 1326.5 839.5 c 128,-1,2
 1206 864 1206 864 1086 894 c 0,3,4
 877 946 877 946 669 964 c 128,-1,5
 461 982 461 982 259 830 c 1,6,-1
 171 765 l 1,7,-1
 171 874 l 1,8,-1
 171 979 l 1,9,-1
 171 1006 l 1,10,-1
 193 1022 l 1,11,12
 427 1198 427 1198 656 1180 c 128,-1,13
 885 1162 885 1162 1113 1105 c 0,14,15
 1151 1095 1151 1095 1189 1085.5 c 128,-1,16
 1227 1076 1227 1076 1266 1068 c 1,17,18
 1260 1096 1260 1096 1260 1128 c 0,19,20
 1260 1255 1260 1255 1350 1345.5 c 128,-1,21
 1440 1436 1440 1436 1569 1436 c 0,22,23
 1696 1436 1696 1436 1786.5 1345.5 c 128,-1,24
 1877 1255 1877 1255 1877 1128 c 0,25,26
 1877 1127 1877 1127 1877 1126 c 128,-1,27
 1877 1125 1877 1125 1877 1125 c 1,28,-1
 1877 1125 l 1,29,-1
 1877 1125 l 1,30,31
 1877 1087 1877 1087 1868 1053 c 1,32,-1
 1868 1053 l 1,33,34
 1868 1051 1868 1051 1867.5 1049.5 c 128,-1,35
 1867 1048 1867 1048 1867 1047 c 2,36,-1
 1866 1046 l 1,37,38
 1866 1044 1866 1044 1864 1040 c 1,39,-1
 1864 1039 l 2,40,41
 1864 1037 1864 1037 1862 1033 c 1,42,-1
 1862 1033 l 1,43,44
 1862 1030 1862 1030 1860 1026 c 1,45,-1
 1860 1026 l 1,46,47
 1847 991 1847 991 1830 964 c 1,48,-1
 1830 964 l 1,49,50
 1828 960 1828 960 1826 958 c 1,51,-1
 1826 958 l 1,52,53
 1825 956 1825 956 1824 954.5 c 128,-1,54
 1823 953 1823 953 1823 952 c 1,55,-1
 1822 952 l 1,56,57
 1820 948 1820 948 1818 947 c 1,58,-1
 1818 946 l 1,59,60
 1817 945 1817 945 1816 943.5 c 128,-1,61
 1815 942 1815 942 1814 941 c 1,62,-1
 1814 941 l 1,63,64
 1792 912 1792 912 1761 887 c 1,65,-1
 1761 887 l 1,66,67
 1760 885 1760 885 1756 883 c 1,68,-1
 1756 882 l 1,69,70
 1754 881 1754 881 1752.5 880 c 128,-1,71
 1751 879 1751 879 1750 879 c 1,72,-1
 1750 878 l 1,73,74
 1749 877 1749 877 1747.5 876 c 128,-1,75
 1746 875 1746 875 1745 874 c 1,76,-1
 1745 874 l 1,77,78
 1708 849 1708 849 1664 834 c 1,79,-1
 1664 834 l 1,80,81
 1614 819 1614 819 1569 819 c 1,82,-1
 1569 819 l 1,0,1
1392 219 m 1,83,84
 1286 215 1286 215 1181 236 c 128,-1,85
 1076 257 1076 257 971 284 c 1,86,87
 788 329 788 329 606.5 345 c 128,-1,88
 425 361 425 361 248 228 c 1,89,-1
 171 171 l 1,90,-1
 171 267 l 1,91,-1
 171 358 l 1,92,-1
 171 382 l 1,93,-1
 190 396 l 1,94,95
 394 549 394 549 594.5 533.5 c 128,-1,96
 795 518 795 518 994 468 c 0,97,98
 1072 448 1072 448 1127 436 c 1,99,100
 1122 464 1122 464 1122 488 c 0,101,102
 1122 599 1122 599 1201 678.5 c 128,-1,103
 1280 758 1280 758 1392 758 c 0,104,105
 1503 758 1503 758 1582 678.5 c 128,-1,106
 1661 599 1661 599 1661 488 c 0,107,108
 1661 487 1661 487 1661 486.5 c 128,-1,109
 1661 486 1661 486 1661 486 c 1,110,-1
 1661 486 l 1,111,-1
 1661 486 l 1,112,113
 1661 457 1661 457 1654 424 c 1,114,-1
 1654 423 l 1,115,116
 1653 421 1653 421 1652.5 419.5 c 128,-1,117
 1652 418 1652 418 1652 417 c 1,118,-1
 1652 417 l 1,119,120
 1651 415 1651 415 1650.5 413.5 c 128,-1,121
 1650 412 1650 412 1650 411 c 1,122,-1
 1650 411 l 1,123,124
 1650 408 1650 408 1648 406 c 1,125,-1
 1648 405 l 2,126,127
 1648 403 1648 403 1647.5 401.5 c 128,-1,128
 1647 400 1647 400 1647 400 c 1,129,-1
 1646 400 l 1,130,131
 1637 372 1637 372 1620 345 c 1,132,-1
 1620 345 l 1,133,134
 1618 341 1618 341 1617 340 c 1,135,-1
 1617 340 l 1,136,137
 1615 336 1615 336 1614 335 c 2,138,-1
 1613 334 l 2,139,140
 1612 333 1612 333 1611 331.5 c 128,-1,141
 1610 330 1610 330 1610 330 c 1,142,-1
 1610 330 l 1,143,144
 1608 326 1608 326 1606 325 c 1,145,-1
 1606 325 l 1,146,147
 1585 296 1585 296 1560 278 c 1,148,-1
 1560 278 l 1,149,150
 1560 278 1560 278 1556 274 c 1,151,-1
 1555 274 l 1,152,153
 1551 270 1551 270 1551 270 c 1,154,-1
 1551 270 l 1,155,156
 1547 268 1547 268 1546 267 c 1,157,-1
 1546 267 l 1,158,159
 1510 243 1510 243 1475 232 c 1,160,-1
 1475 232 l 1,161,162
 1437 219 1437 219 1392 219 c 1,163,-1
 1392 219 l 1,83,84
1208 1399 m 1,164,165
 1118 1395 1118 1395 1028.5 1413 c 128,-1,166
 939 1431 939 1431 850 1454 c 0,167,168
 694 1493 694 1493 540 1506.5 c 128,-1,169
 386 1520 386 1520 236 1407 c 2,170,-1
 171 1358 l 1,171,-1
 171 1440 l 1,172,-1
 171 1517 l 1,173,-1
 171 1537 l 1,174,-1
 187 1549 l 2,175,176
 361 1679 361 1679 531 1665.5 c 128,-1,177
 701 1652 701 1652 870 1610 c 0,178,179
 898 1603 898 1603 926 1596 c 128,-1,180
 954 1589 954 1589 983 1583 c 1,181,182
 979 1603 979 1603 979 1628 c 0,183,184
 979 1722 979 1722 1045.5 1789.5 c 128,-1,185
 1112 1857 1112 1857 1208 1857 c 0,186,187
 1302 1857 1302 1857 1369 1789.5 c 128,-1,188
 1436 1722 1436 1722 1436 1628 c 0,189,190
 1436 1627 1436 1627 1436 1626.5 c 128,-1,191
 1436 1626 1436 1626 1436 1626 c 1,192,-1
 1436 1626 l 1,193,-1
 1436 1625 l 2,194,195
 1436 1597 1436 1597 1430 1572 c 1,196,-1
 1430 1572 l 1,197,198
 1429 1571 1429 1571 1428.5 1569.5 c 128,-1,199
 1428 1568 1428 1568 1428 1568 c 1,200,-1
 1428 1567 l 2,201,202
 1428 1565 1428 1565 1427.5 1564 c 128,-1,203
 1427 1563 1427 1563 1427 1562 c 1,204,-1
 1427 1562 l 1,205,206
 1426 1560 1426 1560 1425.5 1559 c 128,-1,207
 1425 1558 1425 1558 1425 1557 c 1,208,-1
 1425 1557 l 1,209,210
 1425 1555 1425 1555 1424.5 1554 c 128,-1,211
 1424 1553 1424 1553 1424 1552 c 1,212,-1
 1424 1552 l 1,213,214
 1414 1527 1414 1527 1401 1506 c 1,215,-1
 1401 1506 l 1,216,217
 1401 1504 1401 1504 1399 1502 c 1,218,-1
 1399 1501 l 1,219,220
 1397 1499 1397 1499 1396 1497 c 1,221,-1
 1396 1497 l 1,222,223
 1395 1496 1395 1496 1394 1494.5 c 128,-1,224
 1393 1493 1393 1493 1393 1493 c 1,225,-1
 1393 1493 l 1,226,227
 1392 1492 1392 1492 1391 1490.5 c 128,-1,228
 1390 1489 1390 1489 1390 1489 c 1,229,-1
 1390 1489 l 1,230,231
 1369 1463 1369 1463 1351 1449 c 1,232,-1
 1350 1449 l 1,233,234
 1349 1448 1349 1448 1348 1447 c 128,-1,235
 1347 1446 1347 1446 1347 1446 c 1,236,-1
 1346 1445 l 1,237,238
 1346 1445 1346 1445 1342 1443 c 1,239,-1
 1342 1442 l 1,240,241
 1342 1442 1342 1442 1338 1440 c 1,242,-1
 1338 1440 l 1,243,244
 1311 1420 1311 1420 1278 1410 c 1,245,-1
 1278 1410 l 1,246,247
 1247 1399 1247 1399 1208 1399 c 1,248,-1
 1208 1399 l 1,164,165
EndSplineSet
Validated: 37
EndChar

StartChar: uniEDEA
Encoding: 60906 60906 67
Width: 1970
Flags: W
LayerCount: 2
Fore
SplineSet
652 895 m 1,0,1
 596 876 596 876 530 876 c 0,2,3
 381 876 381 876 276 969 c 128,-1,4
 171 1062 171 1062 171 1194 c 0,5,6
 171 1305 171 1305 247 1390 c 128,-1,7
 323 1475 323 1475 439 1502 c 1,8,9
 450 1658 450 1658 580.5 1767.5 c 128,-1,10
 711 1877 711 1877 892 1877 c 0,11,12
 1022 1877 1022 1877 1129 1817.5 c 128,-1,13
 1236 1758 1236 1758 1293 1662 c 1,14,15
 1357 1679 1357 1679 1424 1679 c 0,16,17
 1611 1679 1611 1679 1744 1561 c 128,-1,18
 1877 1443 1877 1443 1877 1277 c 0,19,20
 1877 1110 1877 1110 1744 993 c 128,-1,21
 1611 876 1611 876 1424 876 c 0,22,23
 1356 876 1356 876 1305 890 c 1,24,25
 1168 803 1168 803 982 803 c 0,26,27
 789 803 789 803 652 895 c 1,0,1
378 512 m 1,28,-1
 512 718 l 1,29,-1
 646 512 l 1,30,-1
 512 306 l 1,31,-1
 378 512 l 1,28,-1
1402 512 m 1,32,-1
 1536 718 l 1,33,-1
 1670 512 l 1,34,-1
 1536 306 l 1,35,-1
 1402 512 l 1,32,-1
890 512 m 1,36,-1
 1024 718 l 1,37,-1
 1158 512 l 1,38,-1
 1024 306 l 1,39,-1
 890 512 l 1,36,-1
EndSplineSet
Validated: 1
EndChar

StartChar: uniEE16
Encoding: 60950 60950 68
Width: 1789
Flags: W
LayerCount: 2
Fore
SplineSet
1124 1526 m 1,0,1
 1185 1513 1185 1513 1238 1489 c 1,2,-1
 1345 1635 l 1,3,-1
 1506 1518 l 1,4,-1
 1400 1371 l 1,5,6
 1440 1327 1440 1327 1471 1274 c 1,7,-1
 1642 1330 l 1,8,-1
 1704 1140 l 1,9,-1
 1532 1084 l 1,10,11
 1536 1057 1536 1057 1536 1024 c 0,12,13
 1536 990 1536 990 1532 964 c 1,14,-1
 1704 908 l 1,15,-1
 1642 718 l 1,16,-1
 1471 774 l 1,17,18
 1440 720 1440 720 1400 677 c 1,19,-1
 1506 530 l 1,20,-1
 1345 413 l 1,21,-1
 1238 559 l 1,22,23
 1185 534 1185 534 1124 522 c 1,24,-1
 1124 341 l 1,25,-1
 924 341 l 1,26,-1
 924 522 l 1,27,28
 862 534 862 534 810 559 c 1,29,-1
 703 413 l 1,30,-1
 542 530 l 1,31,-1
 648 677 l 1,32,33
 607 720 607 720 577 774 c 1,34,-1
 406 718 l 1,35,-1
 344 908 l 1,36,-1
 516 964 l 1,37,38
 512 990 512 990 512 1024 c 0,39,40
 512 1057 512 1057 516 1084 c 1,41,-1
 344 1140 l 1,42,-1
 406 1330 l 1,43,-1
 577 1274 l 1,44,45
 607 1327 607 1327 648 1371 c 1,46,-1
 542 1518 l 1,47,-1
 703 1635 l 1,48,-1
 810 1489 l 1,49,50
 862 1513 862 1513 924 1526 c 1,51,-1
 924 1707 l 1,52,-1
 1124 1707 l 1,53,-1
 1124 1526 l 1,0,1
1024 1302 m 0,54,55
 909 1302 909 1302 827.5 1220 c 128,-1,56
 746 1138 746 1138 746 1024 c 0,57,58
 746 909 746 909 827.5 827.5 c 128,-1,59
 909 746 909 746 1024 746 c 0,60,61
 1138 746 1138 746 1220 827.5 c 128,-1,62
 1302 909 1302 909 1302 1024 c 0,63,64
 1302 1138 1302 1138 1220 1220 c 128,-1,65
 1138 1302 1138 1302 1024 1302 c 0,54,55
EndSplineSet
Validated: 1
EndChar

StartChar: uniEE17
Encoding: 60951 60951 69
Width: 1851
Flags: W
LayerCount: 2
Fore
SplineSet
1024 171 m 1,0,-1
 878 423 l 1,1,2
 700 466 700 466 577 597 c 1,3,-1
 285 597 l 1,4,-1
 431 850 l 1,5,6
 406 935 406 935 406 1024 c 0,7,8
 406 1112 406 1112 431 1198 c 1,9,-1
 285 1451 l 1,10,-1
 577 1451 l 1,11,12
 700 1581 700 1581 878 1625 c 1,13,-1
 1024 1877 l 1,14,-1
 1170 1625 l 1,15,16
 1347 1581 1347 1581 1471 1451 c 1,17,-1
 1763 1451 l 1,18,-1
 1617 1198 l 1,19,20
 1642 1112 1642 1112 1642 1024 c 0,21,22
 1642 935 1642 935 1617 850 c 1,23,-1
 1763 597 l 1,24,-1
 1471 597 l 1,25,26
 1347 466 1347 466 1170 423 c 1,27,-1
 1024 171 l 1,0,-1
EndSplineSet
Validated: 1
EndChar

StartChar: uniF1FF
Encoding: 61951 61951 70
Width: 1344
Flags: W
LayerCount: 2
Fore
SplineSet
1024 1877 m 0,0,1
 1153 1877 1153 1877 1280 1838 c 1,2,3
 1020 1756 1020 1756 851.5 1533 c 128,-1,4
 683 1310 683 1310 683 1024 c 0,5,6
 683 737 683 737 851.5 514 c 128,-1,7
 1020 291 1020 291 1280 210 c 1,8,9
 1153 171 1153 171 1024 171 c 0,10,11
 670 171 670 171 420.5 420.5 c 128,-1,12
 171 670 171 670 171 1024 c 0,13,14
 171 1377 171 1377 420.5 1627 c 128,-1,15
 670 1877 670 1877 1024 1877 c 0,0,1
EndSplineSet
Validated: 1
EndChar

StartChar: uniEE18
Encoding: 60952 60952 71
Width: 1441
Flags: W
LayerCount: 2
Fore
SplineSet
1065 819 m 1,0,1
 943 815 943 815 823 839.5 c 128,-1,2
 703 864 703 864 583 894 c 0,3,4
 479 920 479 920 376 941.5 c 128,-1,5
 273 963 273 963 171 965 c 1,6,-1
 171 1180 l 1,7,8
 281 1178 281 1178 390 1155 c 128,-1,9
 499 1132 499 1132 609 1105 c 0,10,11
 647 1095 647 1095 685 1085.5 c 128,-1,12
 723 1076 723 1076 762 1068 c 1,13,14
 756 1096 756 1096 756 1128 c 0,15,16
 756 1255 756 1255 846 1345.5 c 128,-1,17
 936 1436 936 1436 1065 1436 c 0,18,19
 1192 1436 1192 1436 1282.5 1345.5 c 128,-1,20
 1373 1255 1373 1255 1373 1128 c 0,21,22
 1373 1127 1373 1127 1373 1126 c 128,-1,23
 1373 1125 1373 1125 1373 1125 c 1,24,-1
 1373 1125 l 1,25,-1
 1373 1125 l 1,26,27
 1373 1087 1373 1087 1364 1053 c 1,28,-1
 1364 1053 l 1,29,30
 1364 1051 1364 1051 1363.5 1049.5 c 128,-1,31
 1363 1048 1363 1048 1363 1047 c 2,32,-1
 1362 1046 l 1,33,34
 1362 1044 1362 1044 1360 1040 c 1,35,-1
 1360 1039 l 2,36,37
 1360 1037 1360 1037 1358 1033 c 1,38,-1
 1358 1033 l 1,39,40
 1358 1030 1358 1030 1356 1026 c 1,41,-1
 1356 1026 l 1,42,43
 1343 991 1343 991 1326 964 c 1,44,-1
 1326 964 l 1,45,46
 1324 960 1324 960 1322 958 c 1,47,-1
 1322 958 l 1,48,49
 1321 956 1321 956 1320 954.5 c 128,-1,50
 1319 953 1319 953 1319 952 c 1,51,-1
 1318 952 l 1,52,53
 1316 948 1316 948 1314 947 c 1,54,-1
 1314 946 l 1,55,56
 1313 945 1313 945 1312 943.5 c 128,-1,57
 1311 942 1311 942 1310 941 c 1,58,-1
 1310 941 l 1,59,60
 1288 912 1288 912 1257 887 c 1,61,-1
 1257 887 l 1,62,63
 1256 885 1256 885 1252 883 c 1,64,-1
 1252 882 l 1,65,66
 1250 881 1250 881 1248.5 880 c 128,-1,67
 1247 879 1247 879 1246 879 c 1,68,-1
 1246 878 l 1,69,70
 1245 877 1245 877 1243.5 876 c 128,-1,71
 1242 875 1242 875 1241 874 c 1,72,-1
 1241 874 l 1,73,74
 1204 849 1204 849 1160 834 c 1,75,-1
 1160 834 l 1,76,77
 1110 819 1110 819 1065 819 c 1,78,-1
 1065 819 l 1,0,1
EndSplineSet
Validated: 37
EndChar

StartChar: uniEE19
Encoding: 60953 60953 72
Width: 1214
Flags: W
LayerCount: 2
Fore
SplineSet
888 219 m 1,0,1
 782 215 782 215 677 236 c 128,-1,2
 572 257 572 257 467 284 c 1,3,4
 392 302 392 302 318 318.5 c 128,-1,5
 244 335 244 335 171 342 c 1,6,-1
 171 530 l 1,7,8
 251 523 251 523 330.5 505.5 c 128,-1,9
 410 488 410 488 490 468 c 0,10,11
 523 459 523 459 556.5 451 c 128,-1,12
 590 443 590 443 623 436 c 1,13,14
 618 464 618 464 618 488 c 0,15,16
 618 599 618 599 697 678.5 c 128,-1,17
 776 758 776 758 888 758 c 0,18,19
 999 758 999 758 1078 678.5 c 128,-1,20
 1157 599 1157 599 1157 488 c 0,21,22
 1157 487 1157 487 1157 486.5 c 128,-1,23
 1157 486 1157 486 1157 486 c 1,24,-1
 1157 486 l 1,25,-1
 1157 486 l 1,26,27
 1157 457 1157 457 1150 424 c 1,28,-1
 1150 423 l 1,29,30
 1149 421 1149 421 1148.5 419.5 c 128,-1,31
 1148 418 1148 418 1148 417 c 1,32,-1
 1148 417 l 1,33,34
 1147 415 1147 415 1146.5 413.5 c 128,-1,35
 1146 412 1146 412 1146 411 c 1,36,-1
 1146 411 l 1,37,38
 1146 408 1146 408 1144 406 c 1,39,-1
 1144 405 l 2,40,41
 1144 403 1144 403 1143.5 401.5 c 128,-1,42
 1143 400 1143 400 1143 400 c 1,43,-1
 1142 400 l 1,44,45
 1133 372 1133 372 1116 345 c 1,46,-1
 1116 345 l 1,47,48
 1114 341 1114 341 1113 340 c 1,49,-1
 1113 340 l 1,50,51
 1111 336 1111 336 1110 335 c 2,52,-1
 1109 334 l 2,53,54
 1108 333 1108 333 1107 331.5 c 128,-1,55
 1106 330 1106 330 1106 330 c 1,56,-1
 1106 330 l 1,57,58
 1104 326 1104 326 1102 325 c 1,59,-1
 1102 325 l 1,60,61
 1081 296 1081 296 1056 278 c 1,62,-1
 1056 278 l 1,63,64
 1056 278 1056 278 1052 274 c 1,65,-1
 1051 274 l 1,66,67
 1047 270 1047 270 1047 270 c 1,68,-1
 1047 270 l 1,69,70
 1043 268 1043 268 1042 267 c 1,71,-1
 1042 267 l 1,72,73
 1009 243 1009 243 971 232 c 1,74,-1
 971 232 l 1,75,76
 933 219 933 219 888 219 c 1,77,-1
 888 219 l 1,0,1
704 1399 m 1,78,79
 614 1395 614 1395 524.5 1413 c 128,-1,80
 435 1431 435 1431 346 1454 c 0,81,82
 243 1480 243 1480 171 1493 c 1,83,-1
 171 1654 l 1,84,85
 219 1645 219 1645 268 1633.5 c 128,-1,86
 317 1622 317 1622 366 1610 c 0,87,88
 394 1603 394 1603 422 1596 c 128,-1,89
 450 1589 450 1589 479 1583 c 1,90,91
 475 1603 475 1603 475 1628 c 0,92,93
 475 1722 475 1722 541.5 1789.5 c 128,-1,94
 608 1857 608 1857 704 1857 c 0,95,96
 798 1857 798 1857 865.5 1789.5 c 128,-1,97
 933 1722 933 1722 933 1628 c 0,98,99
 933 1627 933 1627 933 1626.5 c 128,-1,100
 933 1626 933 1626 933 1626 c 1,101,-1
 933 1626 l 1,102,-1
 933 1625 l 1,103,104
 931 1594 931 1594 926 1572 c 1,105,-1
 926 1572 l 1,106,107
 925 1571 925 1571 925 1568 c 2,108,-1
 925 1567 l 1,109,110
 924 1565 924 1565 923.5 1564 c 128,-1,111
 923 1563 923 1563 923 1562 c 1,112,-1
 923 1562 l 1,113,114
 923 1560 923 1560 922.5 1559 c 128,-1,115
 922 1558 922 1558 922 1557 c 1,116,-1
 922 1557 l 1,117,118
 921 1555 921 1555 920.5 1554 c 128,-1,119
 920 1553 920 1553 920 1552 c 1,120,-1
 920 1552 l 1,121,122
 909 1523 909 1523 898 1506 c 1,123,-1
 898 1506 l 1,124,125
 897 1504 897 1504 895 1502 c 1,126,-1
 895 1501 l 1,127,128
 893 1499 893 1499 892 1497 c 1,129,-1
 892 1497 l 1,130,131
 891 1496 891 1496 890 1494.5 c 128,-1,132
 889 1493 889 1493 889 1493 c 1,133,-1
 889 1493 l 1,134,135
 888 1492 888 1492 887 1490.5 c 128,-1,136
 886 1489 886 1489 886 1489 c 1,137,-1
 886 1489 l 1,138,139
 865 1463 865 1463 847 1449 c 1,140,-1
 847 1449 l 1,141,142
 845 1448 845 1448 843 1446 c 1,143,-1
 843 1445 l 1,144,145
 839 1443 839 1443 839 1443 c 1,146,-1
 839 1442 l 1,147,148
 837 1442 837 1442 835 1440 c 1,149,-1
 834 1440 l 1,150,151
 807 1420 807 1420 775 1410 c 1,152,-1
 775 1410 l 1,153,154
 743 1399 743 1399 704 1399 c 1,155,-1
 704 1399 l 1,78,79
EndSplineSet
Validated: 37
EndChar

StartChar: uniEE1A
Encoding: 60954 60954 73
Width: 1441
Flags: W
LayerCount: 2
Fore
SplineSet
1065 819 m 1,0,1
 943 815 943 815 823 839.5 c 128,-1,2
 703 864 703 864 583 894 c 0,3,4
 479 920 479 920 376 941.5 c 128,-1,5
 273 963 273 963 171 965 c 1,6,-1
 171 1180 l 1,7,8
 281 1178 281 1178 390 1155 c 128,-1,9
 499 1132 499 1132 609 1105 c 0,10,11
 647 1095 647 1095 685 1085.5 c 128,-1,12
 723 1076 723 1076 762 1068 c 1,13,14
 756 1096 756 1096 756 1128 c 0,15,16
 756 1255 756 1255 846 1345.5 c 128,-1,17
 936 1436 936 1436 1065 1436 c 0,18,19
 1192 1436 1192 1436 1282.5 1345.5 c 128,-1,20
 1373 1255 1373 1255 1373 1128 c 0,21,22
 1373 1127 1373 1127 1373 1126 c 128,-1,23
 1373 1125 1373 1125 1373 1125 c 1,24,-1
 1373 1125 l 1,25,-1
 1373 1125 l 1,26,27
 1373 1087 1373 1087 1364 1053 c 1,28,-1
 1364 1053 l 1,29,30
 1364 1051 1364 1051 1363.5 1049.5 c 128,-1,31
 1363 1048 1363 1048 1363 1047 c 2,32,-1
 1362 1046 l 1,33,34
 1362 1044 1362 1044 1360 1040 c 1,35,-1
 1360 1039 l 2,36,37
 1360 1037 1360 1037 1358 1033 c 1,38,-1
 1358 1033 l 1,39,40
 1358 1030 1358 1030 1356 1026 c 1,41,-1
 1356 1026 l 1,42,43
 1343 991 1343 991 1326 964 c 1,44,-1
 1326 964 l 1,45,46
 1324 960 1324 960 1322 958 c 1,47,-1
 1322 958 l 1,48,49
 1321 956 1321 956 1320 954.5 c 128,-1,50
 1319 953 1319 953 1319 952 c 1,51,-1
 1318 952 l 1,52,53
 1316 948 1316 948 1314 947 c 1,54,-1
 1314 946 l 1,55,56
 1313 945 1313 945 1312 943.5 c 128,-1,57
 1311 942 1311 942 1310 941 c 1,58,-1
 1310 941 l 1,59,60
 1288 912 1288 912 1257 887 c 1,61,-1
 1257 887 l 1,62,63
 1256 885 1256 885 1252 883 c 1,64,-1
 1252 882 l 1,65,66
 1250 881 1250 881 1248.5 880 c 128,-1,67
 1247 879 1247 879 1246 879 c 1,68,-1
 1246 878 l 1,69,70
 1245 877 1245 877 1243.5 876 c 128,-1,71
 1242 875 1242 875 1241 874 c 1,72,-1
 1241 874 l 1,73,74
 1204 849 1204 849 1160 834 c 1,75,-1
 1160 834 l 1,76,77
 1110 819 1110 819 1065 819 c 1,78,-1
 1065 819 l 1,0,1
888 219 m 1,79,80
 782 215 782 215 677 236 c 128,-1,81
 572 257 572 257 467 284 c 1,82,83
 392 302 392 302 318 318.5 c 128,-1,84
 244 335 244 335 171 342 c 1,85,-1
 171 530 l 1,86,87
 251 523 251 523 330.5 505.5 c 128,-1,88
 410 488 410 488 490 468 c 0,89,90
 523 459 523 459 556.5 451 c 128,-1,91
 590 443 590 443 623 436 c 1,92,93
 618 464 618 464 618 488 c 0,94,95
 618 599 618 599 697 678.5 c 128,-1,96
 776 758 776 758 888 758 c 0,97,98
 999 758 999 758 1078 678.5 c 128,-1,99
 1157 599 1157 599 1157 488 c 0,100,101
 1157 487 1157 487 1157 486.5 c 128,-1,102
 1157 486 1157 486 1157 486 c 1,103,-1
 1157 486 l 1,104,-1
 1157 486 l 1,105,106
 1157 457 1157 457 1150 424 c 1,107,-1
 1150 423 l 1,108,109
 1149 421 1149 421 1148.5 419.5 c 128,-1,110
 1148 418 1148 418 1148 417 c 1,111,-1
 1148 417 l 1,112,113
 1147 415 1147 415 1146.5 413.5 c 128,-1,114
 1146 412 1146 412 1146 411 c 1,115,-1
 1146 411 l 1,116,117
 1146 408 1146 408 1144 406 c 1,118,-1
 1144 405 l 2,119,120
 1144 403 1144 403 1143.5 401.5 c 128,-1,121
 1143 400 1143 400 1143 400 c 1,122,-1
 1142 400 l 1,123,124
 1133 372 1133 372 1116 345 c 1,125,-1
 1116 345 l 1,126,127
 1114 341 1114 341 1113 340 c 1,128,-1
 1113 340 l 1,129,130
 1111 336 1111 336 1110 335 c 2,131,-1
 1109 334 l 2,132,133
 1108 333 1108 333 1107 331.5 c 128,-1,134
 1106 330 1106 330 1106 330 c 1,135,-1
 1106 330 l 1,136,137
 1104 326 1104 326 1102 325 c 1,138,-1
 1102 325 l 1,139,140
 1081 296 1081 296 1056 278 c 1,141,-1
 1056 278 l 1,142,143
 1056 278 1056 278 1052 274 c 1,144,-1
 1051 274 l 1,145,146
 1047 270 1047 270 1047 270 c 1,147,-1
 1047 270 l 1,148,149
 1043 268 1043 268 1042 267 c 1,150,-1
 1042 267 l 1,151,152
 1009 243 1009 243 971 232 c 1,153,-1
 971 232 l 1,154,155
 933 219 933 219 888 219 c 1,156,-1
 888 219 l 1,79,80
EndSplineSet
Validated: 37
EndChar

StartChar: uniEE1B
Encoding: 60955 60955 74
Width: 1441
Flags: W
LayerCount: 2
Fore
SplineSet
1065 819 m 1,0,1
 943 815 943 815 823 839.5 c 128,-1,2
 703 864 703 864 583 894 c 0,3,4
 479 920 479 920 376 941.5 c 128,-1,5
 273 963 273 963 171 965 c 1,6,-1
 171 1180 l 1,7,8
 281 1178 281 1178 390 1155 c 128,-1,9
 499 1132 499 1132 609 1105 c 0,10,11
 647 1095 647 1095 685 1085.5 c 128,-1,12
 723 1076 723 1076 762 1068 c 1,13,14
 756 1096 756 1096 756 1128 c 0,15,16
 756 1255 756 1255 846 1345.5 c 128,-1,17
 936 1436 936 1436 1065 1436 c 0,18,19
 1192 1436 1192 1436 1282.5 1345.5 c 128,-1,20
 1373 1255 1373 1255 1373 1128 c 0,21,22
 1373 1127 1373 1127 1373 1126 c 128,-1,23
 1373 1125 1373 1125 1373 1125 c 1,24,-1
 1373 1125 l 1,25,-1
 1373 1125 l 1,26,27
 1373 1087 1373 1087 1364 1053 c 1,28,-1
 1364 1053 l 1,29,30
 1364 1051 1364 1051 1363.5 1049.5 c 128,-1,31
 1363 1048 1363 1048 1363 1047 c 2,32,-1
 1362 1046 l 1,33,34
 1362 1044 1362 1044 1360 1040 c 1,35,-1
 1360 1039 l 2,36,37
 1360 1037 1360 1037 1358 1033 c 1,38,-1
 1358 1033 l 1,39,40
 1358 1030 1358 1030 1356 1026 c 1,41,-1
 1356 1026 l 1,42,43
 1343 991 1343 991 1326 964 c 1,44,-1
 1326 964 l 1,45,46
 1324 960 1324 960 1322 958 c 1,47,-1
 1322 958 l 1,48,49
 1321 956 1321 956 1320 954.5 c 128,-1,50
 1319 953 1319 953 1319 952 c 1,51,-1
 1318 952 l 1,52,53
 1316 948 1316 948 1314 947 c 1,54,-1
 1314 946 l 1,55,56
 1313 945 1313 945 1312 943.5 c 128,-1,57
 1311 942 1311 942 1310 941 c 1,58,-1
 1310 941 l 1,59,60
 1288 912 1288 912 1257 887 c 1,61,-1
 1257 887 l 1,62,63
 1256 885 1256 885 1252 883 c 1,64,-1
 1252 882 l 1,65,66
 1250 881 1250 881 1248.5 880 c 128,-1,67
 1247 879 1247 879 1246 879 c 1,68,-1
 1246 878 l 1,69,70
 1245 877 1245 877 1243.5 876 c 128,-1,71
 1242 875 1242 875 1241 874 c 1,72,-1
 1241 874 l 1,73,74
 1204 849 1204 849 1160 834 c 1,75,-1
 1160 834 l 1,76,77
 1110 819 1110 819 1065 819 c 1,78,-1
 1065 819 l 1,0,1
888 219 m 1,79,80
 782 215 782 215 677 236 c 128,-1,81
 572 257 572 257 467 284 c 1,82,83
 392 302 392 302 318 318.5 c 128,-1,84
 244 335 244 335 171 342 c 1,85,-1
 171 530 l 1,86,87
 251 523 251 523 330.5 505.5 c 128,-1,88
 410 488 410 488 490 468 c 0,89,90
 523 459 523 459 556.5 451 c 128,-1,91
 590 443 590 443 623 436 c 1,92,93
 618 464 618 464 618 488 c 0,94,95
 618 599 618 599 697 678.5 c 128,-1,96
 776 758 776 758 888 758 c 0,97,98
 999 758 999 758 1078 678.5 c 128,-1,99
 1157 599 1157 599 1157 488 c 0,100,101
 1157 487 1157 487 1157 486.5 c 128,-1,102
 1157 486 1157 486 1157 486 c 1,103,-1
 1157 486 l 1,104,-1
 1157 486 l 1,105,106
 1157 457 1157 457 1150 424 c 1,107,-1
 1150 423 l 1,108,109
 1149 421 1149 421 1148.5 419.5 c 128,-1,110
 1148 418 1148 418 1148 417 c 1,111,-1
 1148 417 l 1,112,113
 1147 415 1147 415 1146.5 413.5 c 128,-1,114
 1146 412 1146 412 1146 411 c 1,115,-1
 1146 411 l 1,116,117
 1146 408 1146 408 1144 406 c 1,118,-1
 1144 405 l 2,119,120
 1144 403 1144 403 1143.5 401.5 c 128,-1,121
 1143 400 1143 400 1143 400 c 1,122,-1
 1142 400 l 1,123,124
 1133 372 1133 372 1116 345 c 1,125,-1
 1116 345 l 1,126,127
 1114 341 1114 341 1113 340 c 1,128,-1
 1113 340 l 1,129,130
 1111 336 1111 336 1110 335 c 2,131,-1
 1109 334 l 2,132,133
 1108 333 1108 333 1107 331.5 c 128,-1,134
 1106 330 1106 330 1106 330 c 1,135,-1
 1106 330 l 1,136,137
 1104 326 1104 326 1102 325 c 1,138,-1
 1102 325 l 1,139,140
 1081 296 1081 296 1056 278 c 1,141,-1
 1056 278 l 1,142,143
 1056 278 1056 278 1052 274 c 1,144,-1
 1051 274 l 1,145,146
 1047 270 1047 270 1047 270 c 1,147,-1
 1047 270 l 1,148,149
 1043 268 1043 268 1042 267 c 1,150,-1
 1042 267 l 1,151,152
 1009 243 1009 243 971 232 c 1,153,-1
 971 232 l 1,154,155
 933 219 933 219 888 219 c 1,156,-1
 888 219 l 1,79,80
704 1399 m 1,157,158
 614 1395 614 1395 524.5 1413 c 128,-1,159
 435 1431 435 1431 346 1454 c 0,160,161
 243 1480 243 1480 171 1493 c 1,162,-1
 171 1654 l 1,163,164
 219 1645 219 1645 268 1633.5 c 128,-1,165
 317 1622 317 1622 366 1610 c 0,166,167
 394 1603 394 1603 422 1596 c 128,-1,168
 450 1589 450 1589 479 1583 c 1,169,170
 475 1603 475 1603 475 1628 c 0,171,172
 475 1722 475 1722 541.5 1789.5 c 128,-1,173
 608 1857 608 1857 704 1857 c 0,174,175
 798 1857 798 1857 865.5 1789.5 c 128,-1,176
 933 1722 933 1722 933 1628 c 0,177,178
 933 1627 933 1627 933 1626.5 c 128,-1,179
 933 1626 933 1626 933 1626 c 1,180,-1
 933 1626 l 1,181,-1
 933 1625 l 1,182,183
 931 1594 931 1594 926 1572 c 1,184,-1
 926 1572 l 1,185,186
 925 1571 925 1571 925 1568 c 2,187,-1
 925 1567 l 1,188,189
 924 1565 924 1565 923.5 1564 c 128,-1,190
 923 1563 923 1563 923 1562 c 1,191,-1
 923 1562 l 1,192,193
 923 1560 923 1560 922.5 1559 c 128,-1,194
 922 1558 922 1558 922 1557 c 1,195,-1
 922 1557 l 1,196,197
 921 1555 921 1555 920.5 1554 c 128,-1,198
 920 1553 920 1553 920 1552 c 1,199,-1
 920 1552 l 1,200,201
 909 1523 909 1523 898 1506 c 1,202,-1
 898 1506 l 1,203,204
 897 1504 897 1504 895 1502 c 1,205,-1
 895 1501 l 1,206,207
 893 1499 893 1499 892 1497 c 1,208,-1
 892 1497 l 1,209,210
 891 1496 891 1496 890 1494.5 c 128,-1,211
 889 1493 889 1493 889 1493 c 1,212,-1
 889 1493 l 1,213,214
 888 1492 888 1492 887 1490.5 c 128,-1,215
 886 1489 886 1489 886 1489 c 1,216,-1
 886 1489 l 1,217,218
 865 1463 865 1463 847 1449 c 1,219,-1
 847 1449 l 1,220,221
 845 1448 845 1448 843 1446 c 1,222,-1
 843 1445 l 1,223,224
 839 1443 839 1443 839 1443 c 1,225,-1
 839 1442 l 1,226,227
 837 1442 837 1442 835 1440 c 1,228,-1
 834 1440 l 1,229,230
 807 1420 807 1420 775 1410 c 1,231,-1
 775 1410 l 1,232,233
 743 1399 743 1399 704 1399 c 1,234,-1
 704 1399 l 1,157,158
EndSplineSet
Validated: 37
EndChar

StartChar: uniEE1C
Encoding: 60956 60956 75
Width: 1970
Flags: W
LayerCount: 2
Fore
SplineSet
1065 819 m 1,0,1
 943 815 943 815 823 839.5 c 128,-1,2
 703 864 703 864 583 894 c 0,3,4
 479 920 479 920 376 941.5 c 128,-1,5
 273 963 273 963 171 965 c 1,6,-1
 171 1180 l 1,7,8
 281 1178 281 1178 390 1155 c 128,-1,9
 499 1132 499 1132 609 1105 c 0,10,11
 647 1095 647 1095 685 1085.5 c 128,-1,12
 723 1076 723 1076 762 1068 c 1,13,14
 756 1096 756 1096 756 1128 c 0,15,16
 756 1255 756 1255 846 1345.5 c 128,-1,17
 936 1436 936 1436 1065 1436 c 0,18,19
 1192 1436 1192 1436 1282.5 1345.5 c 128,-1,20
 1373 1255 1373 1255 1373 1128 c 0,21,22
 1373 1127 1373 1127 1373 1126 c 128,-1,23
 1373 1125 1373 1125 1373 1125 c 1,24,-1
 1373 1125 l 1,25,-1
 1373 1125 l 1,26,27
 1373 1087 1373 1087 1364 1053 c 1,28,-1
 1364 1053 l 1,29,30
 1364 1051 1364 1051 1363.5 1049.5 c 128,-1,31
 1363 1048 1363 1048 1363 1047 c 2,32,-1
 1362 1046 l 1,33,34
 1362 1044 1362 1044 1360 1040 c 1,35,-1
 1360 1039 l 2,36,37
 1360 1037 1360 1037 1358 1033 c 1,38,-1
 1358 1033 l 1,39,40
 1358 1030 1358 1030 1356 1026 c 1,41,-1
 1356 1026 l 1,42,43
 1343 991 1343 991 1326 964 c 1,44,-1
 1326 964 l 1,45,46
 1324 960 1324 960 1322 958 c 1,47,-1
 1322 958 l 1,48,49
 1321 956 1321 956 1320 954.5 c 128,-1,50
 1319 953 1319 953 1319 952 c 1,51,-1
 1318 952 l 1,52,53
 1316 948 1316 948 1314 947 c 1,54,-1
 1314 946 l 1,55,56
 1313 945 1313 945 1312 943.5 c 128,-1,57
 1311 942 1311 942 1310 941 c 1,58,-1
 1310 941 l 1,59,60
 1288 912 1288 912 1257 887 c 1,61,-1
 1257 887 l 1,62,63
 1256 885 1256 885 1252 883 c 1,64,-1
 1252 882 l 1,65,66
 1250 881 1250 881 1248.5 880 c 128,-1,67
 1247 879 1247 879 1246 879 c 1,68,-1
 1246 878 l 1,69,70
 1245 877 1245 877 1243.5 876 c 128,-1,71
 1242 875 1242 875 1241 874 c 1,72,-1
 1241 874 l 1,73,74
 1204 849 1204 849 1160 834 c 1,75,-1
 1160 834 l 1,76,77
 1110 819 1110 819 1065 819 c 1,78,-1
 1065 819 l 1,0,1
1607 343 m 1,79,80
 1507 339 1507 339 1407.5 358 c 128,-1,81
 1308 377 1308 377 1209 403 c 1,82,83
 1220 445 1220 445 1220 488 c 0,84,85
 1220 543 1220 543 1203 594 c 1,86,-1
 1210 592 l 1,87,88
 1288 572 1288 572 1343 560 c 1,89,90
 1338 588 1338 588 1338 613 c 0,91,92
 1338 724 1338 724 1417 803 c 128,-1,93
 1496 882 1496 882 1608 882 c 0,94,95
 1719 882 1719 882 1798 803 c 128,-1,96
 1877 724 1877 724 1877 613 c 0,97,98
 1877 612 1877 612 1877 611 c 128,-1,99
 1877 610 1877 610 1877 610 c 1,100,-1
 1877 610 l 1,101,-1
 1877 610 l 1,102,103
 1877 580 1877 580 1869 548 c 1,104,-1
 1869 547 l 2,105,106
 1869 546 1869 546 1868.5 544.5 c 128,-1,107
 1868 543 1868 543 1868 542 c 2,108,-1
 1868 541 l 1,109,110
 1867 539 1867 539 1866.5 538 c 128,-1,111
 1866 537 1866 537 1866 536 c 2,112,-1
 1866 535 l 2,113,114
 1866 534 1866 534 1864 530 c 1,115,-1
 1864 529 l 2,116,117
 1864 528 1864 528 1862 524 c 1,118,-1
 1862 524 l 1,119,120
 1850 491 1850 491 1836 469 c 1,121,-1
 1836 469 l 1,122,123
 1835 467 1835 467 1834 466 c 128,-1,124
 1833 465 1833 465 1833 464 c 1,125,-1
 1833 464 l 1,126,127
 1832 462 1832 462 1829 459 c 1,128,-1
 1829 459 l 1,129,130
 1828 457 1828 457 1827 456 c 128,-1,131
 1826 455 1826 455 1826 454 c 1,132,-1
 1826 454 l 1,133,134
 1825 452 1825 452 1823.5 451 c 128,-1,135
 1822 450 1822 450 1822 449 c 1,136,-1
 1822 449 l 1,137,138
 1803 424 1803 424 1776 402 c 1,139,-1
 1776 402 l 1,140,141
 1773 400 1773 400 1772 398 c 1,142,-1
 1771 398 l 1,143,144
 1770 397 1770 397 1768.5 396 c 128,-1,145
 1767 395 1767 395 1767 395 c 1,146,-1
 1766 395 l 1,147,148
 1766 395 1766 395 1762 391 c 1,149,-1
 1761 391 l 1,150,151
 1729 368 1729 368 1691 356 c 1,152,-1
 1691 356 l 1,153,154
 1653 343 1653 343 1608 343 c 2,155,-1
 1607 343 l 1,79,80
888 219 m 1,156,157
 782 215 782 215 677 236 c 128,-1,158
 572 257 572 257 467 284 c 1,159,160
 392 302 392 302 318 318.5 c 128,-1,161
 244 335 244 335 171 342 c 1,162,-1
 171 530 l 1,163,164
 251 523 251 523 330.5 505.5 c 128,-1,165
 410 488 410 488 490 468 c 0,166,167
 523 459 523 459 556.5 451 c 128,-1,168
 590 443 590 443 623 436 c 1,169,170
 618 464 618 464 618 488 c 0,171,172
 618 599 618 599 697 678.5 c 128,-1,173
 776 758 776 758 888 758 c 0,174,175
 999 758 999 758 1078 678.5 c 128,-1,176
 1157 599 1157 599 1157 488 c 0,177,178
 1157 487 1157 487 1157 486.5 c 128,-1,179
 1157 486 1157 486 1157 486 c 1,180,-1
 1157 486 l 1,181,-1
 1157 486 l 1,182,183
 1157 457 1157 457 1150 424 c 1,184,-1
 1150 423 l 1,185,186
 1149 421 1149 421 1148.5 419.5 c 128,-1,187
 1148 418 1148 418 1148 417 c 1,188,-1
 1148 417 l 1,189,190
 1147 415 1147 415 1146.5 413.5 c 128,-1,191
 1146 412 1146 412 1146 411 c 1,192,-1
 1146 411 l 1,193,194
 1146 408 1146 408 1144 406 c 1,195,-1
 1144 405 l 2,196,197
 1144 403 1144 403 1143.5 401.5 c 128,-1,198
 1143 400 1143 400 1143 400 c 1,199,-1
 1142 400 l 1,200,201
 1133 372 1133 372 1116 345 c 1,202,-1
 1116 345 l 1,203,204
 1114 341 1114 341 1113 340 c 1,205,-1
 1113 340 l 1,206,207
 1111 336 1111 336 1110 335 c 2,208,-1
 1109 334 l 2,209,210
 1108 333 1108 333 1107 331.5 c 128,-1,211
 1106 330 1106 330 1106 330 c 1,212,-1
 1106 330 l 1,213,214
 1104 326 1104 326 1102 325 c 1,215,-1
 1102 325 l 1,216,217
 1081 296 1081 296 1056 278 c 1,218,-1
 1056 278 l 1,219,220
 1056 278 1056 278 1052 274 c 1,221,-1
 1051 274 l 1,222,223
 1047 270 1047 270 1047 270 c 1,224,-1
 1047 270 l 1,225,226
 1043 268 1043 268 1042 267 c 1,227,-1
 1042 267 l 1,228,229
 1009 243 1009 243 971 232 c 1,230,-1
 971 232 l 1,231,232
 933 219 933 219 888 219 c 1,233,-1
 888 219 l 1,156,157
704 1399 m 1,234,235
 614 1395 614 1395 524.5 1413 c 128,-1,236
 435 1431 435 1431 346 1454 c 0,237,238
 243 1480 243 1480 171 1493 c 1,239,-1
 171 1654 l 1,240,241
 219 1645 219 1645 268 1633.5 c 128,-1,242
 317 1622 317 1622 366 1610 c 0,243,244
 394 1603 394 1603 422 1596 c 128,-1,245
 450 1589 450 1589 479 1583 c 1,246,247
 475 1603 475 1603 475 1628 c 0,248,249
 475 1722 475 1722 541.5 1789.5 c 128,-1,250
 608 1857 608 1857 704 1857 c 0,251,252
 798 1857 798 1857 865.5 1789.5 c 128,-1,253
 933 1722 933 1722 933 1628 c 0,254,255
 933 1627 933 1627 933 1626.5 c 128,-1,256
 933 1626 933 1626 933 1626 c 1,257,-1
 933 1626 l 1,258,-1
 933 1625 l 1,259,260
 931 1594 931 1594 926 1572 c 1,261,-1
 926 1572 l 1,262,263
 925 1571 925 1571 925 1568 c 2,264,-1
 925 1567 l 1,265,266
 924 1565 924 1565 923.5 1564 c 128,-1,267
 923 1563 923 1563 923 1562 c 1,268,-1
 923 1562 l 1,269,270
 923 1560 923 1560 922.5 1559 c 128,-1,271
 922 1558 922 1558 922 1557 c 1,272,-1
 922 1557 l 1,273,274
 921 1555 921 1555 920.5 1554 c 128,-1,275
 920 1553 920 1553 920 1552 c 1,276,-1
 920 1552 l 1,277,278
 909 1523 909 1523 898 1506 c 1,279,-1
 898 1506 l 1,280,281
 897 1504 897 1504 895 1502 c 1,282,-1
 895 1501 l 1,283,284
 893 1499 893 1499 892 1497 c 1,285,-1
 892 1497 l 1,286,287
 891 1496 891 1496 890 1494.5 c 128,-1,288
 889 1493 889 1493 889 1493 c 1,289,-1
 889 1493 l 1,290,291
 888 1492 888 1492 887 1490.5 c 128,-1,292
 886 1489 886 1489 886 1489 c 1,293,-1
 886 1489 l 1,294,295
 865 1463 865 1463 847 1449 c 1,296,-1
 847 1449 l 1,297,298
 845 1448 845 1448 843 1446 c 1,299,-1
 843 1445 l 1,300,301
 839 1443 839 1443 839 1443 c 1,302,-1
 839 1442 l 1,303,304
 837 1442 837 1442 835 1440 c 1,305,-1
 834 1440 l 1,306,307
 807 1420 807 1420 775 1410 c 1,308,-1
 775 1410 l 1,309,310
 743 1399 743 1399 704 1399 c 1,311,-1
 704 1399 l 1,234,235
EndSplineSet
Validated: 37
EndChar

StartChar: uniEE1D
Encoding: 60957 60957 76
Width: 1976
Flags: W
LayerCount: 2
Fore
SplineSet
1065 819 m 1,0,1
 943 815 943 815 823 839.5 c 128,-1,2
 703 864 703 864 583 894 c 0,3,4
 479 920 479 920 376 941.5 c 128,-1,5
 273 963 273 963 171 965 c 1,6,-1
 171 1180 l 1,7,8
 281 1178 281 1178 390 1155 c 128,-1,9
 499 1132 499 1132 609 1105 c 0,10,11
 647 1095 647 1095 685 1085.5 c 128,-1,12
 723 1076 723 1076 762 1068 c 1,13,14
 756 1096 756 1096 756 1128 c 0,15,16
 756 1255 756 1255 846 1345.5 c 128,-1,17
 936 1436 936 1436 1065 1436 c 0,18,19
 1192 1436 1192 1436 1282.5 1345.5 c 128,-1,20
 1373 1255 1373 1255 1373 1128 c 0,21,22
 1373 1127 1373 1127 1373 1126 c 128,-1,23
 1373 1125 1373 1125 1373 1125 c 1,24,-1
 1373 1125 l 1,25,-1
 1373 1125 l 1,26,27
 1373 1087 1373 1087 1364 1053 c 1,28,-1
 1364 1053 l 1,29,30
 1364 1051 1364 1051 1363.5 1049.5 c 128,-1,31
 1363 1048 1363 1048 1363 1047 c 2,32,-1
 1362 1046 l 1,33,34
 1362 1044 1362 1044 1360 1040 c 1,35,-1
 1360 1039 l 2,36,37
 1360 1037 1360 1037 1358 1033 c 1,38,-1
 1358 1033 l 1,39,40
 1358 1030 1358 1030 1356 1026 c 1,41,-1
 1356 1026 l 1,42,43
 1343 991 1343 991 1326 964 c 1,44,-1
 1326 964 l 1,45,46
 1324 960 1324 960 1322 958 c 1,47,-1
 1322 958 l 1,48,49
 1321 956 1321 956 1320 954.5 c 128,-1,50
 1319 953 1319 953 1319 952 c 1,51,-1
 1318 952 l 1,52,53
 1316 948 1316 948 1314 947 c 1,54,-1
 1314 946 l 1,55,56
 1313 945 1313 945 1312 943.5 c 128,-1,57
 1311 942 1311 942 1310 941 c 1,58,-1
 1310 941 l 1,59,60
 1288 912 1288 912 1257 887 c 1,61,-1
 1257 887 l 1,62,63
 1256 885 1256 885 1252 883 c 1,64,-1
 1252 882 l 1,65,66
 1250 881 1250 881 1248.5 880 c 128,-1,67
 1247 879 1247 879 1246 879 c 1,68,-1
 1246 878 l 1,69,70
 1245 877 1245 877 1243.5 876 c 128,-1,71
 1242 875 1242 875 1241 874 c 1,72,-1
 1241 874 l 1,73,74
 1204 849 1204 849 1160 834 c 1,75,-1
 1160 834 l 1,76,77
 1110 819 1110 819 1065 819 c 1,78,-1
 1065 819 l 1,0,1
1607 343 m 1,79,80
 1507 339 1507 339 1407.5 358 c 128,-1,81
 1308 377 1308 377 1209 403 c 1,82,83
 1220 445 1220 445 1220 488 c 0,84,85
 1220 543 1220 543 1203 594 c 1,86,-1
 1210 592 l 1,87,88
 1288 572 1288 572 1343 560 c 1,89,90
 1338 588 1338 588 1338 613 c 0,91,92
 1338 724 1338 724 1417 803 c 128,-1,93
 1496 882 1496 882 1608 882 c 0,94,95
 1719 882 1719 882 1798 803 c 128,-1,96
 1877 724 1877 724 1877 613 c 0,97,98
 1877 612 1877 612 1877 611 c 128,-1,99
 1877 610 1877 610 1877 610 c 1,100,-1
 1877 610 l 1,101,-1
 1877 610 l 1,102,103
 1877 580 1877 580 1869 548 c 1,104,-1
 1869 547 l 2,105,106
 1869 546 1869 546 1868.5 544.5 c 128,-1,107
 1868 543 1868 543 1868 542 c 2,108,-1
 1868 541 l 1,109,110
 1867 539 1867 539 1866.5 538 c 128,-1,111
 1866 537 1866 537 1866 536 c 2,112,-1
 1866 535 l 2,113,114
 1866 534 1866 534 1864 530 c 1,115,-1
 1864 529 l 2,116,117
 1864 528 1864 528 1862 524 c 1,118,-1
 1862 524 l 1,119,120
 1850 491 1850 491 1836 469 c 1,121,-1
 1836 469 l 1,122,123
 1835 467 1835 467 1834 466 c 128,-1,124
 1833 465 1833 465 1833 464 c 1,125,-1
 1833 464 l 1,126,127
 1832 462 1832 462 1829 459 c 1,128,-1
 1829 459 l 1,129,130
 1828 457 1828 457 1827 456 c 128,-1,131
 1826 455 1826 455 1826 454 c 1,132,-1
 1826 454 l 1,133,134
 1825 452 1825 452 1823.5 451 c 128,-1,135
 1822 450 1822 450 1822 449 c 1,136,-1
 1822 449 l 1,137,138
 1803 424 1803 424 1776 402 c 1,139,-1
 1776 402 l 1,140,141
 1773 400 1773 400 1772 398 c 1,142,-1
 1771 398 l 1,143,144
 1770 397 1770 397 1768.5 396 c 128,-1,145
 1767 395 1767 395 1767 395 c 1,146,-1
 1766 395 l 1,147,148
 1766 395 1766 395 1762 391 c 1,149,-1
 1761 391 l 1,150,151
 1729 368 1729 368 1691 356 c 1,152,-1
 1691 356 l 1,153,154
 1653 343 1653 343 1608 343 c 2,155,-1
 1607 343 l 1,79,80
1653 1468 m 1,156,157
 1563 1465 1563 1465 1473.5 1483 c 128,-1,158
 1384 1501 1384 1501 1295 1524 c 1,159,160
 1218 1542 1218 1542 1141.5 1558.5 c 128,-1,161
 1065 1575 1065 1575 990 1576 c 1,162,163
 995 1604 995 1604 995 1628 c 0,164,165
 995 1685 995 1685 974 1736 c 1,166,167
 1059 1736 1059 1736 1144.5 1718.5 c 128,-1,168
 1230 1701 1230 1701 1315 1680 c 0,169,170
 1343 1673 1343 1673 1371 1666 c 128,-1,171
 1399 1659 1399 1659 1428 1653 c 1,172,173
 1424 1671 1424 1671 1424 1697 c 0,174,175
 1424 1792 1424 1792 1490.5 1859 c 128,-1,176
 1557 1926 1557 1926 1653 1926 c 0,177,178
 1747 1926 1747 1926 1814.5 1859 c 128,-1,179
 1882 1792 1882 1792 1882 1697 c 2,180,181
 1882 1697 1882 1697 1882 1696 c 128,-1,182
 1882 1695 1882 1695 1882 1695 c 1,183,-1
 1882 1695 l 1,184,-1
 1882 1695 l 1,185,186
 1882 1671 1882 1671 1875 1642 c 1,187,-1
 1875 1642 l 1,188,189
 1875 1640 1875 1640 1874.5 1639 c 128,-1,190
 1874 1638 1874 1638 1874 1637 c 1,191,-1
 1874 1637 l 1,192,193
 1873 1635 1873 1635 1872.5 1634 c 128,-1,194
 1872 1633 1872 1633 1872 1632 c 1,195,-1
 1872 1632 l 1,196,197
 1872 1630 1872 1630 1871.5 1629 c 128,-1,198
 1871 1628 1871 1628 1871 1627 c 1,199,-1
 1871 1627 l 1,200,201
 1868 1621 1868 1621 1869 1622 c 1,202,-1
 1869 1622 l 1,203,204
 1859 1595 1859 1595 1847 1576 c 1,205,-1
 1847 1575 l 1,206,207
 1845 1573 1845 1573 1844 1571 c 1,208,-1
 1844 1571 l 1,209,210
 1843 1570 1843 1570 1842 1568.5 c 128,-1,211
 1841 1567 1841 1567 1841 1567 c 1,212,-1
 1841 1567 l 1,213,214
 1840 1565 1840 1565 1838 1563 c 1,215,-1
 1838 1563 l 1,216,217
 1837 1561 1837 1561 1835 1559 c 1,218,-1
 1835 1559 l 1,219,220
 1816 1534 1816 1534 1796 1519 c 1,221,-1
 1796 1518 l 1,222,223
 1795 1517 1795 1517 1793.5 1516 c 128,-1,224
 1792 1515 1792 1515 1792 1515 c 1,225,-1
 1792 1515 l 1,226,227
 1791 1514 1791 1514 1789.5 1513 c 128,-1,228
 1788 1512 1788 1512 1788 1512 c 1,229,-1
 1788 1512 l 1,230,231
 1786 1511 1786 1511 1784 1509 c 1,232,-1
 1784 1509 l 1,233,234
 1755 1489 1755 1489 1724 1479 c 1,235,-1
 1724 1479 l 1,236,237
 1687 1468 1687 1468 1653 1468 c 1,238,-1
 1653 1468 l 1,156,157
888 219 m 1,239,240
 782 215 782 215 677 236 c 128,-1,241
 572 257 572 257 467 284 c 1,242,243
 392 302 392 302 318 318.5 c 128,-1,244
 244 335 244 335 171 342 c 1,245,-1
 171 530 l 1,246,247
 251 523 251 523 330.5 505.5 c 128,-1,248
 410 488 410 488 490 468 c 0,249,250
 523 459 523 459 556.5 451 c 128,-1,251
 590 443 590 443 623 436 c 1,252,253
 618 464 618 464 618 488 c 0,254,255
 618 599 618 599 697 678.5 c 128,-1,256
 776 758 776 758 888 758 c 0,257,258
 999 758 999 758 1078 678.5 c 128,-1,259
 1157 599 1157 599 1157 488 c 0,260,261
 1157 487 1157 487 1157 486.5 c 128,-1,262
 1157 486 1157 486 1157 486 c 1,263,-1
 1157 486 l 1,264,-1
 1157 486 l 1,265,266
 1157 457 1157 457 1150 424 c 1,267,-1
 1150 423 l 1,268,269
 1149 421 1149 421 1148.5 419.5 c 128,-1,270
 1148 418 1148 418 1148 417 c 1,271,-1
 1148 417 l 1,272,273
 1147 415 1147 415 1146.5 413.5 c 128,-1,274
 1146 412 1146 412 1146 411 c 1,275,-1
 1146 411 l 1,276,277
 1146 408 1146 408 1144 406 c 1,278,-1
 1144 405 l 2,279,280
 1144 403 1144 403 1143.5 401.5 c 128,-1,281
 1143 400 1143 400 1143 400 c 1,282,-1
 1142 400 l 1,283,284
 1133 372 1133 372 1116 345 c 1,285,-1
 1116 345 l 1,286,287
 1114 341 1114 341 1113 340 c 1,288,-1
 1113 340 l 1,289,290
 1111 336 1111 336 1110 335 c 2,291,-1
 1109 334 l 2,292,293
 1108 333 1108 333 1107 331.5 c 128,-1,294
 1106 330 1106 330 1106 330 c 1,295,-1
 1106 330 l 1,296,297
 1104 326 1104 326 1102 325 c 1,298,-1
 1102 325 l 1,299,300
 1081 296 1081 296 1056 278 c 1,301,-1
 1056 278 l 1,302,303
 1056 278 1056 278 1052 274 c 1,304,-1
 1051 274 l 1,305,306
 1047 270 1047 270 1047 270 c 1,307,-1
 1047 270 l 1,308,309
 1043 268 1043 268 1042 267 c 1,310,-1
 1042 267 l 1,311,312
 1009 243 1009 243 971 232 c 1,313,-1
 971 232 l 1,314,315
 933 219 933 219 888 219 c 1,316,-1
 888 219 l 1,239,240
704 1399 m 1,317,318
 614 1395 614 1395 524.5 1413 c 128,-1,319
 435 1431 435 1431 346 1454 c 0,320,321
 243 1480 243 1480 171 1493 c 1,322,-1
 171 1654 l 1,323,324
 219 1645 219 1645 268 1633.5 c 128,-1,325
 317 1622 317 1622 366 1610 c 0,326,327
 394 1603 394 1603 422 1596 c 128,-1,328
 450 1589 450 1589 479 1583 c 1,329,330
 475 1603 475 1603 475 1628 c 0,331,332
 475 1722 475 1722 541.5 1789.5 c 128,-1,333
 608 1857 608 1857 704 1857 c 0,334,335
 798 1857 798 1857 865.5 1789.5 c 128,-1,336
 933 1722 933 1722 933 1628 c 0,337,338
 933 1627 933 1627 933 1626.5 c 128,-1,339
 933 1626 933 1626 933 1626 c 1,340,-1
 933 1626 l 1,341,-1
 933 1625 l 1,342,343
 931 1594 931 1594 926 1572 c 1,344,-1
 926 1572 l 1,345,346
 925 1571 925 1571 925 1568 c 2,347,-1
 925 1567 l 1,348,349
 924 1565 924 1565 923.5 1564 c 128,-1,350
 923 1563 923 1563 923 1562 c 1,351,-1
 923 1562 l 1,352,353
 923 1560 923 1560 922.5 1559 c 128,-1,354
 922 1558 922 1558 922 1557 c 1,355,-1
 922 1557 l 1,356,357
 921 1555 921 1555 920.5 1554 c 128,-1,358
 920 1553 920 1553 920 1552 c 1,359,-1
 920 1552 l 1,360,361
 909 1523 909 1523 898 1506 c 1,362,-1
 898 1506 l 1,363,364
 897 1504 897 1504 895 1502 c 1,365,-1
 895 1501 l 1,366,367
 893 1499 893 1499 892 1497 c 1,368,-1
 892 1497 l 1,369,370
 891 1496 891 1496 890 1494.5 c 128,-1,371
 889 1493 889 1493 889 1493 c 1,372,-1
 889 1493 l 1,373,374
 888 1492 888 1492 887 1490.5 c 128,-1,375
 886 1489 886 1489 886 1489 c 1,376,-1
 886 1489 l 1,377,378
 865 1463 865 1463 847 1449 c 1,379,-1
 847 1449 l 1,380,381
 845 1448 845 1448 843 1446 c 1,382,-1
 843 1445 l 1,383,384
 839 1443 839 1443 839 1443 c 1,385,-1
 839 1442 l 1,386,387
 837 1442 837 1442 835 1440 c 1,388,-1
 834 1440 l 1,389,390
 807 1420 807 1420 775 1410 c 1,391,-1
 775 1410 l 1,392,393
 743 1399 743 1399 704 1399 c 1,394,-1
 704 1399 l 1,317,318
EndSplineSet
Validated: 37
EndChar

StartChar: uniEE1E
Encoding: 60958 60958 77
Width: 1969
Flags: W
LayerCount: 2
Fore
SplineSet
1065 819 m 1,0,1
 943 815 943 815 823 839.5 c 128,-1,2
 703 864 703 864 583 894 c 0,3,4
 479 920 479 920 376 941.5 c 128,-1,5
 273 963 273 963 171 965 c 1,6,-1
 171 1180 l 1,7,8
 281 1178 281 1178 390 1155 c 128,-1,9
 499 1132 499 1132 609 1105 c 0,10,11
 647 1095 647 1095 685 1085.5 c 128,-1,12
 723 1076 723 1076 762 1068 c 1,13,14
 756 1096 756 1096 756 1128 c 0,15,16
 756 1255 756 1255 846 1345.5 c 128,-1,17
 936 1436 936 1436 1065 1436 c 0,18,19
 1192 1436 1192 1436 1282.5 1345.5 c 128,-1,20
 1373 1255 1373 1255 1373 1128 c 0,21,22
 1373 1127 1373 1127 1373 1126 c 128,-1,23
 1373 1125 1373 1125 1373 1125 c 1,24,-1
 1373 1125 l 1,25,-1
 1373 1125 l 1,26,27
 1373 1087 1373 1087 1364 1053 c 1,28,-1
 1364 1053 l 1,29,30
 1364 1051 1364 1051 1363.5 1049.5 c 128,-1,31
 1363 1048 1363 1048 1363 1047 c 2,32,-1
 1362 1046 l 1,33,34
 1362 1044 1362 1044 1360 1040 c 1,35,-1
 1360 1039 l 2,36,37
 1360 1037 1360 1037 1358 1033 c 1,38,-1
 1358 1033 l 1,39,40
 1358 1030 1358 1030 1356 1026 c 1,41,-1
 1356 1026 l 1,42,43
 1343 991 1343 991 1326 964 c 1,44,-1
 1326 964 l 1,45,46
 1324 960 1324 960 1322 958 c 1,47,-1
 1322 958 l 1,48,49
 1321 956 1321 956 1320 954.5 c 128,-1,50
 1319 953 1319 953 1319 952 c 1,51,-1
 1318 952 l 1,52,53
 1316 948 1316 948 1314 947 c 1,54,-1
 1314 946 l 1,55,56
 1313 945 1313 945 1312 943.5 c 128,-1,57
 1311 942 1311 942 1310 941 c 1,58,-1
 1310 941 l 1,59,60
 1288 912 1288 912 1257 887 c 1,61,-1
 1257 887 l 1,62,63
 1256 885 1256 885 1252 883 c 1,64,-1
 1252 882 l 1,65,66
 1250 881 1250 881 1248.5 880 c 128,-1,67
 1247 879 1247 879 1246 879 c 1,68,-1
 1246 878 l 1,69,70
 1245 877 1245 877 1243.5 876 c 128,-1,71
 1242 875 1242 875 1241 874 c 1,72,-1
 1241 874 l 1,73,74
 1204 849 1204 849 1160 834 c 1,75,-1
 1160 834 l 1,76,77
 1110 819 1110 819 1065 819 c 1,78,-1
 1065 819 l 1,0,1
1876 338 m 1,79,-1
 1876 237 l 1,80,-1
 1796 298 l 1,81,82
 1652 406 1652 406 1504.5 416 c 128,-1,83
 1357 426 1357 426 1210 396 c 1,84,85
 1223 444 1223 444 1223 488 c 0,86,87
 1223 544 1223 544 1205 594 c 1,88,89
 1366 625 1366 625 1528.5 611 c 128,-1,90
 1691 597 1691 597 1856 474 c 1,91,-1
 1876 458 l 1,92,-1
 1876 433 l 1,93,-1
 1876 338 l 1,79,-1
888 219 m 1,94,95
 782 215 782 215 677 236 c 128,-1,96
 572 257 572 257 467 284 c 1,97,98
 392 302 392 302 318 318.5 c 128,-1,99
 244 335 244 335 171 342 c 1,100,-1
 171 530 l 1,101,102
 251 523 251 523 330.5 505.5 c 128,-1,103
 410 488 410 488 490 468 c 0,104,105
 523 459 523 459 556.5 451 c 128,-1,106
 590 443 590 443 623 436 c 1,107,108
 618 464 618 464 618 488 c 0,109,110
 618 599 618 599 697 678.5 c 128,-1,111
 776 758 776 758 888 758 c 0,112,113
 999 758 999 758 1078 678.5 c 128,-1,114
 1157 599 1157 599 1157 488 c 0,115,116
 1157 487 1157 487 1157 486.5 c 128,-1,117
 1157 486 1157 486 1157 486 c 1,118,-1
 1157 486 l 1,119,-1
 1157 486 l 1,120,121
 1157 457 1157 457 1150 424 c 1,122,-1
 1150 423 l 1,123,124
 1149 421 1149 421 1148.5 419.5 c 128,-1,125
 1148 418 1148 418 1148 417 c 1,126,-1
 1148 417 l 1,127,128
 1147 415 1147 415 1146.5 413.5 c 128,-1,129
 1146 412 1146 412 1146 411 c 1,130,-1
 1146 411 l 1,131,132
 1146 408 1146 408 1144 406 c 1,133,-1
 1144 405 l 2,134,135
 1144 403 1144 403 1143.5 401.5 c 128,-1,136
 1143 400 1143 400 1143 400 c 1,137,-1
 1142 400 l 1,138,139
 1133 372 1133 372 1116 345 c 1,140,-1
 1116 345 l 1,141,142
 1114 341 1114 341 1113 340 c 1,143,-1
 1113 340 l 1,144,145
 1111 336 1111 336 1110 335 c 2,146,-1
 1109 334 l 2,147,148
 1108 333 1108 333 1107 331.5 c 128,-1,149
 1106 330 1106 330 1106 330 c 1,150,-1
 1106 330 l 1,151,152
 1104 326 1104 326 1102 325 c 1,153,-1
 1102 325 l 1,154,155
 1081 296 1081 296 1056 278 c 1,156,-1
 1056 278 l 1,157,158
 1056 278 1056 278 1052 274 c 1,159,-1
 1051 274 l 1,160,161
 1047 270 1047 270 1047 270 c 1,162,-1
 1047 270 l 1,163,164
 1043 268 1043 268 1042 267 c 1,165,-1
 1042 267 l 1,166,167
 1009 243 1009 243 971 232 c 1,168,-1
 971 232 l 1,169,170
 933 219 933 219 888 219 c 1,171,-1
 888 219 l 1,94,95
704 1399 m 1,172,173
 614 1395 614 1395 524.5 1413 c 128,-1,174
 435 1431 435 1431 346 1454 c 0,175,176
 243 1480 243 1480 171 1493 c 1,177,-1
 171 1654 l 1,178,179
 219 1645 219 1645 268 1633.5 c 128,-1,180
 317 1622 317 1622 366 1610 c 0,181,182
 394 1603 394 1603 422 1596 c 128,-1,183
 450 1589 450 1589 479 1583 c 1,184,185
 475 1603 475 1603 475 1628 c 0,186,187
 475 1722 475 1722 541.5 1789.5 c 128,-1,188
 608 1857 608 1857 704 1857 c 0,189,190
 798 1857 798 1857 865.5 1789.5 c 128,-1,191
 933 1722 933 1722 933 1628 c 0,192,193
 933 1627 933 1627 933 1626.5 c 128,-1,194
 933 1626 933 1626 933 1626 c 1,195,-1
 933 1626 l 1,196,-1
 933 1625 l 1,197,198
 931 1594 931 1594 926 1572 c 1,199,-1
 926 1572 l 1,200,201
 925 1571 925 1571 925 1568 c 2,202,-1
 925 1567 l 1,203,204
 924 1565 924 1565 923.5 1564 c 128,-1,205
 923 1563 923 1563 923 1562 c 1,206,-1
 923 1562 l 1,207,208
 923 1560 923 1560 922.5 1559 c 128,-1,209
 922 1558 922 1558 922 1557 c 1,210,-1
 922 1557 l 1,211,212
 921 1555 921 1555 920.5 1554 c 128,-1,213
 920 1553 920 1553 920 1552 c 1,214,-1
 920 1552 l 1,215,216
 909 1523 909 1523 898 1506 c 1,217,-1
 898 1506 l 1,218,219
 897 1504 897 1504 895 1502 c 1,220,-1
 895 1501 l 1,221,222
 893 1499 893 1499 892 1497 c 1,223,-1
 892 1497 l 1,224,225
 891 1496 891 1496 890 1494.5 c 128,-1,226
 889 1493 889 1493 889 1493 c 1,227,-1
 889 1493 l 1,228,229
 888 1492 888 1492 887 1490.5 c 128,-1,230
 886 1489 886 1489 886 1489 c 1,231,-1
 886 1489 l 1,232,233
 865 1463 865 1463 847 1449 c 1,234,-1
 847 1449 l 1,235,236
 845 1448 845 1448 843 1446 c 1,237,-1
 843 1445 l 1,238,239
 839 1443 839 1443 839 1443 c 1,240,-1
 839 1442 l 1,241,242
 837 1442 837 1442 835 1440 c 1,243,-1
 834 1440 l 1,244,245
 807 1420 807 1420 775 1410 c 1,246,-1
 775 1410 l 1,247,248
 743 1399 743 1399 704 1399 c 1,249,-1
 704 1399 l 1,172,173
EndSplineSet
Validated: 37
EndChar

StartChar: uniE000
Encoding: 57344 57344 78
Width: 1970
Flags: W
LayerCount: 2
Fore
SplineSet
1065 819 m 1,0,1
 943 815 943 815 823 839.5 c 128,-1,2
 703 864 703 864 583 894 c 0,3,4
 479 920 479 920 376 941.5 c 128,-1,5
 273 963 273 963 171 965 c 1,6,-1
 171 1180 l 1,7,8
 281 1178 281 1178 390 1155 c 128,-1,9
 499 1132 499 1132 609 1105 c 0,10,11
 647 1095 647 1095 685 1085.5 c 128,-1,12
 723 1076 723 1076 762 1068 c 1,13,14
 756 1096 756 1096 756 1128 c 0,15,16
 756 1255 756 1255 846 1345.5 c 128,-1,17
 936 1436 936 1436 1065 1436 c 0,18,19
 1192 1436 1192 1436 1282.5 1345.5 c 128,-1,20
 1373 1255 1373 1255 1373 1128 c 0,21,22
 1373 1127 1373 1127 1373 1126 c 128,-1,23
 1373 1125 1373 1125 1373 1125 c 1,24,-1
 1373 1125 l 1,25,-1
 1373 1125 l 1,26,27
 1373 1087 1373 1087 1364 1053 c 1,28,-1
 1364 1053 l 1,29,30
 1364 1051 1364 1051 1363.5 1049.5 c 128,-1,31
 1363 1048 1363 1048 1363 1047 c 2,32,-1
 1362 1046 l 1,33,34
 1362 1044 1362 1044 1360 1040 c 1,35,-1
 1360 1039 l 2,36,37
 1360 1037 1360 1037 1358 1033 c 1,38,-1
 1358 1033 l 1,39,40
 1358 1030 1358 1030 1356 1026 c 1,41,-1
 1356 1026 l 1,42,43
 1343 991 1343 991 1326 964 c 1,44,-1
 1326 964 l 1,45,46
 1324 960 1324 960 1322 958 c 1,47,-1
 1322 958 l 1,48,49
 1321 956 1321 956 1320 954.5 c 128,-1,50
 1319 953 1319 953 1319 952 c 1,51,-1
 1318 952 l 1,52,53
 1316 948 1316 948 1314 947 c 1,54,-1
 1314 946 l 1,55,56
 1313 945 1313 945 1312 943.5 c 128,-1,57
 1311 942 1311 942 1310 941 c 1,58,-1
 1310 941 l 1,59,60
 1288 912 1288 912 1257 887 c 1,61,-1
 1257 887 l 1,62,63
 1256 885 1256 885 1252 883 c 1,64,-1
 1252 882 l 1,65,66
 1250 881 1250 881 1248.5 880 c 128,-1,67
 1247 879 1247 879 1246 879 c 1,68,-1
 1246 878 l 1,69,70
 1245 877 1245 877 1243.5 876 c 128,-1,71
 1242 875 1242 875 1241 874 c 1,72,-1
 1241 874 l 1,73,74
 1204 849 1204 849 1160 834 c 1,75,-1
 1160 834 l 1,76,77
 1110 819 1110 819 1065 819 c 1,78,-1
 1065 819 l 1,0,1
1877 909 m 1,79,-1
 1877 809 l 1,80,-1
 1796 869 l 2,81,82
 1703 938 1703 938 1609 965 c 128,-1,83
 1515 992 1515 992 1420 992 c 1,84,85
 1445 1057 1445 1057 1445 1128 c 0,86,87
 1445 1155 1445 1155 1440 1190 c 1,88,89
 1542 1188 1542 1188 1646.5 1156 c 128,-1,90
 1751 1124 1751 1124 1857 1045 c 2,91,-1
 1877 1030 l 1,92,-1
 1877 1005 l 1,93,-1
 1877 909 l 1,79,-1
1876 338 m 1,94,-1
 1876 237 l 1,95,-1
 1796 298 l 1,96,97
 1652 406 1652 406 1504.5 416 c 128,-1,98
 1357 426 1357 426 1210 396 c 1,99,100
 1223 444 1223 444 1223 488 c 0,101,102
 1223 544 1223 544 1205 594 c 1,103,104
 1366 625 1366 625 1528.5 611 c 128,-1,105
 1691 597 1691 597 1856 474 c 1,106,-1
 1876 458 l 1,107,-1
 1876 433 l 1,108,-1
 1876 338 l 1,94,-1
888 219 m 1,109,110
 782 215 782 215 677 236 c 128,-1,111
 572 257 572 257 467 284 c 1,112,113
 392 302 392 302 318 318.5 c 128,-1,114
 244 335 244 335 171 342 c 1,115,-1
 171 530 l 1,116,117
 251 523 251 523 330.5 505.5 c 128,-1,118
 410 488 410 488 490 468 c 0,119,120
 523 459 523 459 556.5 451 c 128,-1,121
 590 443 590 443 623 436 c 1,122,123
 618 464 618 464 618 488 c 0,124,125
 618 599 618 599 697 678.5 c 128,-1,126
 776 758 776 758 888 758 c 0,127,128
 999 758 999 758 1078 678.5 c 128,-1,129
 1157 599 1157 599 1157 488 c 0,130,131
 1157 487 1157 487 1157 486.5 c 128,-1,132
 1157 486 1157 486 1157 486 c 1,133,-1
 1157 486 l 1,134,-1
 1157 486 l 1,135,136
 1157 457 1157 457 1150 424 c 1,137,-1
 1150 423 l 1,138,139
 1149 421 1149 421 1148.5 419.5 c 128,-1,140
 1148 418 1148 418 1148 417 c 1,141,-1
 1148 417 l 1,142,143
 1147 415 1147 415 1146.5 413.5 c 128,-1,144
 1146 412 1146 412 1146 411 c 1,145,-1
 1146 411 l 1,146,147
 1146 408 1146 408 1144 406 c 1,148,-1
 1144 405 l 2,149,150
 1144 403 1144 403 1143.5 401.5 c 128,-1,151
 1143 400 1143 400 1143 400 c 1,152,-1
 1142 400 l 1,153,154
 1133 372 1133 372 1116 345 c 1,155,-1
 1116 345 l 1,156,157
 1114 341 1114 341 1113 340 c 1,158,-1
 1113 340 l 1,159,160
 1111 336 1111 336 1110 335 c 2,161,-1
 1109 334 l 2,162,163
 1108 333 1108 333 1107 331.5 c 128,-1,164
 1106 330 1106 330 1106 330 c 1,165,-1
 1106 330 l 1,166,167
 1104 326 1104 326 1102 325 c 1,168,-1
 1102 325 l 1,169,170
 1081 296 1081 296 1056 278 c 1,171,-1
 1056 278 l 1,172,173
 1056 278 1056 278 1052 274 c 1,174,-1
 1051 274 l 1,175,176
 1047 270 1047 270 1047 270 c 1,177,-1
 1047 270 l 1,178,179
 1043 268 1043 268 1042 267 c 1,180,-1
 1042 267 l 1,181,182
 1009 243 1009 243 971 232 c 1,183,-1
 971 232 l 1,184,185
 933 219 933 219 888 219 c 1,186,-1
 888 219 l 1,109,110
704 1399 m 1,187,188
 614 1395 614 1395 524.5 1413 c 128,-1,189
 435 1431 435 1431 346 1454 c 0,190,191
 243 1480 243 1480 171 1493 c 1,192,-1
 171 1654 l 1,193,194
 219 1645 219 1645 268 1633.5 c 128,-1,195
 317 1622 317 1622 366 1610 c 0,196,197
 394 1603 394 1603 422 1596 c 128,-1,198
 450 1589 450 1589 479 1583 c 1,199,200
 475 1603 475 1603 475 1628 c 0,201,202
 475 1722 475 1722 541.5 1789.5 c 128,-1,203
 608 1857 608 1857 704 1857 c 0,204,205
 798 1857 798 1857 865.5 1789.5 c 128,-1,206
 933 1722 933 1722 933 1628 c 0,207,208
 933 1627 933 1627 933 1626.5 c 128,-1,209
 933 1626 933 1626 933 1626 c 1,210,-1
 933 1626 l 1,211,-1
 933 1625 l 1,212,213
 931 1594 931 1594 926 1572 c 1,214,-1
 926 1572 l 1,215,216
 925 1571 925 1571 925 1568 c 2,217,-1
 925 1567 l 1,218,219
 924 1565 924 1565 923.5 1564 c 128,-1,220
 923 1563 923 1563 923 1562 c 1,221,-1
 923 1562 l 1,222,223
 923 1560 923 1560 922.5 1559 c 128,-1,224
 922 1558 922 1558 922 1557 c 1,225,-1
 922 1557 l 1,226,227
 921 1555 921 1555 920.5 1554 c 128,-1,228
 920 1553 920 1553 920 1552 c 1,229,-1
 920 1552 l 1,230,231
 909 1523 909 1523 898 1506 c 1,232,-1
 898 1506 l 1,233,234
 897 1504 897 1504 895 1502 c 1,235,-1
 895 1501 l 1,236,237
 893 1499 893 1499 892 1497 c 1,238,-1
 892 1497 l 1,239,240
 891 1496 891 1496 890 1494.5 c 128,-1,241
 889 1493 889 1493 889 1493 c 1,242,-1
 889 1493 l 1,243,244
 888 1492 888 1492 887 1490.5 c 128,-1,245
 886 1489 886 1489 886 1489 c 1,246,-1
 886 1489 l 1,247,248
 865 1463 865 1463 847 1449 c 1,249,-1
 847 1449 l 1,250,251
 845 1448 845 1448 843 1446 c 1,252,-1
 843 1445 l 1,253,254
 839 1443 839 1443 839 1443 c 1,255,-1
 839 1442 l 1,256,257
 837 1442 837 1442 835 1440 c 1,258,-1
 834 1440 l 1,259,260
 807 1420 807 1420 775 1410 c 1,261,-1
 775 1410 l 1,262,263
 743 1399 743 1399 704 1399 c 1,264,-1
 704 1399 l 1,187,188
EndSplineSet
Validated: 37
EndChar

StartChar: uniEE1F
Encoding: 60959 60959 79
Width: 1970
Flags: W
LayerCount: 2
Fore
SplineSet
1065 819 m 1,0,1
 943 815 943 815 823 839.5 c 128,-1,2
 703 864 703 864 583 894 c 0,3,4
 479 920 479 920 376 941.5 c 128,-1,5
 273 963 273 963 171 965 c 1,6,-1
 171 1180 l 1,7,8
 281 1178 281 1178 390 1155 c 128,-1,9
 499 1132 499 1132 609 1105 c 0,10,11
 647 1095 647 1095 685 1085.5 c 128,-1,12
 723 1076 723 1076 762 1068 c 1,13,14
 756 1096 756 1096 756 1128 c 0,15,16
 756 1255 756 1255 846 1345.5 c 128,-1,17
 936 1436 936 1436 1065 1436 c 0,18,19
 1192 1436 1192 1436 1282.5 1345.5 c 128,-1,20
 1373 1255 1373 1255 1373 1128 c 0,21,22
 1373 1127 1373 1127 1373 1126 c 128,-1,23
 1373 1125 1373 1125 1373 1125 c 1,24,-1
 1373 1125 l 1,25,-1
 1373 1125 l 1,26,27
 1373 1087 1373 1087 1364 1053 c 1,28,-1
 1364 1053 l 1,29,30
 1364 1051 1364 1051 1363.5 1049.5 c 128,-1,31
 1363 1048 1363 1048 1363 1047 c 2,32,-1
 1362 1046 l 1,33,34
 1362 1044 1362 1044 1360 1040 c 1,35,-1
 1360 1039 l 2,36,37
 1360 1037 1360 1037 1358 1033 c 1,38,-1
 1358 1033 l 1,39,40
 1358 1030 1358 1030 1356 1026 c 1,41,-1
 1356 1026 l 1,42,43
 1343 991 1343 991 1326 964 c 1,44,-1
 1326 964 l 1,45,46
 1324 960 1324 960 1322 958 c 1,47,-1
 1322 958 l 1,48,49
 1321 956 1321 956 1320 954.5 c 128,-1,50
 1319 953 1319 953 1319 952 c 1,51,-1
 1318 952 l 1,52,53
 1316 948 1316 948 1314 947 c 1,54,-1
 1314 946 l 1,55,56
 1313 945 1313 945 1312 943.5 c 128,-1,57
 1311 942 1311 942 1310 941 c 1,58,-1
 1310 941 l 1,59,60
 1288 912 1288 912 1257 887 c 1,61,-1
 1257 887 l 1,62,63
 1256 885 1256 885 1252 883 c 1,64,-1
 1252 882 l 1,65,66
 1250 881 1250 881 1248.5 880 c 128,-1,67
 1247 879 1247 879 1246 879 c 1,68,-1
 1246 878 l 1,69,70
 1245 877 1245 877 1243.5 876 c 128,-1,71
 1242 875 1242 875 1241 874 c 1,72,-1
 1241 874 l 1,73,74
 1204 849 1204 849 1160 834 c 1,75,-1
 1160 834 l 1,76,77
 1110 819 1110 819 1065 819 c 1,78,-1
 1065 819 l 1,0,1
1877 909 m 1,79,-1
 1877 809 l 1,80,-1
 1796 869 l 2,81,82
 1703 938 1703 938 1609 965 c 128,-1,83
 1515 992 1515 992 1420 992 c 1,84,85
 1445 1057 1445 1057 1445 1128 c 0,86,87
 1445 1155 1445 1155 1440 1190 c 1,88,89
 1542 1188 1542 1188 1646.5 1156 c 128,-1,90
 1751 1124 1751 1124 1857 1045 c 2,91,-1
 1877 1030 l 1,92,-1
 1877 1005 l 1,93,-1
 1877 909 l 1,79,-1
1876 338 m 1,94,-1
 1876 237 l 1,95,-1
 1796 298 l 1,96,97
 1652 406 1652 406 1504.5 416 c 128,-1,98
 1357 426 1357 426 1210 396 c 1,99,100
 1223 444 1223 444 1223 488 c 0,101,102
 1223 544 1223 544 1205 594 c 1,103,104
 1366 625 1366 625 1528.5 611 c 128,-1,105
 1691 597 1691 597 1856 474 c 1,106,-1
 1876 458 l 1,107,-1
 1876 433 l 1,108,-1
 1876 338 l 1,94,-1
888 219 m 1,109,110
 782 215 782 215 677 236 c 128,-1,111
 572 257 572 257 467 284 c 1,112,113
 392 302 392 302 318 318.5 c 128,-1,114
 244 335 244 335 171 342 c 1,115,-1
 171 530 l 1,116,117
 251 523 251 523 330.5 505.5 c 128,-1,118
 410 488 410 488 490 468 c 0,119,120
 523 459 523 459 556.5 451 c 128,-1,121
 590 443 590 443 623 436 c 1,122,123
 618 464 618 464 618 488 c 0,124,125
 618 599 618 599 697 678.5 c 128,-1,126
 776 758 776 758 888 758 c 0,127,128
 999 758 999 758 1078 678.5 c 128,-1,129
 1157 599 1157 599 1157 488 c 0,130,131
 1157 487 1157 487 1157 486.5 c 128,-1,132
 1157 486 1157 486 1157 486 c 1,133,-1
 1157 486 l 1,134,-1
 1157 486 l 1,135,136
 1157 457 1157 457 1150 424 c 1,137,-1
 1150 423 l 1,138,139
 1149 421 1149 421 1148.5 419.5 c 128,-1,140
 1148 418 1148 418 1148 417 c 1,141,-1
 1148 417 l 1,142,143
 1147 415 1147 415 1146.5 413.5 c 128,-1,144
 1146 412 1146 412 1146 411 c 1,145,-1
 1146 411 l 1,146,147
 1146 408 1146 408 1144 406 c 1,148,-1
 1144 405 l 2,149,150
 1144 403 1144 403 1143.5 401.5 c 128,-1,151
 1143 400 1143 400 1143 400 c 1,152,-1
 1142 400 l 1,153,154
 1133 372 1133 372 1116 345 c 1,155,-1
 1116 345 l 1,156,157
 1114 341 1114 341 1113 340 c 1,158,-1
 1113 340 l 1,159,160
 1111 336 1111 336 1110 335 c 2,161,-1
 1109 334 l 2,162,163
 1108 333 1108 333 1107 331.5 c 128,-1,164
 1106 330 1106 330 1106 330 c 1,165,-1
 1106 330 l 1,166,167
 1104 326 1104 326 1102 325 c 1,168,-1
 1102 325 l 1,169,170
 1081 296 1081 296 1056 278 c 1,171,-1
 1056 278 l 1,172,173
 1056 278 1056 278 1052 274 c 1,174,-1
 1051 274 l 1,175,176
 1047 270 1047 270 1047 270 c 1,177,-1
 1047 270 l 1,178,179
 1043 268 1043 268 1042 267 c 1,180,-1
 1042 267 l 1,181,182
 1009 243 1009 243 971 232 c 1,183,-1
 971 232 l 1,184,185
 933 219 933 219 888 219 c 1,186,-1
 888 219 l 1,109,110
704 1399 m 1,187,188
 614 1395 614 1395 524.5 1413 c 128,-1,189
 435 1431 435 1431 346 1454 c 0,190,191
 243 1480 243 1480 171 1493 c 1,192,-1
 171 1654 l 1,193,194
 219 1645 219 1645 268 1633.5 c 128,-1,195
 317 1622 317 1622 366 1610 c 0,196,197
 394 1603 394 1603 422 1596 c 128,-1,198
 450 1589 450 1589 479 1583 c 1,199,200
 475 1603 475 1603 475 1628 c 0,201,202
 475 1722 475 1722 541.5 1789.5 c 128,-1,203
 608 1857 608 1857 704 1857 c 0,204,205
 798 1857 798 1857 865.5 1789.5 c 128,-1,206
 933 1722 933 1722 933 1628 c 0,207,208
 933 1627 933 1627 933 1626.5 c 128,-1,209
 933 1626 933 1626 933 1626 c 1,210,-1
 933 1626 l 1,211,-1
 933 1625 l 1,212,213
 931 1594 931 1594 926 1572 c 1,214,-1
 926 1572 l 1,215,216
 925 1571 925 1571 925 1568 c 2,217,-1
 925 1567 l 1,218,219
 924 1565 924 1565 923.5 1564 c 128,-1,220
 923 1563 923 1563 923 1562 c 1,221,-1
 923 1562 l 1,222,223
 923 1560 923 1560 922.5 1559 c 128,-1,224
 922 1558 922 1558 922 1557 c 1,225,-1
 922 1557 l 1,226,227
 921 1555 921 1555 920.5 1554 c 128,-1,228
 920 1553 920 1553 920 1552 c 1,229,-1
 920 1552 l 1,230,231
 909 1523 909 1523 898 1506 c 1,232,-1
 898 1506 l 1,233,234
 897 1504 897 1504 895 1502 c 1,235,-1
 895 1501 l 1,236,237
 893 1499 893 1499 892 1497 c 1,238,-1
 892 1497 l 1,239,240
 891 1496 891 1496 890 1494.5 c 128,-1,241
 889 1493 889 1493 889 1493 c 1,242,-1
 889 1493 l 1,243,244
 888 1492 888 1492 887 1490.5 c 128,-1,245
 886 1489 886 1489 886 1489 c 1,246,-1
 886 1489 l 1,247,248
 865 1463 865 1463 847 1449 c 1,249,-1
 847 1449 l 1,250,251
 845 1448 845 1448 843 1446 c 1,252,-1
 843 1445 l 1,253,254
 839 1443 839 1443 839 1443 c 1,255,-1
 839 1442 l 1,256,257
 837 1442 837 1442 835 1440 c 1,258,-1
 834 1440 l 1,259,260
 807 1420 807 1420 775 1410 c 1,261,-1
 775 1410 l 1,262,263
 743 1399 743 1399 704 1399 c 1,264,-1
 704 1399 l 1,187,188
EndSplineSet
Validated: 37
EndChar

StartChar: uniEE20
Encoding: 60960 60960 80
Width: 1970
Flags: W
LayerCount: 2
Fore
SplineSet
1065 819 m 1,0,1
 943 815 943 815 823 839.5 c 128,-1,2
 703 864 703 864 583 894 c 0,3,4
 479 920 479 920 376 941.5 c 128,-1,5
 273 963 273 963 171 965 c 1,6,-1
 171 1180 l 1,7,8
 281 1178 281 1178 390 1155 c 128,-1,9
 499 1132 499 1132 609 1105 c 0,10,11
 647 1095 647 1095 685 1085.5 c 128,-1,12
 723 1076 723 1076 762 1068 c 1,13,14
 756 1096 756 1096 756 1128 c 0,15,16
 756 1255 756 1255 846 1345.5 c 128,-1,17
 936 1436 936 1436 1065 1436 c 0,18,19
 1192 1436 1192 1436 1282.5 1345.5 c 128,-1,20
 1373 1255 1373 1255 1373 1128 c 0,21,22
 1373 1127 1373 1127 1373 1126 c 128,-1,23
 1373 1125 1373 1125 1373 1125 c 1,24,-1
 1373 1125 l 1,25,-1
 1373 1125 l 1,26,27
 1373 1087 1373 1087 1364 1053 c 1,28,-1
 1364 1053 l 1,29,30
 1364 1051 1364 1051 1363.5 1049.5 c 128,-1,31
 1363 1048 1363 1048 1363 1047 c 2,32,-1
 1362 1046 l 1,33,34
 1362 1044 1362 1044 1360 1040 c 1,35,-1
 1360 1039 l 2,36,37
 1360 1037 1360 1037 1358 1033 c 1,38,-1
 1358 1033 l 1,39,40
 1358 1030 1358 1030 1356 1026 c 1,41,-1
 1356 1026 l 1,42,43
 1343 991 1343 991 1326 964 c 1,44,-1
 1326 964 l 1,45,46
 1324 960 1324 960 1322 958 c 1,47,-1
 1322 958 l 1,48,49
 1321 956 1321 956 1320 954.5 c 128,-1,50
 1319 953 1319 953 1319 952 c 1,51,-1
 1318 952 l 1,52,53
 1316 948 1316 948 1314 947 c 1,54,-1
 1314 946 l 1,55,56
 1313 945 1313 945 1312 943.5 c 128,-1,57
 1311 942 1311 942 1310 941 c 1,58,-1
 1310 941 l 1,59,60
 1288 912 1288 912 1257 887 c 1,61,-1
 1257 887 l 1,62,63
 1256 885 1256 885 1252 883 c 1,64,-1
 1252 882 l 1,65,66
 1250 881 1250 881 1248.5 880 c 128,-1,67
 1247 879 1247 879 1246 879 c 1,68,-1
 1246 878 l 1,69,70
 1245 877 1245 877 1243.5 876 c 128,-1,71
 1242 875 1242 875 1241 874 c 1,72,-1
 1241 874 l 1,73,74
 1204 849 1204 849 1160 834 c 1,75,-1
 1160 834 l 1,76,77
 1110 819 1110 819 1065 819 c 1,78,-1
 1065 819 l 1,0,1
1876 1527 m 1,79,-1
 1876 1426 l 1,80,-1
 1796 1486 l 2,81,82
 1609 1626 1609 1626 1418.5 1609.5 c 128,-1,83
 1228 1593 1228 1593 1036 1545 c 0,84,85
 1021 1541 1021 1541 1007 1537 c 128,-1,86
 993 1533 993 1533 979 1530 c 1,87,88
 995 1575 995 1575 995 1628 c 0,89,90
 995 1682 995 1682 977 1730 c 1,91,92
 986 1731 986 1731 1012 1738 c 0,93,94
 1220 1790 1220 1790 1430 1807 c 128,-1,95
 1640 1824 1640 1824 1856 1663 c 1,96,-1
 1876 1647 l 1,97,-1
 1876 1622 l 1,98,-1
 1876 1527 l 1,79,-1
1877 909 m 1,99,-1
 1877 809 l 1,100,-1
 1796 869 l 2,101,102
 1703 938 1703 938 1609 965 c 128,-1,103
 1515 992 1515 992 1420 992 c 1,104,105
 1445 1057 1445 1057 1445 1128 c 0,106,107
 1445 1155 1445 1155 1440 1190 c 1,108,109
 1542 1188 1542 1188 1646.5 1156 c 128,-1,110
 1751 1124 1751 1124 1857 1045 c 2,111,-1
 1877 1030 l 1,112,-1
 1877 1005 l 1,113,-1
 1877 909 l 1,99,-1
1876 338 m 1,114,-1
 1876 237 l 1,115,-1
 1796 298 l 1,116,117
 1652 406 1652 406 1504.5 416 c 128,-1,118
 1357 426 1357 426 1210 396 c 1,119,120
 1223 444 1223 444 1223 488 c 0,121,122
 1223 544 1223 544 1205 594 c 1,123,124
 1366 625 1366 625 1528.5 611 c 128,-1,125
 1691 597 1691 597 1856 474 c 1,126,-1
 1876 458 l 1,127,-1
 1876 433 l 1,128,-1
 1876 338 l 1,114,-1
888 219 m 1,129,130
 782 215 782 215 677 236 c 128,-1,131
 572 257 572 257 467 284 c 1,132,133
 392 302 392 302 318 318.5 c 128,-1,134
 244 335 244 335 171 342 c 1,135,-1
 171 530 l 1,136,137
 251 523 251 523 330.5 505.5 c 128,-1,138
 410 488 410 488 490 468 c 0,139,140
 523 459 523 459 556.5 451 c 128,-1,141
 590 443 590 443 623 436 c 1,142,143
 618 464 618 464 618 488 c 0,144,145
 618 599 618 599 697 678.5 c 128,-1,146
 776 758 776 758 888 758 c 0,147,148
 999 758 999 758 1078 678.5 c 128,-1,149
 1157 599 1157 599 1157 488 c 0,150,151
 1157 487 1157 487 1157 486.5 c 128,-1,152
 1157 486 1157 486 1157 486 c 1,153,-1
 1157 486 l 1,154,-1
 1157 486 l 1,155,156
 1157 457 1157 457 1150 424 c 1,157,-1
 1150 423 l 1,158,159
 1149 421 1149 421 1148.5 419.5 c 128,-1,160
 1148 418 1148 418 1148 417 c 1,161,-1
 1148 417 l 1,162,163
 1147 415 1147 415 1146.5 413.5 c 128,-1,164
 1146 412 1146 412 1146 411 c 1,165,-1
 1146 411 l 1,166,167
 1146 408 1146 408 1144 406 c 1,168,-1
 1144 405 l 2,169,170
 1144 403 1144 403 1143.5 401.5 c 128,-1,171
 1143 400 1143 400 1143 400 c 1,172,-1
 1142 400 l 1,173,174
 1133 372 1133 372 1116 345 c 1,175,-1
 1116 345 l 1,176,177
 1114 341 1114 341 1113 340 c 1,178,-1
 1113 340 l 1,179,180
 1111 336 1111 336 1110 335 c 2,181,-1
 1109 334 l 2,182,183
 1108 333 1108 333 1107 331.5 c 128,-1,184
 1106 330 1106 330 1106 330 c 1,185,-1
 1106 330 l 1,186,187
 1104 326 1104 326 1102 325 c 1,188,-1
 1102 325 l 1,189,190
 1081 296 1081 296 1056 278 c 1,191,-1
 1056 278 l 1,192,193
 1056 278 1056 278 1052 274 c 1,194,-1
 1051 274 l 1,195,196
 1047 270 1047 270 1047 270 c 1,197,-1
 1047 270 l 1,198,199
 1043 268 1043 268 1042 267 c 1,200,-1
 1042 267 l 1,201,202
 1009 243 1009 243 971 232 c 1,203,-1
 971 232 l 1,204,205
 933 219 933 219 888 219 c 1,206,-1
 888 219 l 1,129,130
704 1399 m 1,207,208
 614 1395 614 1395 524.5 1413 c 128,-1,209
 435 1431 435 1431 346 1454 c 0,210,211
 243 1480 243 1480 171 1493 c 1,212,-1
 171 1654 l 1,213,214
 219 1645 219 1645 268 1633.5 c 128,-1,215
 317 1622 317 1622 366 1610 c 0,216,217
 394 1603 394 1603 422 1596 c 128,-1,218
 450 1589 450 1589 479 1583 c 1,219,220
 475 1603 475 1603 475 1628 c 0,221,222
 475 1722 475 1722 541.5 1789.5 c 128,-1,223
 608 1857 608 1857 704 1857 c 0,224,225
 798 1857 798 1857 865.5 1789.5 c 128,-1,226
 933 1722 933 1722 933 1628 c 0,227,228
 933 1627 933 1627 933 1626.5 c 128,-1,229
 933 1626 933 1626 933 1626 c 1,230,-1
 933 1626 l 1,231,-1
 933 1625 l 1,232,233
 931 1594 931 1594 926 1572 c 1,234,-1
 926 1572 l 1,235,236
 925 1571 925 1571 925 1568 c 2,237,-1
 925 1567 l 1,238,239
 924 1565 924 1565 923.5 1564 c 128,-1,240
 923 1563 923 1563 923 1562 c 1,241,-1
 923 1562 l 1,242,243
 923 1560 923 1560 922.5 1559 c 128,-1,244
 922 1558 922 1558 922 1557 c 1,245,-1
 922 1557 l 1,246,247
 921 1555 921 1555 920.5 1554 c 128,-1,248
 920 1553 920 1553 920 1552 c 1,249,-1
 920 1552 l 1,250,251
 909 1523 909 1523 898 1506 c 1,252,-1
 898 1506 l 1,253,254
 897 1504 897 1504 895 1502 c 1,255,-1
 895 1501 l 1,256,257
 893 1499 893 1499 892 1497 c 1,258,-1
 892 1497 l 1,259,260
 891 1496 891 1496 890 1494.5 c 128,-1,261
 889 1493 889 1493 889 1493 c 1,262,-1
 889 1493 l 1,263,264
 888 1492 888 1492 887 1490.5 c 128,-1,265
 886 1489 886 1489 886 1489 c 1,266,-1
 886 1489 l 1,267,268
 865 1463 865 1463 847 1449 c 1,269,-1
 847 1449 l 1,270,271
 845 1448 845 1448 843 1446 c 1,272,-1
 843 1445 l 1,273,274
 839 1443 839 1443 839 1443 c 1,275,-1
 839 1442 l 1,276,277
 837 1442 837 1442 835 1440 c 1,278,-1
 834 1440 l 1,279,280
 807 1420 807 1420 775 1410 c 1,281,-1
 775 1410 l 1,282,283
 743 1399 743 1399 704 1399 c 1,284,-1
 704 1399 l 1,207,208
EndSplineSet
Validated: 37
EndChar

